<svg width="513" height="131" viewBox="0 0 513 131" fill="none" xmlns="http://www.w3.org/2000/svg">
<path d="M500.39 98.1535H476.54L471.49 106.573H481.87V101.523H485.52V106.573H499.26V110.363H485.52V115.553H502.21V119.333H485.52V130.283H481.87V119.333H461.67V115.553H481.87V110.363H464.76L471.91 98.1535H462.93V94.5135H474.02L478.64 86.7935L482.15 88.6135L478.64 94.5135H500.39V98.1535Z" fill="#999999"/>
<path d="M327.849 97.8735H348.049V101.523H327.849V97.8735ZM315.509 130.283L310.879 127.613C310.879 127.613 314.109 124.383 316.069 120.883C316.069 120.883 318.029 116.813 319.159 111.763L323.509 113.023C323.509 113.023 321.689 119.473 319.999 122.703C319.989 122.843 318.309 126.353 315.509 130.283ZM314.659 106.293L310.869 103.913L313.539 99.9835L317.749 102.793C317.749 102.793 319.709 104.193 321.259 106.023L318.309 110.374C318.449 110.224 316.349 107.413 314.659 106.293ZM323.779 104.613H346.219V108.263L346.359 121.173C346.359 121.173 346.639 123.553 347.619 123.553C347.619 123.553 348.599 123.553 348.879 117.383L350.839 119.343L352.799 120.464L351.119 126.633C351.119 126.633 350.279 128.593 348.739 129.583C348.739 129.583 346.919 130.703 345.509 129.163C345.509 129.163 343.409 127.063 342.839 123.413L342.559 108.263H323.759L323.779 104.613ZM311.159 91.2835L313.969 87.4935L321.689 94.5035L319.019 97.8735C319.019 97.8735 317.339 95.7735 315.369 94.2235L311.159 91.2835ZM350.149 94.6535H328.549L327.569 96.6135L322.939 102.923L319.709 99.5535C319.709 99.5535 322.939 96.3235 324.199 93.9435C324.199 93.9435 325.879 90.5735 326.159 86.0835L330.509 88.3235L329.809 90.9935H350.149V94.6535Z" fill="#999999"/>
<path d="M161.2 23.3936H176.07V56.0736C176.07 56.0736 176.07 60.9836 177.05 62.2436C177.05 62.2436 177.89 63.6436 180.42 63.7836V67.2936H161.34V63.7836C161.34 63.7836 163.72 63.7836 164.85 61.9636C164.85 61.9636 165.55 60.7036 165.55 55.9336V32.9336C165.55 32.9336 165.55 29.1436 164.71 27.8836C164.71 27.8836 163.87 26.6236 161.34 26.3436V23.3936M171.02 1.50359C171.02 1.50359 173.83 1.50358 175.65 3.60358C175.65 3.60358 177.61 5.70358 177.61 8.37358C177.61 8.37358 177.61 11.1836 175.65 13.1436C175.65 13.1436 173.69 15.1036 171.02 15.1036C171.02 15.1036 168.21 15.1036 166.39 13.1436C166.39 13.1436 164.43 11.1836 164.43 8.37358C164.43 8.37358 164.43 5.56358 166.39 3.60358C166.25 3.61358 168.08 1.50359 171.02 1.50359ZM201.18 21.9836C196.69 21.9836 192.48 23.6636 192.48 23.6636C188.27 25.3436 186.17 28.0136 186.17 28.0136C184.35 30.3936 184.63 33.0636 184.63 33.0636C185.05 38.2536 190.94 38.2536 190.94 38.2536C193.46 38.2536 195.29 36.4336 195.29 36.4336C196.69 34.8936 196.69 33.4836 196.69 33.4836C196.69 31.2436 195.43 29.5536 195.43 29.5536C194.03 27.8736 194.31 27.5936 194.31 27.5936C195.57 26.6136 198.38 26.6136 198.38 26.6136C201.47 26.6136 202.73 28.7136 202.73 28.7136C203.15 29.5536 203.15 35.0236 203.15 35.0236V39.5136C192.49 42.8836 187.02 49.1936 187.02 49.1936C182.81 53.9636 183.23 59.4336 183.23 59.4336C183.37 63.3636 185.75 65.7436 185.75 65.7436C188.13 68.2636 193.18 68.2636 193.18 68.2636C199.21 68.2636 203.28 62.2336 203.28 62.2336L206.37 66.3036C208.47 68.4036 211.56 68.6836 211.56 68.6836C215.91 69.2436 218.29 66.4436 218.29 66.4436C220.81 63.6336 221.24 56.6236 221.24 56.6236H218.43C218.15 60.9736 217.03 61.5336 217.03 61.5336C215.91 62.2336 215.21 61.5336 215.21 61.5336L214.65 60.4136L214.51 56.6236V39.5136C214.51 32.2236 213.95 30.3936 213.95 30.3936C212.83 26.7436 210.02 24.5036 210.02 24.5036C206.93 21.9836 201.18 21.9836 201.18 21.9836ZM203.15 43.4536V57.3436C200.48 60.1536 198.52 60.1536 198.52 60.1536C196.7 60.1536 195.71 58.8936 195.71 58.8936C194.45 57.3536 194.45 54.9636 194.45 54.9636C194.45 50.7536 195.57 48.9336 195.57 48.9336C196.83 46.8136 203.15 43.4536 203.15 43.4536ZM116.88 6.55359C116.88 6.55359 115.9 5.29358 113.51 5.01358V1.78358H128.38V56.0736C128.38 56.0736 128.38 60.9836 129.22 62.2436C129.22 62.2436 130.2 63.6436 132.59 63.7836V67.2936H113.51V63.7836C113.51 63.7836 115.89 63.7836 117.02 61.9636C117.02 61.9636 117.86 60.8436 117.86 55.9336V12.5936C117.72 12.7336 117.72 8.10359 116.88 6.55359ZM140.3 6.55359C140.3 6.55359 139.32 5.29358 136.93 5.01358V1.78358H151.8V56.0736C151.8 56.0736 151.8 60.9836 152.64 62.2436C152.64 62.2436 153.62 63.6436 156.01 63.7836V67.2936H136.93V63.7836C136.93 63.7836 139.17 63.7836 140.44 61.9636C140.44 61.9636 141.28 60.8436 141.28 55.9336V12.5936C141.29 12.7336 141.29 7.96359 140.3 6.55359ZM89.95 26.6136V23.3836H104.82V56.0636C104.82 56.0636 104.82 60.9736 105.8 62.2336C105.8 62.2336 106.78 63.6336 109.17 63.7736V67.2836H90.09V63.7736C90.09 63.7736 92.47 63.7736 93.6 61.9536C93.6 61.9536 94.3 60.8336 94.3 55.9236V32.9236C94.3 32.9236 94.3 29.1336 93.46 27.8736C93.31 28.1636 92.47 26.7536 89.95 26.6136ZM82.37 22.9736C82.37 22.9736 86.58 23.2536 87.7 27.3236C87.7 27.3236 88.68 31.2536 86.44 33.6336C86.44 33.6336 85.18 35.0336 82.51 35.0336C82.51 35.0336 80.41 35.0336 79.28 33.9136L77.6 32.0936C77.6 32.0936 76.2 30.9736 75.5 31.8136C75.5 31.8136 73.82 33.6336 73.12 36.1636C73.12 36.1636 71.86 41.0736 71.86 46.4036V58.0436C71.86 58.0436 71.86 60.5636 72.14 61.6936C72.14 61.6936 72.7 62.9536 73.54 63.6536C73.54 63.6536 74.52 64.3536 76.49 64.3536V67.5836H55.72V64.3536C55.72 64.3536 57.96 64.2136 58.95 62.8136C58.95 62.8136 59.79 61.4136 59.79 55.5236V33.0836C59.79 33.0836 59.79 29.2936 59.51 28.0336C59.51 28.0336 58.95 26.2136 55.86 26.2136V23.4036H72.13V31.1236C72.13 31.1236 73.81 27.6136 77.32 24.6736C77.18 24.6536 79.28 22.8336 82.37 22.9736ZM93.17 8.38358C93.17 8.38358 93.17 5.43359 95.13 3.61359C95.13 3.61359 96.95 1.51358 99.76 1.51358C99.76 1.51358 102.57 1.51359 104.39 3.61359C104.39 3.61359 106.35 5.57358 106.35 8.38358C106.35 8.38358 106.35 11.3336 104.39 13.1536C104.39 13.1536 102.43 15.1136 99.76 15.1136C99.76 15.1136 96.95 15.1136 95.13 13.1536C94.99 13.1536 93.17 11.1836 93.17 8.38358ZM488.04 22.1236C480.18 22.1236 475.56 29.1336 475.56 29.1336C471.07 36.1436 471.07 45.5436 471.07 45.5436C471.07 54.8036 475.42 61.6736 475.42 61.6736C479.77 68.6836 488.18 68.6836 488.18 68.6836C496.6 68.6836 501.37 61.1136 501.37 61.1136C505.3 54.9436 505.3 45.5436 505.3 45.5436C505.3 39.0936 503.2 33.6236 503.2 33.6236C501.1 28.2936 497.03 25.2036 497.03 25.2036C492.53 22.1236 488.04 22.1236 488.04 22.1236ZM488.18 25.3536C489.86 25.3536 490.85 26.3336 490.85 26.3336C492.25 27.7336 493.09 30.6836 493.09 30.6836C493.79 33.3536 493.79 41.6236 493.79 41.6236C493.79 55.3736 492.95 59.7236 492.95 59.7236C492.39 62.6736 490.85 64.2136 490.85 64.2136C489.73 65.3336 487.9 65.3336 487.9 65.3336C486.22 65.3336 484.67 63.6536 484.67 63.6536C483.41 61.9736 482.85 58.4636 482.85 58.4636C482.29 53.8336 482.29 49.0636 482.29 49.0636C482.29 39.2436 482.71 34.1936 482.71 34.1936C483.13 28.8636 484.67 27.0436 484.67 27.0436C486.22 25.3536 488.18 25.3536 488.18 25.3536ZM467.28 23.8136V27.6036H458.44V54.8136C458.44 54.8136 458.3 60.4236 459 61.6836C459 61.6836 459.7 62.8036 461.24 62.8036C461.24 62.8036 462.78 62.8036 463.62 61.5436C463.62 61.5436 465.16 59.1636 465.02 52.5636H468.67C468.67 52.5636 469.09 62.2436 464.46 66.0336C464.46 66.0336 461.65 68.4136 456.04 68.1336C456.04 68.1336 452.25 67.9936 450.15 65.6136C450.15 65.6136 448.33 63.7936 447.48 60.1436C447.48 60.1436 447.2 58.3236 447.2 51.3036V27.4536H442.43V24.5036L445.1 23.1036C445.1 23.1036 448.33 21.0036 450.85 17.3536C450.85 17.3536 453.66 13.4236 454.92 4.16357H458.57V23.6636H467.27M398.83 26.1936V23.1036H413.14V53.1236C413.14 53.1236 413.14 58.3136 413.42 59.4336C413.42 59.4336 413.7 60.8336 414.54 61.5336C414.54 61.5336 415.38 62.2336 416.36 62.2336C416.36 62.2336 418.88 62.2336 420.85 60.5536C420.85 60.5536 422.67 59.0136 424.22 56.2036V34.3336C424.22 34.3336 424.22 29.1436 423.38 27.8836C423.38 27.8836 422.68 26.6236 420.29 26.2036V23.1136H434.88V56.3536C434.88 56.3536 434.88 61.6836 435.58 62.8036C435.58 62.8036 436.28 64.0636 438.67 64.3436V67.5736H424.08V61.5436C424.08 61.5436 421.98 64.7736 418.19 67.0136C418.19 67.0136 415.1 68.9736 411.46 68.9736C411.46 68.9736 408.51 68.9736 406.13 66.5936C406.13 66.5936 403.89 64.3536 403.04 61.1236C403.04 61.1236 402.34 58.1736 402.34 50.1836V34.4736C402.34 34.4736 402.34 29.2836 401.5 28.0236C401.91 27.7436 401.21 26.4736 398.83 26.1936ZM374.42 0.663574L356.18 52.8436C354.64 57.4736 351.83 61.4036 351.83 61.4036C350.01 63.7836 347.34 64.3536 347.34 64.3536V67.5836H364.45V64.3536C360.52 63.9336 359.4 63.2336 359.4 63.2336C357.72 61.8336 357.72 60.0036 357.72 60.0036C357.72 58.3236 358.7 55.3736 358.7 55.3736L360.94 48.9236H378.75L381.56 57.0636C383.1 61.8336 382.12 62.8136 382.12 62.8136C381 63.9336 377.91 63.9336 377.91 63.9336H376.79V67.5836H401.48V64.3536C399.24 64.2136 397.83 62.6736 397.83 62.6736C395.16 59.4436 393.48 54.3936 393.48 54.3936L375.1 0.813583H374.4V0.663574H374.42ZM369.79 22.9736L377.36 45.1336H362.07L369.79 22.9736ZM317.05 22.8336C309.76 22.8336 304.99 29.2836 304.99 29.2836C300.22 35.7336 300.22 46.5336 300.22 46.5336C300.22 54.6736 303.31 60.2836 303.31 60.2836C307.94 68.8436 316.5 68.8436 316.5 68.8436C324.5 68.8436 328.84 64.9136 328.84 64.9136C333.19 60.9836 334.87 52.8536 334.87 52.8536H330.66C329.54 57.7636 327.85 59.7236 327.85 59.7236C325.04 62.9536 320.42 62.9536 320.42 62.9536C316.49 62.9536 314.11 59.1636 314.11 59.1636C312.99 57.2036 312.71 51.8736 312.71 51.8736V46.9636H333.47C334.17 34.9036 328.98 28.4436 328.98 28.4436C324.48 22.8336 317.05 22.8336 317.05 22.8336ZM317.89 26.0536C322.66 26.0536 322.66 34.6136 322.66 34.6136V42.8936H312.56V34.8936C312.56 26.0536 317.89 26.0536 317.89 26.0536ZM259.68 30.1236C259.68 30.1236 260.38 33.2136 260.38 40.5036V56.3536C260.38 56.3536 260.38 61.5436 261.22 62.8036C261.22 62.8036 261.92 63.9236 264.45 64.3436V67.4336H245.51V64.3436C245.51 64.3436 247.61 63.9236 248.6 62.2436C248.6 62.2436 249.3 61.1236 249.3 56.3536V38.1136C249.3 38.1136 249.3 34.0436 248.88 32.7836C248.88 32.7836 248.6 31.5236 247.76 30.5436C247.76 30.5436 246.92 29.7036 245.8 29.7036C245.8 29.7036 241.45 29.7036 238.37 35.3136V56.2136C238.37 56.2136 238.37 61.1236 239.21 62.5236C239.21 62.5236 240.05 63.7836 242.16 64.2036V67.2936H223.21V64.3436C223.21 64.3436 225.59 64.0636 226.58 62.5236C226.58 62.5236 227.28 61.4036 227.28 56.3536V34.1936C227.28 34.1936 227.28 29.1436 226.44 27.8836C226.44 27.8836 225.74 26.6236 223.21 26.2036V23.1136H238.36V28.7236C238.36 28.7236 238.64 28.0236 243.55 24.9336C243.55 24.9336 247.62 22.6936 250.42 22.6936C250.42 22.6936 254.49 22.6936 256.87 24.9336C256.73 24.9336 258.98 27.1736 259.68 30.1236ZM284.65 27.1736C284.65 27.1736 281.98 27.8736 280.72 29.9836C280.72 29.9836 279.04 33.0736 278.76 40.0836C278.76 40.0836 278.62 45.8336 279.04 51.0236C279.04 51.0236 279.6 58.4536 282.27 61.1236C282.27 61.1236 285.22 63.7936 288.44 62.5236C288.44 62.5236 291.11 61.5436 292.23 58.8736C292.23 58.8736 293.77 55.5036 293.49 50.5936H297.14C297.14 50.5936 297.14 61.8136 290.83 66.3036C290.83 66.3036 287.46 68.6836 282.27 68.6836C282.27 68.6836 275.26 68.6836 270.91 62.2336C270.91 62.2336 266.56 55.5036 266.56 46.5236C266.56 46.5236 266.56 37.9636 270.63 30.9536C270.63 30.9536 275.4 22.8136 283.54 22.8136C283.54 22.8136 290.27 22.8136 293.5 26.0436C293.5 26.0436 296.45 29.2736 296.45 33.3336C296.45 33.3336 296.45 35.0136 295.33 36.5636C295.33 36.5636 293.93 38.5236 291.54 38.9436C291.54 38.9436 288.03 39.6436 286.21 37.6836C286.21 37.6836 283.4 34.5936 285.09 31.0936C285.09 31.0936 285.51 30.1136 287.61 28.5736C287.61 28.5736 289.01 27.4536 288.03 27.0336L284.65 27.1736ZM7.45996 1.93358V5.44359C10.97 5.44359 12.37 6.28358 12.37 6.28358C13.49 6.98358 14.19 8.52357 14.19 8.52357C14.61 9.78357 14.61 15.2536 14.61 15.2536V53.9736C14.61 59.4436 14.19 60.7036 14.19 60.7036C13.63 62.1036 12.37 62.9436 12.37 62.9436C10.97 63.7836 7.45996 63.7836 7.45996 63.7836V67.2936H33.13C43.93 67.2936 49.68 61.4036 49.68 61.4036C54.31 56.7736 54.31 49.2036 54.31 49.2036C54.31 42.1936 50.1 37.8436 50.1 37.8436C47.01 34.6136 39.86 32.5136 39.86 32.5136C46.59 30.4136 49.26 26.6236 49.26 26.6236C51.93 22.9736 51.93 18.0636 51.93 18.0636C51.93 13.5736 49.83 9.50359 49.83 9.50359C47.73 5.57359 44.08 3.47359 44.08 3.47359C40.43 1.37359 31.6 1.37358 31.6 1.37358H7.45996V1.93358ZM26.96 5.57358C31.73 5.57358 34.11 6.97359 34.11 6.97359C36.49 8.37359 37.9 11.1836 37.9 11.1836C39.16 14.1336 39.16 18.3336 39.16 18.3336C39.16 22.6836 37.76 25.6236 37.76 25.6236C36.5 28.4336 33.97 29.9736 33.97 29.9736C31.45 31.5136 26.82 31.5136 26.82 31.5136L26.96 5.57358ZM26.82 35.1736C31.87 35.1736 34.68 36.5736 34.68 36.5736C37.63 37.9736 39.17 41.6236 39.17 41.6236C40.85 45.1336 40.85 49.9036 40.85 49.9036C40.85 53.9736 39.45 57.1936 39.45 57.1936C38.19 60.4236 35.66 62.1036 35.66 62.1036C32.99 63.7836 30.19 63.7836 30.19 63.7836C28.93 63.7836 27.95 62.5236 27.95 62.5236C26.83 61.2636 26.83 58.5936 26.83 58.5936L26.82 35.1736Z" fill="#990000"/>
<path d="M164.71 103.623V119.333C164.71 125.223 162.04 127.333 162.04 127.333L165.27 130.143C168.5 127.053 168.5 119.203 168.5 119.203V118.223H172.43V126.503L170.89 126.783L173.13 130.713L179.16 129.033C181.83 128.053 183.93 126.793 183.93 126.793L182.95 124.833L182.39 123.013C180.01 124.413 176.22 125.533 176.22 125.533H176.08V118.103H182.25L183.79 121.473C186.31 125.543 190.1 127.783 190.1 127.783C193.75 130.023 199.78 130.303 199.78 130.303L200.34 128.063L201.74 125.393L194.17 125.113L193.05 124.833L193.89 124.413C196.56 122.453 196.84 121.323 196.84 121.323L194.17 118.233H200.62V114.583H168.22V107.433H200.62V103.643H164.71V103.623ZM187.44 118.213H194.03C194.03 118.213 192.77 119.893 191.36 120.733L188.98 121.853L187.86 120.173L187.44 118.213ZM167.66 88.1934V102.503H197.96V88.1934H167.66ZM171.58 91.8434H194.16V93.9434H171.58V91.8434ZM171.58 96.7534H194.16V98.8534H171.58V96.7534ZM172.71 109.663H196.28V112.473H172.71V109.663Z" fill="#999999"/>
<path d="M25.1397 87.4937L28.6497 90.3036L27.3897 92.2636L24.4397 95.6336V110.224H20.2297V99.5636C20.2297 99.5636 16.4397 102.934 15.4597 102.934L13.4997 98.8636C13.4997 98.8636 16.8697 96.7636 19.9497 93.8136L25.1397 87.4937ZM49.1297 93.5237C49.1297 93.5237 42.8197 98.4336 38.4697 100.674L37.4897 101.094V105.444H45.2097C45.2097 105.444 47.3097 105.444 47.7297 100.674L51.9397 102.774C51.9397 102.774 49.9797 109.504 47.5897 109.504H38.0497C38.0497 109.504 33.2797 109.504 33.2797 104.594V102.774L27.9497 104.594L25.5697 100.104C25.5697 100.104 30.0597 99.1236 33.2897 98.0036V87.9037H37.4997V96.1837L37.9197 95.9037C37.9197 95.9037 42.9697 92.8136 46.1997 89.7336L49.1297 93.5237ZM52.9097 118.214H35.0997V130.274H30.8897V118.214H12.9297V114.004H30.8897V109.654H35.0997V114.004H52.9097V118.214Z" fill="#999999"/>
<path d="M510.91 77.6738H1.70957C0.86957 77.6738 0.30957 78.3738 0.30957 79.0738C0.30957 79.9138 1.00957 80.4738 1.70957 80.4738H510.91C511.75 80.4738 512.31 79.7738 512.31 79.0738C512.31 78.3738 511.61 77.6738 510.91 77.6738Z" fill="#CCCCCC"/>
</svg>
