<svg width="2083" height="2501" viewBox="0 0 2083 2501" fill="none" xmlns="http://www.w3.org/2000/svg">
<g clip-path="url(#clip0_6_179)">
<path fill-rule="evenodd" clip-rule="evenodd" d="M548.684 1161.2C542.365 1172.02 536.036 1178.33 527.907 1162.99C486.791 1083.16 437.536 1002.4 437.536 917.145V759.704C437.536 740.757 448.381 756.096 454.257 766.023L602.444 1030.37C606.964 1039.39 606.964 1051.57 603.351 1060.6C588.904 1096.68 573.992 1119.68 548.684 1161.2ZM450.644 568.89H626.85C634.989 568.89 641.313 575.198 641.313 584.223V897.745C641.313 917.145 634.989 926.17 622.335 903.157L449.294 589.187C441.155 575.204 442.067 568.89 450.644 568.89Z" fill="#ED1C24"/>
<path fill-rule="evenodd" clip-rule="evenodd" d="M843.276 1060.59C836.957 1071.42 830.628 1077.72 822.494 1061.49C781.383 982.555 731.69 902.249 731.69 816.991V658.205C731.69 640.609 742.525 655.493 748.844 665.42L897.041 929.767C901.556 937.884 901.556 951.424 897.943 960.449C883.491 995.188 868.136 1019.55 843.276 1060.59ZM745.236 468.288H920.994C929.122 468.288 935.452 474.607 935.452 483.621V797.153C935.452 816.991 929.122 825.119 916.479 801.658L743.432 489.038C735.293 473.699 736.2 468.288 745.236 468.288Z" fill="#D1D3D4"/>
<path fill-rule="evenodd" clip-rule="evenodd" d="M1134.71 960.449C1128.39 971.278 1121.16 976.679 1113.03 961.346C1071.91 881.504 1023.56 801.663 1023.56 716.853V558.061C1023.56 540.017 1033.51 555.35 1039.83 565.282L1187.57 828.727C1192.09 837.752 1192.09 849.925 1188.48 859.842C1174.48 895.034 1159.11 918.954 1134.71 960.444V960.449ZM1037.12 367.237H1211.98C1220.11 367.237 1226.42 374.452 1226.42 383.477V696.999C1226.42 716.853 1220.11 724.517 1207.46 701.514L1034.41 388.457C1026.28 373.556 1028.09 367.237 1037.12 367.237Z" fill="#485E88"/>
<path fill-rule="evenodd" clip-rule="evenodd" d="M1018.14 345.59C1010 345.59 1003.67 351.904 1003.67 359.13V729.037C1002.78 807.971 1062.87 905.863 1102.62 985.256C1106.24 991.575 1114.82 1000.59 1122.05 1000.59C1130.18 1000.59 1132.89 1000.59 1144.65 983.441C1200.22 909.47 1246.76 791.726 1246.76 729.037V359.13C1246.76 351.904 1240.89 345.59 1232.76 345.59H1018.14ZM726.273 447.089C719.031 447.089 713.16 452.506 713.16 460.17L712.258 829.629C712.258 908.574 772.353 1006.02 811.665 1085.85C815.284 1092.17 824.314 1101.18 831.54 1101.18C838.777 1101.18 842.385 1101.18 853.678 1084.95C909.7 1009.62 956.239 892.317 956.239 829.629V460.17C956.239 452.506 949.92 447.094 941.786 447.094L726.273 447.089ZM432.13 547.233C424.904 547.233 418.574 552.65 418.574 560.772L417.661 930.664C417.661 1009.62 477.756 1106.6 517.063 1185.99C520.681 1192.31 529.717 1201.32 536.949 1201.32C544.18 1201.32 547.793 1201.32 559.54 1185.09C615.114 1110.22 661.647 992.471 661.647 930.664V560.772C661.647 552.65 655.318 547.233 647.649 547.233H432.13ZM996.453 883.303C975.223 1001.49 888.929 1116.08 829.726 1204.05C790.872 1137.73 737.097 1059.68 703.223 978.483C683.337 1098.48 595.239 1214.87 535.139 1304.64C474.143 1199.54 374.736 1066 374.736 929.767V501.671H668.879V401.079H959.852V300.935H1291.94V729.037C1291.94 866.166 1188.48 1002.4 1120.24 1103.89C1083.67 1039.38 1030.8 963.134 996.453 883.303ZM841.467 65.9156C1218.29 65.9156 1525.98 373.561 1525.98 749.788C1525.98 1126.01 1218.29 1433.67 841.467 1433.67C464.195 1433.67 156.501 1126.01 156.501 749.788C156.512 373.556 464.189 65.9156 841.467 65.9156ZM841.467 0.5C1253.98 0.5 1591.5 337.478 1591.5 749.777C1591.5 1162.98 1253.98 1499.05 841.467 1499.05C427.604 1499.05 90.9893 1162.98 90.9893 749.777C90.9893 337.483 427.604 0.5 841.467 0.5Z" fill="#0095DA"/>
<path fill-rule="evenodd" clip-rule="evenodd" d="M1213.33 1843.26H1241.81C1232.31 1881.58 1182.62 1893.78 1120.71 1893.78C1025.82 1893.78 930.04 1887.01 928.231 1783.26C928.231 1740.86 958.961 1684.01 1065.58 1684.93H1241.81V1735.9H1220.12C1220.12 1705.22 1169.52 1695.74 1120.72 1695.74C1046.16 1695.74 997.82 1726.42 996.459 1784.63C994.201 1880.24 1075.08 1883.4 1120.72 1884.77C1174.02 1886.11 1197.52 1873.94 1213.33 1843.26ZM775.507 1695.74L776.868 1684.93H911.515V1695.74C892.553 1695.74 868.606 1697.1 868.606 1719.67V1862.22C868.606 1887.02 905.644 1884.78 911.515 1883.41V1893.79H775.518V1884.78C788.62 1884.78 816.634 1883.41 816.634 1859.06V1719.67C816.623 1695.74 795.393 1695.74 775.507 1695.74ZM1460.02 1684.92H1556.26V1695.73C1527.79 1695.73 1518.76 1698.44 1491.65 1711.53L1418.9 1768.8L1527.79 1869.86C1543.61 1880.22 1561.23 1884.75 1582.45 1884.75V1893.76H1502.93L1386.81 1792.72C1385 1790.01 1371.91 1804.45 1358.79 1815.26V1862.19C1358.79 1887 1399.01 1886.1 1403.98 1884.76V1893.77H1265.27V1884.76C1278.81 1884.76 1306.84 1883.39 1306.84 1859.03V1719.65C1306.84 1695.72 1285.61 1695.72 1265.27 1695.72L1266.62 1684.91H1401.29V1695.72C1382.77 1695.72 1358.82 1697.08 1358.82 1719.65V1798.13L1470.43 1710.16C1480.36 1702.05 1467.7 1696.2 1460.03 1696.65V1684.92H1460.02ZM666.168 1851.38C639.504 1895.13 594.327 1893.78 547.778 1893.78C515.692 1893.78 459.664 1884.77 459.664 1841V1727.78C459.664 1730.02 465.102 1695.73 430.759 1695.73V1684.92H512.986V1841.9C512.986 1900.55 666.157 1899.18 666.157 1813.93V1729.12C666.157 1706.56 651.235 1695.73 630.005 1695.73V1684.92H754.255V1695.73C735.282 1695.73 718.108 1710.16 718.108 1721V1862.2C718.108 1872.56 733.916 1886.11 754.255 1886.11V1895.13H666.157V1851.38H666.168V1851.38ZM208.467 1795.43V1869.88C208.467 1875.29 215.699 1884.77 223.827 1884.77H337.244C363.897 1884.77 378.808 1863.56 378.808 1841C378.808 1819.34 370.669 1795.43 333.631 1795.43H208.467ZM223.827 1695.74C217.508 1695.74 208.467 1706.57 208.467 1711.54V1783.26H318.708C358.469 1783.26 378.798 1771.53 380.159 1738.14C381.066 1705.22 346.722 1695.74 326.842 1695.74H223.827ZM114.937 1893.78V1884.77C145.656 1884.77 158.753 1864.46 158.753 1839.2V1735.9C158.753 1711.54 148.362 1695.74 114.937 1695.74V1684.93H324.131C400.039 1684.93 427.604 1703.86 427.604 1735.9C427.604 1789.14 351.696 1784.63 351.696 1789.14C400.039 1789.14 430.769 1795.43 430.769 1844.61C430.769 1893.78 378.798 1893.78 329.099 1893.78H114.937Z" fill="#ED1C24"/>
<path d="M1665.4 1865.39C1665.4 1869.22 1664.65 1873.02 1663.18 1876.56C1661.71 1880.1 1659.55 1883.32 1656.84 1886.03C1654.12 1888.74 1650.9 1890.89 1647.35 1892.36C1643.8 1893.83 1640 1894.58 1636.16 1894.58C1632.32 1894.58 1628.51 1893.83 1624.96 1892.36C1621.42 1890.89 1618.19 1888.74 1615.48 1886.03C1612.76 1883.32 1610.61 1880.1 1609.14 1876.56C1607.67 1873.02 1606.91 1869.22 1606.91 1865.39C1606.91 1861.55 1607.67 1857.75 1609.14 1854.21C1610.61 1850.67 1612.76 1847.45 1615.48 1844.74C1618.19 1842.03 1621.42 1839.88 1624.96 1838.41C1628.51 1836.94 1632.32 1836.19 1636.16 1836.19C1640 1836.19 1643.8 1836.94 1647.35 1838.41C1650.9 1839.88 1654.12 1842.03 1656.84 1844.74C1659.55 1847.45 1661.71 1850.67 1663.18 1854.21C1664.65 1857.75 1665.4 1861.55 1665.4 1865.39Z" fill="black"/>
<path d="M1660.53 1865.39C1660.53 1868.58 1659.9 1871.75 1658.67 1874.7C1657.45 1877.65 1655.65 1880.34 1653.39 1882.6C1651.13 1884.86 1648.44 1886.65 1645.49 1887.87C1642.53 1889.09 1639.36 1889.72 1636.16 1889.72C1632.96 1889.72 1629.79 1889.09 1626.83 1887.87C1623.88 1886.65 1621.19 1884.86 1618.93 1882.6C1616.66 1880.34 1614.87 1877.65 1613.64 1874.7C1612.42 1871.75 1611.79 1868.58 1611.79 1865.39C1611.79 1862.19 1612.42 1859.02 1613.64 1856.07C1614.87 1853.12 1616.66 1850.43 1618.93 1848.17C1621.19 1845.91 1623.88 1844.12 1626.83 1842.9C1629.79 1841.68 1632.96 1841.05 1636.16 1841.05C1639.36 1841.05 1642.53 1841.68 1645.49 1842.9C1648.44 1844.12 1651.13 1845.91 1653.39 1848.17C1655.65 1850.43 1657.45 1853.12 1658.67 1856.07C1659.9 1859.02 1660.53 1862.19 1660.53 1865.39Z" fill="white"/>
<path d="M1623.4 1865.8V1850.11L1630.33 1850.13C1637.23 1850.16 1637.74 1850.17 1639.48 1850.39C1642.13 1850.72 1643.72 1851.4 1645.15 1852.84C1645.87 1853.57 1646.36 1854.27 1646.79 1855.19C1647.38 1856.44 1647.59 1857.35 1647.59 1858.66C1647.59 1860.89 1646.79 1862.87 1645.23 1864.53C1643.61 1866.24 1641.79 1867.1 1639.03 1867.43L1638.66 1867.48L1639.37 1867.83C1640.6 1868.44 1641.13 1868.88 1642.34 1870.28C1643.49 1871.61 1644.63 1873.24 1646.5 1876.24L1648.66 1879.71L1649.68 1881.33L1649.79 1881.5H1643.59L1643.17 1880.76C1642.78 1880.06 1642.39 1879.37 1642 1878.67C1639.81 1874.78 1639.47 1874.21 1638.55 1872.84C1637.1 1870.66 1635.89 1869.37 1634.76 1868.81C1633.79 1868.32 1632.85 1868.18 1630.33 1868.18H1628.45V1881.5H1623.4V1865.8Z" fill="black"/>
<path d="M1637.11 1863.74C1638.45 1863.56 1639.14 1863.37 1639.97 1862.98C1640.32 1862.81 1640.65 1862.57 1640.91 1862.27C1641.32 1861.89 1641.65 1861.43 1641.87 1860.91C1642.09 1860.4 1642.21 1859.85 1642.21 1859.28C1642.27 1858.44 1642.08 1857.6 1641.66 1856.87C1641.24 1856.14 1640.61 1855.56 1639.85 1855.19C1639.11 1854.83 1638.32 1854.6 1637.5 1854.53C1636.91 1854.45 1635.95 1854.42 1632.61 1854.41L1628.45 1854.38V1863.89L1632.43 1863.86C1635.54 1863.84 1636.56 1863.81 1637.11 1863.74Z" fill="white"/>
<path d="M1273.64 1075.53C1273.64 1083.27 1270.55 1090.7 1265.07 1096.17C1259.58 1101.65 1252.15 1104.72 1244.39 1104.72C1236.63 1104.72 1229.19 1101.65 1223.71 1096.17C1218.22 1090.7 1215.14 1083.27 1215.14 1075.53C1215.14 1067.78 1218.22 1060.36 1223.71 1054.88C1229.19 1049.4 1236.63 1046.33 1244.39 1046.33C1252.15 1046.33 1259.58 1049.4 1265.07 1054.88C1270.55 1060.36 1273.64 1067.78 1273.64 1075.53Z" fill="black"/>
<path d="M1268.76 1075.53C1268.76 1081.98 1266.19 1088.17 1261.62 1092.74C1257.05 1097.3 1250.85 1099.87 1244.39 1099.87C1237.93 1099.87 1231.73 1097.3 1227.16 1092.74C1222.59 1088.17 1220.02 1081.98 1220.02 1075.53C1220.02 1069.07 1222.59 1062.88 1227.16 1058.32C1231.73 1053.75 1237.93 1051.19 1244.39 1051.19C1250.85 1051.19 1257.05 1053.75 1261.62 1058.32C1266.19 1062.88 1268.76 1069.07 1268.76 1075.53Z" fill="white"/>
<path d="M1231.63 1075.94V1060.25L1238.56 1060.27C1245.46 1060.3 1245.97 1060.31 1247.71 1060.53C1250.37 1060.86 1251.95 1061.55 1253.38 1062.99C1254.1 1063.71 1254.59 1064.41 1255.03 1065.33C1255.62 1066.58 1255.83 1067.49 1255.83 1068.8C1255.83 1071.03 1255.03 1073.01 1253.47 1074.67C1251.85 1076.38 1250.02 1077.24 1247.26 1077.58L1246.9 1077.62L1247.6 1077.98C1248.83 1078.58 1249.36 1079.02 1250.57 1080.42C1251.73 1081.75 1252.86 1083.38 1254.74 1086.38L1256.89 1089.85L1257.92 1091.48L1258.02 1091.64H1251.82L1251.4 1090.9C1251.01 1090.2 1250.62 1089.51 1250.23 1088.81C1248.04 1084.92 1247.7 1084.35 1246.79 1082.98C1245.33 1080.8 1244.13 1079.52 1243 1078.95C1242.02 1078.46 1241.09 1078.33 1238.56 1078.32H1236.69V1091.64H1231.63V1075.95L1231.63 1075.94Z" fill="black"/>
<path d="M1245.34 1073.88C1246.68 1073.7 1247.38 1073.51 1248.2 1073.12C1248.56 1072.95 1248.88 1072.71 1249.14 1072.41C1249.55 1072.03 1249.88 1071.57 1250.1 1071.05C1250.33 1070.54 1250.44 1069.99 1250.44 1069.43C1250.5 1068.58 1250.31 1067.75 1249.89 1067.02C1249.47 1066.29 1248.84 1065.7 1248.08 1065.33C1247.35 1064.97 1246.55 1064.74 1245.73 1064.68C1245.15 1064.6 1244.19 1064.57 1240.84 1064.55L1236.68 1064.52V1074.03L1240.66 1074C1243.77 1073.98 1244.79 1073.95 1245.34 1073.88Z" fill="white"/>
</g>
<defs>
<clipPath id="clip0_6_179">
<rect width="2083" height="2500" fill="white" transform="translate(0 0.5)"/>
</clipPath>
</defs>
</svg>
