<svg width="513" height="513" viewBox="0 0 513 513" fill="none" xmlns="http://www.w3.org/2000/svg">
<g clip-path="url(#clip0_6_194)">
<path d="M256.239 97.957C114.979 97.957 0.0986328 168.797 0.0986328 256.187C0.0986328 343.017 114.979 413.997 256.239 413.997C398.339 413.997 512.099 343.017 512.099 256.187C512.099 168.797 398.339 97.957 256.239 97.957ZM256.239 128.397C388.379 128.397 495.269 185.207 495.269 256.327C495.269 326.747 388.379 383.837 256.239 383.837C124.939 383.837 18.0486 326.747 18.0486 256.327C18.1986 185.067 125.079 128.397 256.239 128.397ZM73.0386 197.277V314.967H103.339V265.307H154.539V286.207H109.789V314.967H167.159L184.409 303.047V263.627L176.549 256.197L184.409 249.187V215.517L168.839 196.997H73.0386V197.277ZM196.899 197.277V255.067L209.659 267.407L237.999 266.987V239.077L232.669 234.167V197.277H196.899ZM283.729 197.277V234.167L278.399 239.077H244.309V314.967H279.519V266.997L306.169 267.417L318.929 255.497V197.287L283.729 197.277ZM331.289 197.277V314.967H363.269V226.877H398.059L407.459 237.537V285.927H369.729V314.967H439.029V218.177L421.359 197.277H331.289ZM103.339 225.887H154.119V246.787H103.339V225.887Z" fill="#D9261C"/>
</g>
<defs>
<clipPath id="clip0_6_194">
<rect width="512" height="512" fill="white" transform="translate(0.0986328 0.0273438)"/>
</clipPath>
</defs>
</svg>
