<svg width="2500" height="507" viewBox="0 0 2500 507" fill="none" xmlns="http://www.w3.org/2000/svg">
<g clip-path="url(#clip0_3_204)">
<path d="M0 139.685C0 56.7262 51.6207 0.683594 149.191 0.683594H782.578V118.344H168.224C151.017 118.344 135.733 127.188 135.733 153.143V349.34C135.733 373.179 145.73 388.56 177.164 388.56H609.836C632.618 388.56 650.21 380.485 650.21 350.493V304.544H396.912V192.459H782.578V372.795C782.578 459.118 719.806 506.317 621.179 506.317H150.248C54.9852 506.317 0.096128 454.696 0.096128 368.373L0 139.685ZM1347.62 506.317L1564 122.862V506.317H1699.64V0.683594H1491.04L1284.75 363.855L1078.46 0.683594H869.958V506.317H1005.59V122.862L1221.98 506.317H1347.62ZM2500 506.317H1932.85C1837.39 506.317 1782.69 454.696 1782.69 368.373V139.685C1782.69 56.7262 1834.12 0.683594 1931.69 0.683594H2500.1V127.765H1950.82C1933.61 127.765 1918.23 136.512 1918.23 162.467V339.919C1918.23 363.855 1928.33 379.139 1959.76 379.139H2500.1L2500 506.317Z" fill="#CF4037"/>
</g>
<defs>
<clipPath id="clip0_3_204">
<rect width="2500" height="506" fill="white" transform="translate(0 0.5)"/>
</clipPath>
</defs>
</svg>
