<svg width="501" height="501" viewBox="0 0 501 501" fill="none" xmlns="http://www.w3.org/2000/svg">
<path d="M188.649 366.459C188.649 362.059 187.849 358.459 186.449 355.459C183.749 349.859 178.749 347.059 171.549 347.059C165.849 347.059 161.149 348.759 157.449 352.159C153.549 355.759 151.549 360.459 151.549 366.059C151.549 372.159 153.749 377.259 158.149 381.159C161.949 384.559 166.749 386.259 172.549 386.259C177.549 386.259 182.649 384.859 187.749 382.159L188.549 381.759L184.849 375.359L184.149 375.759C180.949 377.559 177.849 378.459 174.749 378.459C171.549 378.459 168.949 377.559 167.049 375.559C165.249 373.859 164.349 371.359 164.149 368.459H186.049L188.649 366.459ZM164.149 361.959C164.649 356.659 167.049 353.959 171.549 353.959C175.549 353.959 177.649 356.259 178.049 361.159C178.049 361.159 178.049 361.559 178.049 361.959H164.149ZM392.549 373.259V363.659C392.549 360.459 392.349 358.159 391.949 356.559C391.549 355.059 390.849 353.659 389.849 352.359C387.149 348.959 382.649 347.159 376.449 347.159C370.649 347.159 365.449 348.859 360.949 352.259L360.249 352.759L364.549 358.659L365.249 358.059C368.349 355.659 371.349 354.459 374.349 354.459C377.749 354.459 379.849 356.159 380.849 359.359C379.449 359.659 375.449 360.559 375.449 360.559C371.249 361.459 367.849 362.659 365.149 364.259C360.249 366.959 357.749 370.659 357.749 375.259C357.749 378.459 358.949 381.159 361.249 383.259C363.549 385.359 366.349 386.459 369.549 386.459C374.049 386.459 377.849 384.559 381.049 381.459C381.249 382.659 381.349 383.959 381.749 385.059L381.949 385.659H394.449L393.949 384.459C393.049 381.759 392.549 378.059 392.549 373.259ZM380.149 373.559C379.749 374.759 378.949 375.759 377.749 376.759C376.349 377.759 374.849 378.259 373.249 378.259C372.049 378.259 371.049 377.859 370.149 377.059C369.349 376.259 368.949 375.159 368.949 373.859C368.949 370.759 372.049 368.459 378.049 367.059C378.049 367.059 379.849 366.659 381.049 366.359C381.049 367.359 381.049 368.859 381.049 368.959C381.049 370.359 380.749 371.859 380.149 373.559ZM423.749 385.459H435.449V331.459H423.749V385.459ZM142.949 347.159C140.149 347.159 137.649 348.959 135.449 352.259V348.059H123.749V385.459H135.449V369.359C135.449 365.559 135.749 362.759 136.349 361.159C137.349 358.659 138.949 357.459 141.449 357.459C142.049 357.459 143.249 357.759 145.849 358.959L146.649 359.359L151.149 351.259L150.649 350.759C147.849 348.359 145.349 347.159 142.949 347.159ZM335.549 370.159C334.049 365.359 324.149 333.859 324.149 333.859H314.849C314.849 333.859 304.449 365.359 302.849 370.159C301.549 365.359 292.849 333.159 292.849 333.159L292.149 333.259L280.549 334.759L295.749 385.459H306.849C306.849 385.459 316.849 355.459 318.349 351.159C319.749 355.559 329.449 385.459 329.449 385.459H340.449L356.549 334.559L346.049 333.159C346.149 333.159 336.949 365.359 335.549 370.159ZM402.149 385.459H413.849V331.459H402.149V385.459ZM227.749 373.259V363.659C227.749 360.559 227.549 358.159 227.149 356.559C226.749 355.159 226.049 353.659 225.049 352.359C222.349 348.959 217.849 347.159 211.549 347.159C205.749 347.159 200.549 348.859 196.049 352.259L195.349 352.759L199.649 358.659L200.349 358.159C203.449 355.759 206.449 354.459 209.349 354.459C212.749 354.459 214.849 356.159 215.849 359.359C214.449 359.659 210.449 360.559 210.449 360.559C206.249 361.459 202.849 362.659 200.149 364.259C195.249 366.959 192.749 370.659 192.749 375.259C192.749 378.459 193.949 381.159 196.249 383.259C198.549 385.359 201.349 386.459 204.549 386.459C209.049 386.459 212.849 384.559 216.149 381.459C216.249 382.659 216.449 383.959 216.849 385.059L217.049 385.659H229.549L229.049 384.459C228.149 381.759 227.749 378.059 227.749 373.259ZM215.349 373.559C214.949 374.759 214.149 375.759 212.949 376.759C211.549 377.759 210.049 378.259 208.449 378.259C207.249 378.259 206.249 377.859 205.349 377.059C204.549 376.259 204.149 375.159 204.149 373.859C204.149 370.759 207.149 368.459 213.249 367.059C213.249 367.059 215.049 366.659 216.249 366.359C216.249 367.359 216.249 368.959 216.249 369.059C216.249 370.359 215.949 371.959 215.349 373.559ZM259.049 377.759C257.549 378.459 256.149 378.859 254.649 378.859C252.949 378.859 251.849 378.359 251.249 377.159C250.549 375.859 250.149 373.559 250.149 370.059V354.559H260.149V347.959H250.149V337.159L249.149 337.359L238.449 339.559V347.959H233.149V354.559H238.449V372.059C238.449 376.759 239.149 379.859 240.549 381.759C242.749 384.759 246.249 386.259 250.949 386.259C254.349 386.259 257.949 385.459 261.549 383.859L262.349 383.559L259.949 377.359L259.049 377.759ZM95.5492 364.859H102.449V376.359C100.349 376.959 98.3492 377.459 96.3492 377.459C91.1492 377.459 86.8492 375.759 83.5492 372.459C80.2492 369.059 78.6492 364.759 78.6492 359.359C78.6492 354.159 80.3492 349.859 83.8492 346.659C87.3492 343.459 91.9492 341.859 97.6492 341.859C101.349 341.859 104.949 342.759 108.449 344.459L109.149 344.759L113.449 337.359L112.649 336.959C107.649 334.259 102.249 332.959 96.5492 332.959C87.5492 332.959 80.0492 335.459 74.2492 340.459C68.3492 345.459 65.4492 351.959 65.4492 359.659C65.4492 367.359 68.3492 373.859 74.0492 378.859C79.7492 383.859 87.0492 386.359 95.8492 386.359C101.449 386.359 107.649 385.359 114.249 383.259L114.849 383.059V357.959H95.5492V364.859Z" fill="#DA1F26"/>
<path d="M251.249 294.059C243.749 294.059 236.249 293.659 228.749 292.959C212.749 291.259 197.149 287.959 182.149 282.159C170.149 277.559 158.949 271.459 148.849 263.359C139.449 255.859 131.649 246.959 126.049 236.059C122.249 228.659 119.849 220.859 118.949 212.559C117.249 196.559 120.849 181.859 129.249 168.259C135.849 157.559 144.549 149.059 154.649 141.959C166.049 133.959 178.549 128.259 191.749 124.159C199.849 121.659 208.049 119.859 216.349 118.559C229.849 116.459 243.449 115.759 257.049 116.259C266.549 116.559 275.949 117.459 285.349 119.159C301.149 121.859 316.349 126.459 330.749 133.759C342.349 139.659 352.849 147.159 361.749 156.959C370.249 166.459 376.449 177.259 379.349 189.859C380.849 196.459 381.449 203.159 380.949 209.859C379.949 223.159 375.349 235.159 367.749 245.859C360.349 256.259 351.049 264.459 340.449 271.259C327.749 279.359 313.949 284.759 299.549 288.459C291.449 290.559 283.249 291.959 274.949 292.959C267.049 293.659 259.149 293.959 251.249 294.059ZM250.949 286.159C250.949 286.259 250.949 286.359 250.949 286.359C256.849 285.959 262.849 285.759 268.749 285.259C276.349 284.659 283.749 283.359 291.149 281.559C304.149 278.359 316.549 273.659 327.949 266.559C337.549 260.659 346.049 253.359 352.749 244.159C362.449 230.959 367.149 216.259 365.749 199.659C365.249 193.759 363.949 188.059 361.849 182.559C357.449 170.859 350.149 161.259 340.849 153.159C330.849 144.459 319.449 138.259 307.249 133.659C293.049 128.359 278.449 125.559 263.449 124.459C254.049 123.759 244.649 123.759 235.249 124.359C227.149 124.959 219.149 126.059 211.249 127.759C198.649 130.459 186.549 134.759 175.249 141.059C164.649 146.959 155.149 154.459 147.549 164.259C139.649 174.359 134.749 185.759 133.449 198.659C132.649 206.259 133.249 213.659 135.249 220.959C138.249 232.359 144.149 242.059 152.049 250.559C160.149 259.259 169.749 265.859 180.349 271.059C196.249 278.959 213.249 283.159 230.749 285.059C237.549 285.859 244.249 286.159 250.949 286.159Z" fill="black"/>
<path d="M251.249 161.759C252.249 162.159 253.049 162.359 253.849 162.759C257.949 164.959 262.149 167.259 266.249 169.359C274.749 173.759 283.349 178.159 291.849 182.559C294.949 184.159 294.649 184.059 294.649 187.259C294.649 191.159 294.949 195.059 295.049 199.059C295.249 206.159 295.549 213.359 295.749 220.459C295.949 227.259 297.549 233.659 301.649 239.159C305.249 244.059 310.249 246.859 316.149 247.559C326.049 248.659 334.249 244.959 340.849 237.559C346.749 231.059 349.849 223.159 351.249 214.459C352.049 209.359 352.249 204.259 351.849 199.059C351.349 193.059 349.849 187.259 347.449 181.759C342.149 169.759 334.049 160.359 323.349 153.059C313.549 146.359 302.849 141.659 291.649 138.259C283.649 135.859 275.549 134.159 267.249 133.159C259.549 132.259 251.849 132.159 244.149 132.659C239.349 132.959 234.649 133.259 229.849 133.859C214.949 135.659 200.449 139.359 186.949 146.459C176.249 152.059 166.849 159.459 159.349 169.259C153.349 177.159 149.449 185.959 147.949 195.859C146.349 207.159 147.649 218.159 152.549 228.459C156.549 236.959 162.749 243.159 171.549 246.559C175.149 247.959 178.849 248.259 182.649 247.959C187.349 247.559 191.549 245.759 195.049 242.559C199.249 238.659 201.849 233.759 202.849 228.059C203.749 222.659 203.849 217.259 204.049 211.759C204.349 202.959 204.749 194.259 205.049 185.459C205.049 184.659 205.349 184.259 206.049 183.859C218.549 177.359 230.949 170.959 243.349 164.459C244.549 163.859 245.749 163.159 246.949 162.459C248.149 161.759 248.449 162.059 248.549 163.459C248.549 163.659 248.549 163.859 248.549 164.059C248.549 192.159 248.549 220.259 248.549 248.459C248.549 253.359 248.249 258.259 246.949 263.059C245.249 269.459 241.449 273.759 235.349 275.759C229.949 277.559 224.349 277.859 218.749 277.559C207.549 276.959 197.049 273.359 186.549 269.459C178.749 266.459 171.349 262.659 164.749 257.559C152.149 247.859 143.649 235.259 139.649 219.559C137.849 212.659 137.349 205.659 138.049 198.659C139.249 185.559 144.249 174.159 152.749 164.359C161.749 153.959 172.549 146.059 184.849 140.159C194.449 135.559 204.449 132.359 214.749 130.059C228.249 127.059 241.849 126.059 255.549 126.559C271.649 127.159 287.449 129.759 302.749 135.159C312.449 138.559 321.649 142.959 330.049 148.859C339.449 155.359 347.349 163.459 353.349 173.459C356.649 178.959 359.149 184.759 360.349 191.059C360.849 193.859 361.149 196.759 361.349 199.659C361.649 203.959 361.649 208.359 361.249 212.659C360.449 221.959 357.549 230.459 352.549 238.259C343.949 251.659 332.149 261.259 317.949 267.759C308.949 271.859 299.649 274.959 289.849 276.659C283.849 277.659 277.849 278.059 271.749 277.459C267.749 277.059 264.049 276.159 260.449 274.159C256.849 272.159 254.749 268.959 253.349 265.159C252.149 261.959 251.549 258.659 251.549 255.259C251.449 246.559 251.349 237.859 251.349 229.159C251.349 207.259 251.349 185.359 251.349 163.459C251.249 162.659 251.249 162.259 251.249 161.759Z" fill="black"/>
</svg>
