<svg width="2501" height="2501" viewBox="0 0 2501 2501" fill="none" xmlns="http://www.w3.org/2000/svg">
<g clip-path="url(#clip0_3_207)">
<path fill-rule="evenodd" clip-rule="evenodd" d="M0.443848 0.596191H2500.44V2500.6H0.443848V0.596191Z" fill="black"/>
<path fill-rule="evenodd" clip-rule="evenodd" d="M1081.21 806.278C1088.41 616.546 1151.38 433.145 1262.25 279.005H2052.44V317.033C1706.27 419.351 1357.96 596.414 1081.21 806.278ZM1900.67 1803.51C1476.23 1737.49 1142.68 1396.21 1088.17 967.998C1124.76 933.333 1163 900.455 1202.77 869.48C1456.83 671.885 1688.49 540.203 2052.43 405.084V1803.51H1900.67Z" fill="#CF4037"/>
<path fill-rule="evenodd" clip-rule="evenodd" d="M1632.35 1803.51C1318.98 1666.51 1085.75 1380.24 1022.24 1034.68C879.832 1189.96 811.08 1343.78 815.035 1459.58C822.519 1678.18 1033.49 1803.52 1333.83 1803.52L1632.35 1803.51ZM1005.07 866.185C1004.9 859.078 1004.9 851.776 1004.9 844.552C1004.9 636.257 1065.92 441.996 1170.91 279.018H486.9V1633.31H524.578C524.578 1598.52 524.137 1569.96 531.944 1527.06C575.043 1304.73 754.272 1072.2 1005.07 866.185Z" fill="#CF4037"/>
<path fill-rule="evenodd" clip-rule="evenodd" d="M726.971 1956.96V1903.23H567.858C507.678 1903.42 477.731 1939.98 478.146 1993.36C478.665 2046.84 513.359 2081.26 573.085 2080.75H643.381C677.361 2080.48 682.082 2110 682.082 2117.47C682.186 2125.28 680.033 2158.08 639.944 2158.08H486.459V2213.8H646.221C725.44 2213.8 744.83 2155.59 744.83 2116.19C744.83 2049.94 694.793 2024.54 651.526 2024.87H575.147C554.706 2024.87 542.074 2013.36 541.84 1990.96C541.672 1967.8 557.184 1957.18 576.768 1956.96H726.971ZM937.444 1903.23H865.864L746.023 2213.81H810.574L899.43 1974.48L985.069 2213.81H1052.89L937.444 1903.23ZM1265.79 1903.23H1009.05V1956.89H1106.19L1106.27 2213.81H1168.85V1956.89H1265.85L1265.79 1903.23ZM1282.4 2074.93C1282.4 2123.15 1281.49 2154.58 1315.12 2188.21C1348.69 2221.79 1398.21 2222.2 1406.77 2222.2C1415.38 2222.2 1464.81 2221.79 1498.44 2188.21C1532 2154.56 1531.5 2123.14 1531.5 2074.93V1955.62H1617.07C1648.08 1955.62 1664.88 1970.81 1664.88 1999.56C1664.88 2030.9 1642.58 2044.96 1613.91 2044.96H1573.73L1668.24 2213.82H1740.34L1661.2 2085.75C1694.58 2078.53 1727.61 2043.09 1727.61 1995.28C1727.61 1927.29 1675.26 1903.25 1637.23 1903.25H1467.88L1467.78 2108.14C1467.78 2128.04 1453.46 2164.89 1407.11 2164.78H1407.21C1361.28 2164.89 1346.41 2128.04 1346.41 2108.14L1346.33 1903.25H1282.36V2074.93H1282.4ZM1768.99 2213.81V1903.23H1866.23L1989.53 2141.61V1903.23H2052.35V2213.81H1962.83L1832.42 1964.1V2213.81H1768.99ZM2111.83 2163.24C2111.84 2155.92 2113.3 2148.67 2116.11 2141.91C2118.93 2135.15 2123.05 2129.01 2128.24 2123.84C2133.43 2118.68 2139.59 2114.59 2146.36 2111.8C2153.14 2109.02 2160.39 2107.6 2167.72 2107.63C2175.02 2107.61 2182.26 2109.04 2189.02 2111.83C2195.77 2114.62 2201.91 2118.72 2207.07 2123.89C2212.24 2129.05 2216.34 2135.19 2219.13 2141.94C2221.92 2148.69 2223.35 2155.93 2223.34 2163.24C2223.4 2170.57 2221.99 2177.85 2219.22 2184.64C2216.45 2191.43 2212.36 2197.6 2207.19 2202.8C2202.01 2208 2195.86 2212.13 2189.09 2214.94C2182.32 2217.76 2175.05 2219.2 2167.72 2219.19C2160.37 2219.21 2153.08 2217.78 2146.29 2214.98C2139.49 2212.17 2133.32 2208.05 2128.13 2202.85C2122.93 2197.65 2118.82 2191.47 2116.02 2184.67C2113.22 2177.87 2111.8 2170.59 2111.83 2163.24ZM2213.57 2163.24C2213.55 2151.09 2208.72 2139.43 2200.12 2130.84C2191.53 2122.25 2179.87 2117.41 2167.72 2117.4C2142.21 2117.4 2121.64 2138.09 2121.64 2163.24C2121.62 2169.3 2122.8 2175.31 2125.1 2180.91C2127.41 2186.52 2130.8 2191.61 2135.08 2195.9C2139.37 2200.19 2144.45 2203.6 2150.05 2205.92C2155.65 2208.24 2161.66 2209.43 2167.72 2209.43C2173.76 2209.42 2179.75 2208.21 2185.33 2205.89C2190.91 2203.56 2195.98 2200.15 2200.24 2195.86C2204.5 2191.57 2207.87 2186.48 2210.15 2180.88C2212.44 2175.28 2213.6 2169.29 2213.57 2163.24ZM2155.86 2167.01V2195.35H2145.64V2129.75H2166.87C2178.88 2129.75 2191.32 2133.02 2191.32 2147.86C2191.32 2155.43 2186.76 2161.33 2178 2163.15V2163.42C2187.04 2165.22 2188.05 2169.15 2189.08 2176.29C2190.04 2182.54 2190.73 2189.43 2192.96 2195.35H2179.91C2179.14 2191.57 2178.11 2187.47 2177.68 2183.59C2176.99 2177.91 2176.99 2172.76 2174.01 2169.69C2171.5 2167.03 2168.05 2167.29 2164.46 2167.03H2155.86V2167.01ZM2166.69 2156.72C2176.39 2156.44 2178.6 2152.41 2178.6 2147.35C2178.6 2142.46 2176.39 2139.98 2168.21 2139.98H2155.85V2156.72H2166.69Z" fill="white"/>
</g>
<defs>
<clipPath id="clip0_3_207">
<rect width="2500" height="2500" fill="white" transform="translate(0.443848 0.596191)"/>
</clipPath>
</defs>
</svg>
