<svg width="512" height="513" viewBox="0 0 512 513" fill="none" xmlns="http://www.w3.org/2000/svg">
<g clip-path="url(#clip0_2_2)">
<path d="M255.44 0.5C255.44 0.5 217.43 0.0799999 183.34 6.25C149.25 12.28 128.63 7.37 117.69 1.34C89.64 12.29 58.22 25.61 58.22 25.61C58.22 25.61 58.36 43.85 43.77 62.08C29.04 80.32 19.5 93.64 19.5 93.64C19.5 93.64 53.59 122.82 49.8 136.14C46.15 149.47 4.77 280.62 39.98 352.3C75.19 423.98 129.47 464.94 197.79 478.55C234.26 485.84 256.14 512.5 256.14 512.5C256.14 512.5 277.74 485.71 314.21 478.41C382.66 464.8 436.81 423.7 472.02 352.16C507.23 280.48 465.99 149.33 462.2 136C458.55 122.67 492.5 93.5 492.5 93.5C492.5 93.5 482.82 80.17 468.23 61.94C453.5 43.7 453.78 25.47 453.78 25.47C453.78 25.47 422.22 12.14 394.3 1.2C383.36 7.23 362.74 12.14 328.65 6.11C294.56 0.0799999 255.44 0.5 255.44 0.5Z" fill="white"/>
<path d="M40.12 87.47C52.74 71.62 65.23 57.45 68.74 35.99C78.42 31.92 98.2 23.79 117.13 16.21C131.44 22.38 153.46 25.61 185.16 19.86C218.26 13.97 255.3 14.39 255.3 14.39C295.56 13.83 360.36 30.8 394.73 16.07C413.67 23.5 433.45 31.78 443.12 35.85C446.77 57.31 459.39 71.48 472.02 87.47H40.12Z" fill="black"/>
<path d="M440.46 46.09L426.29 43.57V56.33L395.57 53.1V37.68C395.57 37.68 381.82 35.86 358.96 33.89C335.96 31.93 318.28 31.65 318.28 31.65V37.12C318.28 37.12 316.88 31.65 308.04 30.67C299.06 29.69 260.77 28.71 260.77 28.71V72.9L237.9 28L218.4 28.14L196.94 67.28V58.72C196.94 53.39 190.21 53.53 189.65 53.53C189.09 53.53 188.95 52.55 189.65 52.55C190.35 52.55 196.1 50.73 196.1 43.57C196.1 36.41 194.98 30.95 184.6 30.95C174.22 30.95 137.75 33.9 137.75 33.9V73.6L113.76 37.4L94.54 39.92L68.6 76.53H84.73L88.66 69.38H118.12L121.91 75.83L184.47 75.97C184.47 75.97 187.98 76.67 192.33 73.3C192.05 75.68 192.33 75.97 192.33 75.97L208.04 76.53L212.11 69.38H241.57L245.36 76.53L274.68 75.83V64.75H297.26C304.41 64.75 303.43 70.08 303.43 70.08V76.53H317.6V65.45C317.6 60.26 311.01 60.68 310.59 60.68C310.17 60.68 309.05 59.84 310.03 59.84C311.01 59.84 317.6 59.14 317.6 46.51V43.28H337.8V76.38H352.39V45.25C352.39 45.25 357.02 45.11 366.28 45.67C375.54 46.23 379.89 47.07 379.89 47.07V76.39H394.48V63.49C394.48 63.49 401.63 63.63 411.59 64.19C421.69 64.75 426.18 65.73 426.18 65.73V76.53H440.35L440.46 46.09ZM94.13 61.8L103.53 47.21L112.23 60.96L94.13 61.8ZM151.92 43.43C151.92 43.43 173.1 42.17 178.15 42.17C183.2 42.17 181.52 49.04 178.15 49.18C174.78 49.32 151.92 49.6 151.92 49.6V43.43ZM178.29 67.13H151.08L151.36 60.26C151.36 60.26 171.14 59.56 177.73 59.42C184.18 59.28 182.36 67.13 178.29 67.13ZM217.85 57.74L227.39 40.35L236.09 57.74H217.85ZM298.22 53.81C291.35 53.81 274.93 53.53 274.93 53.53V41.18C274.93 41.18 290.36 41.74 297.79 41.74C305.08 41.74 304.38 46.09 304.38 48.61C304.25 51 305.1 53.81 298.22 53.81Z" fill="white"/>
<path d="M465.71 106.41C456.59 116.79 448.04 129.98 451.26 141.34C454.63 153.68 458.41 167.57 461.78 182.44L410.72 205.73L410.44 205.45L341.85 125.35C341.71 125.07 340.59 124.65 340.17 124.65L233.84 134.89C231.46 135.17 231.03 137.56 233.28 138.54L299.77 168.42L266.67 183.01C264.57 183.99 264.85 186.24 267.09 186.66L332.74 196.34C333.02 196.34 334 196.06 334.28 195.92L357.28 176.28L369.2 201.67L291.35 221.73C290.51 222.01 289.81 222.99 289.95 223.97C289.95 223.97 294.02 245.71 296.54 254.83L272.83 228.04C269.46 224.25 258.52 240.8 256.28 243.33L233.42 244.17C232.3 244.17 231.46 245.15 231.6 246.27L236.23 279.8L219.11 256.5C218.55 255.66 217.29 255.52 216.44 256.08L150.65 302.79L137.6 276.7L167.34 272.21C167.62 272.21 168.46 271.51 168.6 271.37L203.95 215.54C205.21 213.58 203.53 211.75 201.43 212.87L169.03 230.12L190.63 159.14C191.33 156.9 189.23 155.49 187.54 157.18L111.51 229.42C111.23 229.7 110.95 230.82 110.95 231.1L126.8 334.34L126.94 334.76L58.77 365.76C55.82 360.57 53.02 355.24 50.21 349.63C22.44 293.24 44.6 199.54 60.73 141.47C63.96 129.97 55.26 116.78 46.14 106.26H465.69V106.41H465.71Z" fill="black"/>
<path d="M462.76 186.22C475.1 240.65 483.24 306.01 461.92 349.5C428.11 418.23 376.77 456.81 312.11 469.71C291.21 473.92 271.85 484.44 256.14 498.75C240.43 484.58 221.07 474.06 200.03 469.85C141.68 458.21 94.13 425.67 60.6 369L233.56 290.45L216.73 313.74L210 313.6C207.62 313.6 206.91 315.84 208.88 317.11L222.49 325.81C223.05 326.23 224.31 326.09 224.87 325.53L246.19 303.65L250.12 308.98L230.06 330.72C229.36 330.72 217.15 331.14 222.63 334.79L235.25 343.35C235.81 343.77 237.07 343.63 237.63 343.07L259.37 321.33L263.3 326.52L243.52 347.84H236.93C228.79 347.84 247.31 363.97 250.4 360.89L272.42 338.73L276.77 344.48L258.67 365.66L250.81 365.8C248.57 365.8 247.86 367.9 249.69 369.31L262.03 377.87C262.73 378.29 263.85 378.15 264.41 377.59L285.59 356.41C285.87 356.83 286.43 357.53 286.99 358.09C286.85 358.37 286.71 358.51 286.71 358.79L285.59 390.63C285.59 390.77 285.73 391.05 285.87 391.33C285.17 391.19 284.47 391.33 284.05 391.89L264.13 414.89C263.99 415.17 263.71 416.29 263.71 416.57L263.85 417.27C263.43 416.99 263.01 416.99 262.45 417.13L234.12 426.25C233.84 426.39 233 427.09 233 427.23L232.58 428.21C232.58 427.37 232.3 426.81 231.74 426.53L196.67 404.09C195.97 403.67 194.43 403.81 192.6 404.23L194.42 403.53C195.12 403.25 195.68 402.27 195.68 401.57L189.23 340.41C188.95 337.89 186.28 337.6 185.58 339.99L162.01 412.51C161.45 414.33 162.71 415.6 164.53 414.89L186.83 406.47C183.6 408.15 181.36 410.26 183.18 411.94C197.21 424 236.62 463.42 232.98 450.51L232.7 449.67C233.68 451.07 234.66 452.05 235.65 451.91L279.13 444.34C281.09 444.06 281.51 442.38 280.11 441.11H281.65C282.35 441.67 283.61 441.67 284.32 440.97L321.49 400.01C322.47 398.89 322.33 397.77 321.49 397.2C322.33 397.06 323.03 396.22 323.03 395.38L324.15 347.55C324.15 345.87 323.03 345.03 321.63 345.73L323.17 344.75C324.99 343.49 322.89 339 322.75 338.3L352.91 337.04C356.84 336.9 355.72 321.75 355.86 320.49C356 318.25 354.04 317.4 352.63 319.09L348.28 323.86L319.24 324.98L317.14 317.55L348.84 315.31C352.77 315.03 351.08 300.16 351.22 298.76C351.5 292.59 344.07 301.14 343.08 302.13L313.06 302.55L311.24 295.96L343.5 294C347.43 293.72 346.73 277.45 346.73 277.45C347.29 271.28 339.44 279.55 338.45 280.4L307.17 280.96L305.35 274.51L338.59 272.69C339.29 272.69 340.27 271.85 340.41 271.15L343.5 255.16C343.92 252.78 341.68 251.79 340.13 253.62L336.2 258.25C320.63 258.39 311.37 258.11 304.92 258.25L462.76 186.22Z" fill="black"/>
<path d="M477.35 94.35C474.68 96.87 471.6 99.96 468.37 103.33H333.99V90.42H474.26C475.39 91.68 476.37 93.08 477.35 94.35Z" fill="black"/>
<path d="M177.87 103.32H43.35C40.26 99.95 37.18 97.01 34.65 94.48C35.63 93.08 36.75 91.67 37.88 90.41H178.01L177.87 103.32Z" fill="black"/>
<path d="M334.13 90.42H177.87V103.33H334.13V90.42Z" fill="white"/>
<path d="M288.82 358.76L306.63 358.34L322.62 347.4L321.5 395.23L298.36 397.19L287.7 390.74L288.82 358.76ZM285.6 392.99L296.26 399.86L320.25 398.6L283.08 439.56L268.35 427.36L265.54 416L285.6 392.99ZM263.15 418.8L265.96 429.88L279.15 442.22L235.67 449.79L230.62 437.59L234.97 427.77L263.15 418.8ZM230.89 428.05L227.66 437.73L231.45 450.92L184.74 410.38L195.96 405.61L230.89 428.05ZM187.55 340.52L194 401.68L163.98 413.04L187.55 340.52ZM311.83 304.05L344.09 303.63L349.56 298.3L349 313.03L314.91 315.41L318 326.63L349.28 325.51L354.19 320.18L353.07 334.91L320.53 336.17L322.35 342.76L305.24 354.12L288.41 356.5L285.89 353.13L263.17 375.85L250.83 367.29L259.53 367.15L279.17 344.15L272.58 335.45L249.01 359.16L236.81 349.34H244.24L265.56 326.2L259.39 317.92L236.39 341.63L223.77 333.07L231.06 332.37L252.66 308.94L246.35 300.66L223.49 324.23L209.88 315.53L217.59 315.67L237.23 288.6L299.37 259.98L337.38 259.7L341.87 254.37L338.78 270.5L303.29 272.46L306.1 282.56L339.63 282L345.24 276.95L343.7 291.82L309.05 293.92L311.83 304.05ZM217.85 257.76L237.49 284.55L128.64 334.21L112.79 230.97L188.68 158.73L165.82 234.06L202.29 214.7L166.94 270.53L134.68 275.44L149.83 305.74L217.85 257.76ZM271.57 229.43L296.68 257.62L239.03 283.99L233.7 246.26L257.41 245.42L271.57 229.43ZM409.04 206.56L298.37 256.92H298.23L291.92 223.68L372.02 203.06L358.13 173.32L333.3 194.64L267.65 184.96L304.68 168.55L234.26 136.99L340.59 126.75L409.04 206.56Z" fill="white"/>
</g>
<defs>
<clipPath id="clip0_2_2">
<rect width="512" height="512" fill="white" transform="translate(0 0.5)"/>
</clipPath>
</defs>
</svg>
