<svg width="801" height="801" viewBox="0 0 801 801" fill="none" xmlns="http://www.w3.org/2000/svg">
<path d="M795.19 403.226C795.201 454.833 785.046 505.936 765.304 553.618C745.563 601.299 716.622 644.624 680.135 681.12C643.647 717.615 600.328 746.565 552.651 766.317C504.974 786.068 453.873 796.234 402.266 796.234C350.66 796.234 299.559 786.068 251.881 766.317C204.204 746.565 160.885 717.615 124.397 681.12C87.9101 644.624 58.9693 601.299 39.228 553.618C19.4867 505.936 9.3316 454.833 9.34266 403.226C9.3316 351.62 19.4867 300.517 39.228 252.835C58.9693 205.154 87.9101 161.828 124.397 125.333C160.885 88.8378 204.204 59.8877 251.881 40.1362C299.559 20.3847 350.66 10.2186 402.266 10.2186C453.873 10.2186 504.974 20.3847 552.651 40.1362C600.328 59.8877 643.647 88.8378 680.135 125.333C716.622 161.828 745.563 205.154 765.304 252.835C785.046 300.517 795.201 351.62 795.19 403.226Z" fill="black"/>
<path d="M759.493 403.226C759.493 450.138 750.253 496.591 732.301 539.931C714.349 583.272 688.036 622.653 654.864 655.824C621.692 688.996 582.312 715.309 538.971 733.261C495.63 751.214 449.178 760.454 402.266 760.454C355.354 760.454 308.902 751.214 265.561 733.261C222.22 715.309 182.84 688.996 149.668 655.824C116.497 622.653 90.1835 583.272 72.2311 539.931C54.2788 496.591 45.0388 450.138 45.0388 403.226C45.0388 356.315 54.2788 309.862 72.2311 266.521C90.1835 223.181 116.497 183.8 149.668 150.629C182.84 117.457 222.22 91.1438 265.561 73.1915C308.902 55.2391 355.354 45.9991 402.266 45.9991C449.178 45.9991 495.63 55.2391 538.971 73.1915C582.312 91.1438 621.692 117.457 654.864 150.629C688.036 183.8 714.349 223.181 732.301 266.521C750.253 309.862 759.493 356.315 759.493 403.226Z" fill="black" stroke="white" stroke-width="8.48109" stroke-linecap="round" stroke-linejoin="round"/>
<path d="M229.686 362.648H275.833V459.7H229.686V362.648ZM287.078 362.648H331.8L347.022 383.981L360.976 362.648H406.566L369.201 409.652L410.09 459.7H363.27L347.022 434.845L328.604 459.7H283.308L324.771 409.122L287.078 362.648ZM503.55 447.513H468.297L462.479 459.7H417.511L458.189 362.648H506.974L556.597 459.7H509.45L503.55 447.513ZM495.766 422.693L485.333 395.273L474.41 422.693H495.766ZM170.315 443.679H128.033L122.215 459.7H69.5802L123.675 362.648H169.905L219.527 459.7H176.214L170.315 443.679ZM162.53 422.693L149.255 387.805L136.063 422.693H162.53ZM563.411 362.648H612.887L636.845 419.145L651.776 362.648H694.06L734.952 459.7H688.66L675.882 402.299L658.115 459.7H629.386L599.562 403.577V459.7H563.411V362.648ZM216.104 334.222C218.021 330.388 297.888 132.959 297.888 132.959H517.041L598.824 334.222H437.174L405.867 220.492L374.559 334.222H216.104ZM123.285 565.419C127.803 553.673 153.103 487.711 153.103 487.711H656.4L688.025 565.419H501.887L487.43 517.529H325.688L313.038 565.419H123.285Z" fill="white"/>
</svg>
