<svg width="512" height="513" viewBox="0 0 512 513" fill="none" xmlns="http://www.w3.org/2000/svg">
<g clip-path="url(#clip0_2_33)">
<path fill-rule="evenodd" clip-rule="evenodd" d="M491.36 155.69C513.01 205.57 519.01 269.94 502.77 324.06C489.6 370.58 464.15 414.02 424.95 447.81C387.36 480.58 344.06 500.33 295.93 508.81C205.97 521.54 123.61 490.96 63.93 425.28C2.49002 357.71 -17.85 251.51 16.97 165.35C37.74 105.96 91.72 48.17 150.52 23.89C202.3 0.0500183 270.62 -5.94998 327.08 11.46C391.01 28.57 454.35 79.48 484.33 141.07L491.36 155.69Z" fill="white"/>
<path fill-rule="evenodd" clip-rule="evenodd" d="M477.32 156.72C500.73 206.6 505.55 272.72 488.14 326.7C471.61 384.34 427.14 439.78 372.43 469.03C319.33 499.9 243.99 508.09 183.43 488.05C121.56 469.9 61.15 418.41 35.11 357.71C11.56 309.29 6.43997 245.07 21.8 191.38C37.74 130.82 85.43 69.9701 143.94 41.4401C201.58 9.99007 283.06 5.17007 344.79 30.9101C400.08 51.5401 453.77 101.42 477.32 156.72Z" fill="black"/>
<path fill-rule="evenodd" clip-rule="evenodd" d="M407.69 164.61C437.09 209.96 441.48 278.71 418.22 328.15C404.32 359.16 379.46 389.15 348.88 407.14C346.25 406.7 345.81 409.77 343.61 410.36C321.38 422.79 296.95 430.99 270.32 432.74C199.52 438.3 133.4 402.31 99.61 339.7C74.01 294.5 71.38 227.79 95.37 181.28C116.29 136.08 160.32 97.4601 207.57 85.7601C263.01 69.6701 323.72 83.1301 367.16 118.09C382.53 131.41 397.45 147.65 407.69 164.61Z" fill="white"/>
<path fill-rule="evenodd" clip-rule="evenodd" d="M255.41 421.19C345.96 421.19 419.25 347.9 419.25 257.35C419.25 166.8 345.96 93.52 255.41 93.52C164.86 93.52 91.5701 166.81 91.5701 257.36C91.5701 347.76 165.01 421.19 255.41 421.19Z" fill="white"/>
<path fill-rule="evenodd" clip-rule="evenodd" d="M270.62 25.06C276.76 29.16 277.2 36.62 277.06 43.35C276.18 50.23 275.3 59.15 267.26 61.05C241.51 59.59 217.67 62.81 195.29 70.56C194.7 73.19 196.75 75.83 196.9 78.75L182.27 84.16L181.25 83.14L165.45 41.45C184.76 32.67 206.12 27.41 228.2 24.63C240.49 23.17 253.07 22.87 265.5 23.46L270.62 25.06Z" fill="white"/>
<path fill-rule="evenodd" clip-rule="evenodd" d="M321.09 32.52C318.16 47.44 313.78 62.22 310.12 77.14L293.3 73.04C296.52 58.12 299.3 42.76 303.39 27.99C309.39 29.45 315.24 30.77 321.09 32.52Z" fill="white"/>
<path fill-rule="evenodd" clip-rule="evenodd" d="M258.33 37.06C259.5 38.67 260.38 41.01 259.5 43.2L257.74 45.1C234.04 44.81 211.51 49.2 190.3 55.63C188.54 53.29 188.11 49.92 187.08 47L188.1 45.98C209.6 39.25 232.86 34.72 256.85 35.74L258.33 37.06Z" fill="black"/>
<path fill-rule="evenodd" clip-rule="evenodd" d="M368.19 52.4201L401.54 117.81C402.13 119.13 403.44 118.4 404.17 117.81L425.97 97.3301C430.36 100.84 433.28 105.38 436.94 109.62L436.21 110.79L403.74 141.22C398.33 135.66 393.06 129.22 387.8 123.23L358.4 69.4001C358.11 69.1101 357.81 68.6701 357.38 68.8101C352.99 76.4201 349.77 84.4601 345.24 91.9201L330.9 85.0401L331.05 83.4301C337.49 69.9701 343.63 56.5101 349.92 43.0601C356.2 45.5401 362.05 48.9101 368.19 52.4201Z" fill="white"/>
<path fill-rule="evenodd" clip-rule="evenodd" d="M169.1 90.3C147.6 101.56 127.26 118.09 110.59 137.7C98.89 127.46 87.77 117.81 76.36 107.42L76.8 105.96C80.46 101.86 83.97 97.62 87.92 94.11L112.2 115.91L113.66 115.47C128.14 100.4 144.82 88.7 162.08 79.48C164.71 82.7 167.2 86.65 169.1 90.3Z" fill="white"/>
<path fill-rule="evenodd" clip-rule="evenodd" d="M157.25 143.4C162.37 149.54 169.1 152.47 177.29 151.74L340.1 151.59C345.51 150.57 350.92 149.4 354.58 144.28C363.8 151.3 371.69 160.22 378.42 169.29C377.4 171.05 375.06 172.07 374.03 174.12C371.54 178.07 370.52 182.75 370.37 187.58L370.66 323.04C368.32 342.2 359.4 360.2 342.28 371.75C319.17 389.01 287.57 386.38 264.17 402.47C261.39 404.66 258.61 407.59 256.71 410.37C236.96 388.14 205.36 391.65 181.23 378.63C154.61 367.51 141 340.01 141.44 312.22L141.29 184.81C140.12 179.25 137.93 172.96 132.51 170.04L132.66 168.87C139.68 159.36 147.43 151.32 156.65 143.42L157.25 143.4Z" fill="black"/>
<path fill-rule="evenodd" clip-rule="evenodd" d="M102.98 148.38C98.74 153.94 95.37 160.08 91.42 165.49L82.2 167.1C69.47 190.65 62.31 216.54 60.4 244.63L60.69 245.95C63.47 248.73 66.54 250.78 68.44 253.85C68.59 259.7 68.29 265.99 68.73 271.55L67.71 271.26L23.39 233.96C26.02 206.17 33.19 180.27 44.89 156.14L46.06 155.55L102.67 147.36H103.26L102.98 148.38Z" fill="white"/>
<path fill-rule="evenodd" clip-rule="evenodd" d="M466.35 156.28C478.2 179.98 485.66 205.87 487.85 233.52L450.55 267.02L442.5 273.75C442.79 267.31 442.5 259.56 443.23 253.12L450.84 246.24C449.82 217.57 442.06 191.38 429.78 167.25C426.42 166.23 422.76 165.93 419.25 165.06L408.13 147.21L466.35 156.28Z" fill="white"/>
<path fill-rule="evenodd" clip-rule="evenodd" d="M187.24 158.62L252.77 158.77L253.21 167.55V397.65C222.49 376.73 175.83 384.48 155.79 346.16C150.09 334.6 147.6 321.58 148.04 307.83L147.89 184.81C147.3 178.96 145.55 173.55 141.6 169.16C145.84 162.87 150.96 158.19 156.67 152.78C165.3 158.47 176.27 158.76 187.24 158.62Z" fill="white"/>
<path fill-rule="evenodd" clip-rule="evenodd" d="M355.17 153.79C360.14 158.18 364.82 163.44 369.07 168.86C363.95 175.44 363.22 184.07 363.37 193L363.81 321.14C362.35 341.77 349.18 361.81 329.87 370.88C309.54 381.56 285.11 382.88 264.77 393.41L258.92 397.65L258.48 395.16L258.33 159.06C259.35 158.47 261.11 158.47 262.72 158.77L339.37 158.33C345.08 158.18 350.05 155.84 355.17 153.79Z" fill="white"/>
<path fill-rule="evenodd" clip-rule="evenodd" d="M61.88 171.05C53.83 190.07 48.13 210.11 45.35 231.17H44.47L36.86 224.15C39.49 206.16 44.03 188.9 50.9 172.66C54.12 171.2 58.07 171.34 61.58 170.61L61.88 171.05Z" fill="black"/>
<path fill-rule="evenodd" clip-rule="evenodd" d="M460.2 172.07C467.95 188.6 472.49 206.59 474.68 225.32C472.19 227.51 469.41 230.73 466.34 232.2C463.12 210.99 458 190.66 449.52 171.49L449.96 170.32L460.2 172.07Z" fill="black"/>
<path fill-rule="evenodd" clip-rule="evenodd" d="M315.38 186.41C316.11 189.77 315.67 193.43 315.82 197.09L317.43 198.55L317.58 209.23C323.14 208.35 319.48 215.08 320.8 217.86C324.16 218.88 328.7 218.15 332.65 218.45C333.38 220.5 333.38 223.72 332.36 225.91L307.93 226.06C307.34 227.67 307.78 229.57 307.64 231.47L308.52 232.06L332.66 232.21C333.25 234.11 332.95 236.6 332.81 238.65C329.15 239.24 325.06 238.8 321.25 238.94C319.93 240.84 320.81 243.91 320.52 246.25C321.4 247.57 323.45 246.4 324.62 247.27C327.25 249.17 331.35 249.76 332.96 252.54C332.67 253.27 333.11 254.44 331.94 254.59C331.06 256.05 331.35 258.54 331.5 260.15C333.11 260.3 332.82 261.76 332.82 262.64V263.37C328.87 265.27 325.36 268.2 320.82 268.05C320.23 270.39 320.38 273.32 320.53 275.8C325.21 275.65 328.58 279.02 332.38 280.63C333.11 281.22 332.67 282.39 332.82 283.12C330.04 283.56 331.8 286.78 331.36 288.68C332.09 289.7 333.41 290.58 332.97 292.48C330.78 294.38 327.85 295.84 324.92 296.87C323.46 297.31 320.68 295.7 320.53 298.19C321.26 300.09 318.77 305.5 322.87 305.21L332.52 305.36C333.11 307.55 333.11 310.04 332.52 312.24L308.38 312.53C307.79 314.29 307.65 316.63 308.53 318.09L332.37 318.24C333.25 320 332.81 323.07 332.66 325.12C328.86 325.85 324.61 325.27 320.66 325.71C320.07 328.05 320.37 331.12 320.51 333.46C321.68 334.92 325.48 332.58 324.9 335.65C324.61 337.7 325.78 340.92 324.02 341.94L297.54 341.65C296.95 339.46 296.95 336.53 297.54 334.34C298.42 333.02 301.64 335.07 301.78 332.58C301.63 330.24 302.07 327.61 301.34 325.56C297.24 324.97 293.88 322.78 290.37 321.03C290.08 319.71 290.08 317.52 291.83 317.52C292.12 316.06 291.98 314.45 291.98 312.84C290.81 312.11 289.93 311.52 290.22 309.91C293.88 308.01 296.36 303.77 301.19 304.79L301.78 304.35V297.18C298.27 296.16 294.03 297.18 290.37 296.45C290.22 294.4 289.93 291.62 290.81 289.72L315.53 289.57C316.41 287.96 316.12 285.77 315.97 284.01L315.09 283.42H290.81C289.79 281.52 290.37 278.89 290.22 276.69L290.95 275.96L301.34 275.81C302.07 273.47 301.63 270.69 301.78 268.2C298.56 267.18 294.17 267.91 290.66 267.61C290.07 265.56 290.22 262.93 290.37 260.88L291.83 260.29L315.67 260.14C316.11 258.24 316.4 255.75 315.52 254.14L290.8 253.99C290.36 251.8 289.92 248.72 291.09 246.82C294.6 246.82 298.4 247.11 301.77 246.53L301.92 239.51C300.75 238.34 298.85 239.36 297.68 238.63C295.49 236.44 288.32 237.61 290.8 232.19C293.14 231.46 291.68 228.24 291.97 226.34C289.92 226.34 290.51 223.85 290.65 222.68C293.58 220.78 296.5 218.58 300.16 218.15C300.89 215.81 300.31 212.74 300.75 210.25C301.92 208.93 304.41 210.69 305.14 208.79V198.7L306.46 197.24C306.75 193.58 305.87 189.49 307.05 186.42L315.38 186.41Z" fill="black"/>
<path fill-rule="evenodd" clip-rule="evenodd" d="M311.87 196.65C311.58 196.8 311.72 197.09 311.72 197.38C310.99 197.67 310.11 197.53 309.53 197.53C308.94 195.34 309.24 191.97 309.38 189.19C312.17 190.36 311.58 194.02 311.87 196.65Z" fill="white"/>
<path fill-rule="evenodd" clip-rule="evenodd" d="M197.19 191.97C199.09 193.87 195.58 193.29 195.14 194.6C192.65 196.94 192.95 200.6 192.95 204.11L191.93 265.4C193.25 266.42 195 265.55 196.46 266.13C197.63 267.89 195.29 272.42 198.51 272.42H207.73C209.19 270.52 206.56 266.13 209.78 266.13C210.95 265.84 212.41 266.57 213.14 265.54C212.85 242.87 212.26 221.07 211.38 198.25C210.94 196.49 210.06 194.74 208.45 193.72C207.86 193.72 207.28 193.57 206.84 192.99C206.69 192.4 207.28 191.82 207.72 191.82H246.92C247.51 192.11 247.21 192.7 247.21 193.28C245.45 193.57 243.26 195.04 242.82 196.94C242.38 219.61 242.09 241.99 242.23 265.4L244.57 266.28V276.08L243.4 277.1L243.55 302.7C244.87 303.72 246.91 302.99 248.38 303.43C248.97 307.09 248.82 311.18 248.53 314.99C247.36 316.89 242.97 313.97 243.41 317.48C244.14 319.38 241.8 323.92 245.6 323.62C245.75 325.38 246.04 327.86 245.16 329.47L208.15 329.32C207.56 327.56 207.86 325.37 208 323.76L210.34 323.03C210.93 320.84 210.78 318.06 210.49 315.86C209.03 314.69 205.08 316.74 205.96 313.37C204.06 312.35 201.57 312.93 199.38 312.78C198.36 313.07 198.94 314.54 198.5 315.12C197.18 316.14 194.7 314.39 194.11 316.44C194.26 318.63 193.67 321.41 194.55 323.17C195.72 322.88 196.6 323.76 196.31 324.78L196.16 329.02C183.58 329.75 172.46 329.31 160.03 329.17C159.44 327.56 159.74 325.37 159.88 323.61C163.39 323.32 161.64 318.49 161.93 316C160.91 314.24 157.4 316.59 157.1 314.24L157.25 303.71C158.71 302.25 162.95 304.73 162.22 301.52L162.07 276.8L160.61 275.48L160.9 266.26C161.78 265.53 164.26 266.41 163.53 264.07L162.21 197.66C161.77 195.9 160.6 194.44 159.14 193.56C158.41 193.27 156.8 193.41 157.38 191.95C158.84 191.22 160.74 191.8 162.35 191.36L197.19 191.97Z" fill="black"/>
<path fill-rule="evenodd" clip-rule="evenodd" d="M185.19 204.7C185.04 225.03 184.75 245.51 184.02 265.85L165.3 266L165.01 264.39L163.84 197.1L164.13 196.51C171.88 196.8 182.71 197.24 185.19 204.7Z" fill="white"/>
<path fill-rule="evenodd" clip-rule="evenodd" d="M231.13 200.31C233.32 202.94 234.93 205.87 234.79 209.53L233.77 265.41L214.9 265.56C213.44 242.74 213.73 219.48 212.85 196.95L213.58 196.36C219.86 196.65 226.74 196.07 231.13 200.31Z" fill="white"/>
<path fill-rule="evenodd" clip-rule="evenodd" d="M311.73 200.6C313.63 202.94 313.92 206.16 313.49 209.38H308.81C308.81 206.02 308.22 202.94 308.66 199.29C309.83 199.14 310.7 199.87 311.73 200.6Z" fill="white"/>
<path fill-rule="evenodd" clip-rule="evenodd" d="M182.85 210.84L181.97 259.41C181.97 260.14 181.38 260.73 180.65 261.17C179.19 261.46 178.31 260.29 178.02 259.12L179.19 211.14C179.19 210.41 179.78 209.68 180.51 209.24C181.83 208.94 182.71 209.96 182.85 210.84Z" fill="black"/>
<path fill-rule="evenodd" clip-rule="evenodd" d="M232.73 210.69C232.88 226.78 232.44 244.04 232 259.84C231.71 260.72 231.27 261.16 230.39 261.45C229.22 261.74 228.49 260.43 228.34 259.69L229.07 210.54C229.66 208.5 232.59 208.65 232.73 210.69Z" fill="black"/>
<path fill-rule="evenodd" clip-rule="evenodd" d="M312.75 213.62C313.92 214.94 314.8 216.11 314.65 217.86C311.58 218.59 308.07 217.86 304.41 217.86L304.56 211.28C307.48 211.13 310.56 211.57 312.75 213.62Z" fill="white"/>
<path fill-rule="evenodd" clip-rule="evenodd" d="M331.62 224.15C318.16 224.88 305.14 224.3 292.12 224.3C291.83 224.01 291.83 223.71 291.83 223.42L298.71 219.91L331.48 220.06L331.62 224.15Z" fill="white"/>
<path fill-rule="evenodd" clip-rule="evenodd" d="M302.07 231.32C300.17 231.91 297.68 231.76 295.78 231.47L295.93 226.64C298.42 227.08 300.9 228.98 302.07 231.32Z" fill="white"/>
<path fill-rule="evenodd" clip-rule="evenodd" d="M331.33 233.37C331.92 234.54 331.48 236 331.62 237.32C320.8 237.91 309.53 237.47 298.56 237.32L291.98 234.54V233.52C304.71 233.22 319.33 233.07 331.33 233.37Z" fill="white"/>
<path fill-rule="evenodd" clip-rule="evenodd" d="M315.24 246.39C312.61 246.98 309.1 246.68 306.02 246.68L305.43 246.39C305.58 244.34 305.14 241.86 305.87 239.95C309.83 240.1 313.77 242.58 315.24 246.39Z" fill="white"/>
<path fill-rule="evenodd" clip-rule="evenodd" d="M324.31 248.58C326.65 249.9 329.58 250.77 331.48 252.53L292.28 252.68C292.43 251.07 291.11 248.29 293.45 248.29L324.31 248.58Z" fill="white"/>
<path fill-rule="evenodd" clip-rule="evenodd" d="M327.23 259.55V260.14H318.01C317.42 258.68 317.42 256.34 318.01 254.58C321.67 254.72 325.62 255.75 327.23 259.55Z" fill="white"/>
<path fill-rule="evenodd" clip-rule="evenodd" d="M331.62 262.04C329.43 263.94 326.5 265.11 323.72 266.43L292.12 266.14C291.83 264.68 291.97 262.78 292.71 261.61L331.62 262.04Z" fill="white"/>
<path fill-rule="evenodd" clip-rule="evenodd" d="M184.75 268.33L184.31 268.92L162.37 268.63L162.22 267.75C169.83 267.89 177.73 267.01 184.75 268.33Z" fill="white"/>
<path fill-rule="evenodd" clip-rule="evenodd" d="M230.54 267.89C230.83 268.04 231.42 268.18 231.86 268.62L209.92 268.77V267.89H230.54Z" fill="white"/>
<path fill-rule="evenodd" clip-rule="evenodd" d="M188.41 270.82C188.7 271.26 189.73 271.55 189.58 272.43C188.7 272.28 187.82 272.58 187.68 273.45L187.53 274.77L162.37 274.92C162.22 273.46 162.08 271.85 162.66 270.82H188.41Z" fill="white"/>
<path fill-rule="evenodd" clip-rule="evenodd" d="M235.37 270.67C236.54 271.55 238 273.16 238.3 274.62L216.65 274.77C217.09 270.38 212.12 273.45 210.07 272.28C209.92 271.69 209.48 270.52 210.36 270.52L235.37 270.67Z" fill="white"/>
<path fill-rule="evenodd" clip-rule="evenodd" d="M316.26 275.79C312.9 275.94 309.09 276.23 305.73 275.64C305.88 273.74 305.44 271.84 306.17 270.08C310.12 270.23 314.65 271.69 316.26 275.79Z" fill="white"/>
<path fill-rule="evenodd" clip-rule="evenodd" d="M212.69 280.32C205.38 280.32 197.33 281.05 189.72 280.47C189.13 278.57 189.28 276.08 189.57 274.18C197.18 273.89 204.78 273.89 212.68 274.03V280.32H212.69Z" fill="white"/>
<path fill-rule="evenodd" clip-rule="evenodd" d="M191.78 279.45C191.49 279.89 191.19 280.47 190.61 280.04C190.02 278.43 190.02 276.38 190.61 274.77C192.65 275.06 191.34 277.84 191.78 279.45Z" fill="black"/>
<path fill-rule="evenodd" clip-rule="evenodd" d="M194.85 275.5C194.7 276.96 195.29 278.72 194.26 279.89H193.53C193.09 278.28 192.94 276.09 193.82 274.62C194.41 274.47 194.7 275.2 194.85 275.5Z" fill="black"/>
<path fill-rule="evenodd" clip-rule="evenodd" d="M197.48 278.86C197.63 279.3 197.19 280.18 196.6 279.88C195.87 278.42 195.87 276.08 196.6 274.61C198.21 275.06 197.19 277.54 197.48 278.86Z" fill="black"/>
<path fill-rule="evenodd" clip-rule="evenodd" d="M200.26 278.42C200.41 279.15 200.26 279.74 199.67 279.88H198.94C198.5 278.27 198.06 275.78 199.23 274.61C201.14 274.91 199.97 277.25 200.26 278.42Z" fill="black"/>
<path fill-rule="evenodd" clip-rule="evenodd" d="M202.6 274.62C203.04 276.23 203.33 278.42 202.45 279.89C201.13 280.04 201.57 278.57 201.43 277.99L201.72 274.77L202.6 274.62Z" fill="black"/>
<path fill-rule="evenodd" clip-rule="evenodd" d="M206.11 278.28C206.11 278.87 206.11 279.45 205.67 279.89C204.94 280.18 204.35 279.6 204.35 279.01C204.64 277.55 203.76 275.5 205.08 274.62C206.4 274.91 206.11 277.11 206.11 278.28Z" fill="black"/>
<path fill-rule="evenodd" clip-rule="evenodd" d="M208.31 279.88H207.72C207.28 278.27 206.99 275.78 208.16 274.61C209.18 276.08 209.33 278.13 208.31 279.88Z" fill="black"/>
<path fill-rule="evenodd" clip-rule="evenodd" d="M211.67 275.64C211.23 277.1 212.55 279.59 210.65 280.03C209.77 278.57 209.77 276.23 210.65 274.76C211.23 274.47 211.52 275.2 211.67 275.64Z" fill="black"/>
<path fill-rule="evenodd" clip-rule="evenodd" d="M324.16 277.54C326.65 278.86 329.57 279.88 331.77 281.64L331.18 281.93L292.27 282.08C292.12 280.62 291.83 278.86 292.42 277.55H324.16V277.54Z" fill="white"/>
<path fill-rule="evenodd" clip-rule="evenodd" d="M187.68 290.86C188.85 294.52 187.97 298.76 187.68 302.56C184.9 301.68 180.95 301.1 178.46 303C178.17 301.54 179.19 298.9 179.34 296.86C179.34 294.67 178.61 291.89 176.56 290.42C174.66 288.52 172.03 288.08 169.54 288.37C167.05 288.66 164.86 290.71 163.98 292.9L164.13 296.56L170.86 319.23C171.15 319.52 171.74 320.55 172.03 319.67C170.57 311.48 167.79 303.58 165.89 295.39L171.59 294.95L173.35 308.7C173.94 309.58 174.96 308.99 175.54 308.7L176.86 306.65C177.45 311.62 176.57 316.89 177.59 321.57C178.91 321.42 178.32 319.81 178.47 318.94L178.62 308.26C180.81 309.72 184.18 310.16 187.1 309.87C187.25 314.4 185.64 318.94 186.08 323.18C178.77 323.47 171.16 323.47 163.99 323.33C163.55 308.85 163.7 293.78 163.99 279.45C172.91 280.32 183.88 281.05 187.68 290.86Z" fill="white"/>
<path fill-rule="evenodd" clip-rule="evenodd" d="M233.17 287.64C228.93 290.42 230.83 296.27 229.66 300.66C229.37 302.12 229.51 303.59 228.93 305.05C226.44 303.15 223.23 301.39 219.71 302.56C217.95 302.85 216.2 304.75 215.32 306.22C214.73 311.19 216.64 315.73 217.51 320.41H218.1C218.54 316.75 216.78 313.68 216.93 310.02C219.27 310.75 222.49 310.17 224.83 309.14C225.56 312.36 225.12 316.45 225.27 320.26C225.86 320.85 226.59 321.72 227.32 321.14C229.81 317.78 232.59 314.12 231.85 310.02L230.24 306.95L231.56 293.64C233.32 293.93 234.78 295.25 237.12 294.81C235.66 302.56 233.02 310.32 231.42 318.22L235.37 323.05C227.47 323.64 220.3 323.34 211.96 323.49C211.23 310.62 211.81 300.82 211.81 287.94L220.73 287.65C221.75 285.75 221.32 283.55 221.46 281.36C226.3 279.45 230.98 283.54 233.17 287.64Z" fill="white"/>
<path fill-rule="evenodd" clip-rule="evenodd" d="M210.21 282.37C210.8 288.95 210.65 296.85 210.5 302.85C209.18 303.44 207.28 302.56 206.11 303.58C206.84 307.68 201.87 305.19 199.97 305.92C198.21 305.77 199.82 302.41 197.19 303.29L194.7 303L194.55 282.67L195.72 282.23L210.21 282.37Z" fill="black"/>
<path fill-rule="evenodd" clip-rule="evenodd" d="M327.23 288.66V289.39H318.01C317.57 287.78 317.13 285.59 318.3 284.27C321.97 284.42 325.48 285.44 327.23 288.66Z" fill="white"/>
<path fill-rule="evenodd" clip-rule="evenodd" d="M331.77 291.59V292.03L324.89 295.54L292.27 295.39C291.83 294.07 291.68 292.17 292.42 291C305.14 291.44 319.04 290.71 331.77 291.59Z" fill="white"/>
<path fill-rule="evenodd" clip-rule="evenodd" d="M315.97 304.46C313.19 305.34 309.24 304.9 306.02 304.75C305.87 302.99 305.73 300.8 306.31 299.05C310.26 298.9 313.92 300.95 315.97 304.46Z" fill="white"/>
<path fill-rule="evenodd" clip-rule="evenodd" d="M161.93 312.07C161.64 312.66 160.91 312.22 160.47 312.36C160.32 310.6 159.88 307.97 160.76 306.51L161.93 306.66V312.07Z" fill="white"/>
<path fill-rule="evenodd" clip-rule="evenodd" d="M210.5 307.82L210.35 312.21C209.33 312.06 207.42 312.8 207.72 311.04C207.57 309.28 207.72 307.82 208.16 306.21C209.04 306.51 211.23 306.07 210.5 307.82Z" fill="white"/>
<path fill-rule="evenodd" clip-rule="evenodd" d="M331.77 306.36C332.36 307.68 332.06 309.43 331.92 310.75C318.75 311.19 305.3 311.04 292.28 310.75C293.89 308.85 296.38 307.39 298.72 306.36H331.77Z" fill="white"/>
<path fill-rule="evenodd" clip-rule="evenodd" d="M245.61 311.77C245.46 312.79 244.44 312.06 243.85 312.36C242.97 310.46 243.85 308.7 243.85 306.8C245.75 307.82 245.31 309.87 245.61 311.77Z" fill="white"/>
<path fill-rule="evenodd" clip-rule="evenodd" d="M205.97 309.58L205.82 310.9L199.38 311.05C198.65 310.61 199.38 309.88 199.38 309.29C200.99 307.53 203.48 308.12 205.52 307.97L205.97 309.58Z" fill="white"/>
<path fill-rule="evenodd" clip-rule="evenodd" d="M195.43 312.07C195.28 312.36 194.84 312.22 194.55 312.22L194.4 309.44C195.73 309.43 195.87 311.04 195.43 312.07Z" fill="white"/>
<path fill-rule="evenodd" clip-rule="evenodd" d="M301.19 317.63C299.43 317.92 297.53 317.92 295.78 317.63C295.63 316.46 295.34 314.56 296.22 313.68C298.27 314.26 300.32 315.72 301.19 317.63Z" fill="white"/>
<path fill-rule="evenodd" clip-rule="evenodd" d="M331.62 319.53C332.64 320.85 331.77 322.46 331.77 323.92H299L292.12 319.97L292.56 319.24L331.62 319.53Z" fill="white"/>
<path fill-rule="evenodd" clip-rule="evenodd" d="M184.02 327.87C176.85 328.46 168.81 328.16 161.49 328.16V325.09C168.66 325.38 177.58 323.33 183.43 327.43L184.02 327.87Z" fill="white"/>
<path fill-rule="evenodd" clip-rule="evenodd" d="M232.15 327.87C225.13 328.46 217.23 328.31 209.92 328.16C209.04 327.43 209.48 326.11 209.63 325.23L210.22 324.79C217.23 325.23 226.3 322.89 232.15 327.87Z" fill="white"/>
<path fill-rule="evenodd" clip-rule="evenodd" d="M316.26 333.28L315.82 333.87C312.46 333.72 308.8 334.16 305.73 333.43C305.88 331.53 305.29 329.33 306.17 327.87C310.26 327.87 314.21 329.62 316.26 333.28Z" fill="white"/>
<path fill-rule="evenodd" clip-rule="evenodd" d="M319.63 340.15C313.78 340.44 307.78 340.44 301.49 340.3C301.34 338.69 300.9 336.64 301.78 335.33C308.22 335.91 316.55 333.57 319.63 340.15Z" fill="white"/>
</g>
<defs>
<clipPath id="clip0_2_33">
<rect width="512" height="512" fill="white" transform="translate(0 0.5)"/>
</clipPath>
</defs>
</svg>
