<svg width="719" height="428" viewBox="0 0 719 428" fill="none" xmlns="http://www.w3.org/2000/svg">
<g clip-path="url(#clip0_2_100)">
<path fill-rule="evenodd" clip-rule="evenodd" d="M239.378 187.221H191.41L181.236 213.761H154.676L204.28 81.7595H234.418L284.053 213.761H249.064L239.378 187.221ZM230.65 163.42L215.904 124.633L200.486 163.42H230.65Z" fill="black"/>
<path fill-rule="evenodd" clip-rule="evenodd" d="M519.976 187.221H472.007L461.833 213.761H435.273L484.877 81.7595H515.016L564.651 213.761H529.661L519.976 187.221ZM511.248 163.42L496.5 124.633L481.084 163.42H511.248Z" fill="black"/>
<path fill-rule="evenodd" clip-rule="evenodd" d="M395.799 81.7595H427.451V213.761H395.799V81.7595Z" fill="black"/>
<path fill-rule="evenodd" clip-rule="evenodd" d="M281.625 102.929C275.497 116.109 277.833 132.748 292.853 145.545C308.577 158.942 325.672 160.204 340.608 171.428C357.248 183.933 341.416 197.544 331.327 199.276C309.653 202.997 297.443 196.929 282.167 186.105L290.823 211.728C322.493 223.182 381.824 221.425 381.287 172.73C381.112 156.94 370.587 147.21 342.016 133.044C325.628 124.917 315.473 120.562 314.667 108.901C313.564 92.9796 350.009 86.4463 367.612 104.073L370.713 83.505C347.216 71.985 295.16 73.821 281.625 102.929Z" fill="black"/>
<path fill-rule="evenodd" clip-rule="evenodd" d="M292.736 425.977L300.237 381.154L313.699 425.977H329.513L342.975 381.154L350.476 425.977H367.707L358.54 352.104H335.763L321.605 394.28L307.449 352.104H284.671L275.504 425.977H292.736Z" fill="black"/>
<path fill-rule="evenodd" clip-rule="evenodd" d="M450.605 350.878L450.624 361.386H471.168V425.977H491.12V361.386H511.663L511.681 350.878H450.605Z" fill="black"/>
<path fill-rule="evenodd" clip-rule="evenodd" d="M506.9 387.705C506.9 411.272 524.421 427.758 548.127 427.758C571.831 427.758 589.352 411.272 589.352 387.705C589.352 363.756 571.196 347.769 548.127 347.769C525.057 347.769 506.9 363.756 506.9 387.705ZM548.127 417.918C534.529 417.918 526.957 407.41 526.957 387.705C526.957 368 536.264 356.909 548.127 356.909C559.988 356.909 569.296 368 569.296 387.705C569.296 407.41 561.724 417.918 548.127 417.918Z" fill="black"/>
<path fill-rule="evenodd" clip-rule="evenodd" d="M643.429 425.977H664.112L636.393 387.596C645.464 383.569 652.176 379.653 652.176 368.34C652.176 353.466 640.229 350.213 626.185 350.213H595.152V425.977H613.329V359.916C624.839 359.916 633.547 360.285 633.547 372.483C633.547 380.283 628.843 385.286 617.772 386.773L643.429 425.977Z" fill="black"/>
<path fill-rule="evenodd" clip-rule="evenodd" d="M369.944 387.705C369.944 411.272 387.465 427.758 411.169 427.758C434.875 427.758 452.396 411.272 452.396 387.705C452.396 363.756 434.239 347.769 411.169 347.769C388.1 347.769 369.944 363.756 369.944 387.705ZM411.169 417.918C397.572 417.918 390 407.41 390 387.705C390 368 399.308 356.909 411.169 356.909C423.032 356.909 432.339 368 432.339 387.705C432.339 407.41 424.767 417.918 411.169 417.918Z" fill="black"/>
<path fill-rule="evenodd" clip-rule="evenodd" d="M665.349 364.285C662.128 371.753 663.393 380.638 671.799 387.801C680.599 395.298 687.843 395.118 696.2 401.4C704.347 408.232 698.873 416.71 692.247 417.872C683.091 419.474 674.368 418.224 665.819 412.166L669.225 423.79C685.508 428.457 714.363 429.434 718.381 409.525C721.252 395.309 708.748 388.47 696.229 382.264C689.105 378.73 684.477 376.349 682.447 371.814C680.24 366.89 681.776 362.825 686.273 360.546C692.607 357.338 703.711 357.461 711.055 364.258L712.092 353.37C698.859 347.381 672.589 347.494 665.349 364.285Z" fill="black"/>
<path fill-rule="evenodd" clip-rule="evenodd" d="M142.443 352.104H160.157V425.977H142.443V352.104Z" fill="black"/>
<path fill-rule="evenodd" clip-rule="evenodd" d="M79.5974 364.285C76.3763 371.753 77.6416 380.638 86.0474 387.801C94.8467 395.298 102.091 395.118 110.449 401.4C118.595 408.232 113.121 416.71 106.495 417.872C97.3386 419.474 88.6158 418.224 80.0664 412.166L83.4736 423.79C99.7559 428.457 128.611 429.434 132.631 409.525C135.5 395.309 122.996 388.47 110.477 382.264C103.353 378.73 98.7266 376.349 96.6946 371.814C94.488 366.89 96.0252 362.825 100.521 360.546C106.855 357.338 117.959 357.461 125.303 364.258L126.34 353.37C113.108 347.381 86.8382 347.494 79.5974 364.285Z" fill="black"/>
<path fill-rule="evenodd" clip-rule="evenodd" d="M215.548 411.125H188.703L183.009 425.977H168.145L195.905 352.104H212.772L240.551 425.977H220.968L215.548 411.125ZM210.664 397.804L202.411 376.098L193.783 397.804H210.664Z" fill="black"/>
<path fill-rule="evenodd" clip-rule="evenodd" d="M47.4643 411.125H20.6189L14.9253 425.977H0.060791L27.8213 352.104H44.6883L72.4661 425.977H52.8845L47.4643 411.125ZM42.5796 397.804L34.3264 376.098L25.6985 397.804H42.5796Z" fill="black"/>
<path fill-rule="evenodd" clip-rule="evenodd" d="M358.604 0.440918C520.493 0.440918 651.731 66.4636 651.731 147.905C651.731 229.346 520.493 295.369 358.604 295.369C196.716 295.369 65.4788 229.346 65.4788 147.905C65.4788 66.4636 196.716 0.440918 358.604 0.440918ZM358.604 31.9969C507.836 31.9969 632.433 83.8903 632.433 147.905C632.433 211.92 507.836 263.813 358.604 263.813C209.372 263.813 84.7752 211.92 84.7752 147.905C84.7752 83.8903 209.372 31.9969 358.604 31.9969Z" fill="black"/>
</g>
<defs>
<clipPath id="clip0_2_100">
<rect width="718.736" height="427.317" fill="white" transform="translate(0.060791 0.440918)"/>
</clipPath>
</defs>
</svg>
