<?xml version="1.0" encoding="utf-8"?>
<!-- Generator: Adobe Illustrator 17.0.2, SVG Export Plug-In . SVG Version: 6.00 Build 0)  -->
<!DOCTYPE svg PUBLIC "-//W3C//DTD SVG 1.1//EN" "http://www.w3.org/Graphics/SVG/1.1/DTD/svg11.dtd">
<svg xmlns="http://www.w3.org/2000/svg" xmlns:xlink="http://www.w3.org/1999/xlink" version="1.1" id="Layer_1" x="0px" y="0px" width="600px" height="600px" viewBox="0 0 600 600" style="enable-background:new 0 0 600 600;" xml:space="preserve">
<g>
	<path d="M177.48,525.77c40.03,19.57,83.64,31.61,131.62,31.23c102.81-6.22,204.83-70.88,246.53-168.65   c27.31-58.23,24.27-141.54-2.14-199.24C524.67,120.64,452.14,72.79,385.17,54c-11.29,1.53-22.77,5.35-28.8,16.07   c46.44,16.3,91.15,39.86,125.94,81.86c46.82,52.77,59.53,138.4,30.8,203.7C477.41,439.95,389,491.86,301.57,499.41   c-56.31-4.74-106.21-24.4-149.93-59.23c-68.42-55.64-97.4-144.39-68-227.73C106.23,143.8,178.32,89.83,244.4,70.07   c-6.13-10.81-18.14-14.42-29.58-16.07c-26.05,8.6-51.41,18.92-74.97,33.09C69.34,128.96,28.87,201.04,26.01,279.53   C18.92,384.96,85.04,479.62,177.48,525.77z M301.57,504.66c88.85-7.72,178.94-59.46,215.79-145.68   c32.7-72.89,15.62-166.02-41.59-222.22c-33.02-34.94-72.31-55.67-113.9-70.34c1.14-2.28,4.48-3.7,6.93-5.27l27.33,9.18   c-7.03-1.06-14.14-2.74-21.39-2.13c21.39,11.26,43.43,20.71,67.78,25.46c14.68,9.39,28.78,20.21,42.21,32.9   c-7.33-4.87-17.34-6.56-25.83-10.29c12.64,16.67,30.32,29.2,48.36,36.91l2.98,2.13c12.22,16.38,21.35,34.05,28.36,52.74   c-6.59-10-16.5-18.01-25.49-25.76c5.63,20.88,17.88,39.7,33.26,56.96c4.29,9.76,4.13,21.12,5.29,32.01   c0.48,13.52,0.48,27.63-1.28,40.58c-1.54-14.22-7.31-27.19-13.01-39.34c-5.91,24.75-1.66,52.13,5.93,74.59   c-5.48,21.04-15.32,40.32-26.43,59c4.32-12.74,3.32-30.48,2.14-45.02c-6.53,11.01-12.44,22.26-15.88,34.48l-5.25,35.64   c-12.82,16.18-29.42,31.36-45.74,43.02c12.54-13.22,17.24-29.58,21.39-46.15c-12.92,10.19-26.31,23.78-32.62,38.44l-10.87,22.27   c-20.77,12.58-42.81,22-66.02,28.9c16.34-9.33,32.24-24.92,42.37-40.85c-17.56,7.9-36.81,14.92-50.48,32.16   c-5.49,4.76-7.75,13.69-15.74,14.86c-12.4,2.55-25.51,3.81-38.59,5V504.66z M425.72,86.88c-11.99-2.99-25.73-8.4-37.59-14.6   C401.19,75.46,413.27,81.43,425.72,86.88z M444.01,85.89c11.42,8.8,23.93,18.38,33.04,30.38   C465.95,106.06,453.52,97.79,444.01,85.89z M503.12,148.15c-12.9-5.11-24.67-13.59-34.82-24.48   C480.09,131.3,492.23,138.27,503.12,148.15z M544.25,232.23c-11.11-11.51-19.96-25.72-25.61-40.34   C528.13,204.95,537.68,217.88,544.25,232.23z M544.85,339.7c0.24-19.93-2.58-38.47-5.37-57.32   C547.33,299.05,551.66,321.29,544.85,339.7z M502.2,426.28c7.05-17.41,11.05-35.71,15.16-54.33   C518.74,392.71,515.9,411.8,502.2,426.28z M436.68,484.47c12.45-15,21.79-31.28,31.9-47.37   C464.67,455.53,453.72,473.35,436.68,484.47z M349.55,521.47c17.02-11.53,33.2-25.41,49.68-38.52   C386.54,500.3,368.97,515.53,349.55,521.47z M301.57,531.28c23.89,13.91,59.17,15.91,85.24,5.61c-16.92-3.8-31.88-11.69-51.04-9.93   c14.64-2.69,28.68-6.67,42.69-10.88c26.47,6.27,55.89,2.38,76.71-13.99c-17.04,0.27-36.29-2.28-52.27,3.47   c17.5-7.83,36.57-19.59,53.85-31.62c26.61-1.26,52.36-12.15,65.98-36.83c-14.26,6.14-30.8,8.47-43.93,17.91   c15.02-13.96,28.51-30.47,39.19-47.07c25.83-9.58,45.3-36.87,46.38-63.45c-8.79,11.41-23.21,21.07-30.22,34.03   c10.83-23.85,17.08-49.53,19.87-76.53c14.14-20.1,18.52-50.88,8.15-74.07c-4,10.68-7.33,21.75-8.95,33.35   c-2.34-22.13-8.13-44.65-16.88-64.99c2.34-21.56-2.76-40.96-18.62-55.53c-2.66-2.74-5.65-5.52-8.11-8.07   c1.5,10.12,4.32,20.35,8.39,29.9c-10.47-19.78-35.92-35.49-43.51-57.18c-9.21-14.05-24.59-19.28-37.63-27.22v1.28   c3.73,5.65,7.69,11.43,13.04,16.35C425.44,80,399.45,67.99,371.92,59.59c11.58-7.57,23.09,0.51,34.14,3.72   c55.47,19.51,113.74,61.48,140.89,117.47c33.7,63.1,34.74,157.52,0.28,220.61c-47.98,93.46-144.6,149.1-245.66,154.09V531.28   L301.57,531.28z M310.68,532.8c21.45,2.99,43.71,4.52,66.46,4.72C355.84,543.02,329.75,542.56,310.68,532.8z M386.54,514.93   c19.52-2.92,40.41-3.99,59.25-9.37C429.23,516.2,407.2,518.45,386.54,514.93z M465.73,470.53c17.18-7.7,34.16-15.91,49.78-27.29   C504,459.71,485.28,468.46,465.73,470.53z M526.07,400.74c13-13.7,25.81-30.06,34.5-46.71   C557.05,372.85,544.47,391.82,526.07,400.74z M554.02,296.7c0.14-20.94-0.04-42.05,7.51-59.87   C561.01,257.56,558.45,277.52,554.02,296.7z M532.98,187.55c-7.69-15.39-16.82-30.15-19.58-47.48   C522.1,155.03,528.81,170.88,532.98,187.55z M239.11,66.04c-66.34,20.84-138.17,75.95-160.86,145.09   c-28.03,78.98-3.62,164.97,57.01,221.68c46.58,43.41,102.05,65.59,164.26,71.85v23.86c-14.6-0.46-29.15-2.35-42.69-5.54   c-9.99-10.4-18.36-23.05-30.8-30.66c-10.13-5.91-20.81-10.92-31.42-15.87v1.19c10.17,15.69,25.91,30.37,41.67,40.05   c-22.25-6.75-45-16.32-65.58-28.9c-8.89-16.48-14.22-34.55-29.54-48.37l-13.74-12.68c2.7,12.84,6.71,25.86,13.96,37.25l7.21,9.24   c-16.34-11.49-32.2-26.74-45.74-42.36c-2.56-15.97-3.16-32.65-9.07-47.28c-3.3-8.03-7.59-15.83-12.05-23.51   c-1.14,14.54-2.3,32.24,2.12,45.02c-11.26-18.49-20.39-37.97-26.35-58.58c7.57-22.76,11.84-50.26,5.85-75.01   c-5.81,12.15-11.26,25.01-13.14,39.05c-2.88-21.88-1.48-47.69,2.64-69.52c8.75-13.16,20.93-24.85,26.89-39.25   c2.82-6.73,5.93-13.27,8.05-20.18c-9.01,6.75-19.06,15.58-25.73,25.44c7.05-18.83,16.3-36.44,28.55-53.01   c14.04-8.14,28.82-14.15,40.89-26.91l10.55-11.6c-8.53,2.94-18.28,5.06-26.19,10.31c13.52-13.49,28.4-24.47,43.93-33.81   c23.69-4.12,44.97-14.2,66.22-24.82c-7.29-0.61-14.52,1.07-21.43,2.13l26.87-9.18C234.31,62.17,236.61,64.2,239.11,66.04z    M251.17,521.47c-19.42-5.94-36.99-21.17-49.68-38.52C217.93,496.06,234.11,509.9,251.17,521.47z M163.7,484.23   c-16.16-10.11-27.75-28.7-31.72-47.13C142.07,453.12,151.32,469.38,163.7,484.23z M98.54,426.28   c-13.72-14.48-16.56-33.57-15.32-54.33C87.45,390.56,91.49,408.87,98.54,426.28z M55.89,339.7c-6.77-18.41-2.56-40.65,5.29-57.32   C58.45,301.23,55.69,319.78,55.89,339.7z M56.55,232.5c6.17-14.46,16.06-27.54,25.43-40.61C76.43,206.65,67.6,220.09,56.55,232.5z    M97.9,147.87c9.87-8.76,22.67-16.78,34.48-24.2C122.13,134.2,110.81,143.4,97.9,147.87z M123.73,116.26   c8.89-12,21.39-21.26,32.56-30.38C147.86,97.52,134.62,106.06,123.73,116.26z M174.99,86.88c11.23-4.87,24.31-11.67,37.63-14.6   C200.47,78.02,188.27,83.67,174.99,86.88z M93.25,126.17c35.86-35.28,77.66-56.21,122.49-70.04c4.55,0.59,8.75,1.66,12.76,3.47   c-26.53,8.39-53.51,20.4-77.72,36.19c5.51-5.29,9.99-11.07,13.28-17.31c-16.1,7.87-37.55,18.27-43.85,37.79l-2.68,5.89   c-13.4,12.41-25.43,25.86-34.5,40.43c3.18-8.53,6.93-19.7,7.97-29.95c-20.44,16.26-29.98,37.95-26.77,63.88   c-8.81,20.33-14.32,42.09-16.7,65.13c-1.24-11.98-5.33-22.9-9.07-33.72c-10.67,23.74-5.25,55.02,8.71,75.61   c2.66,26.48,8.61,51.48,19.24,74.73c-6.55-11.96-21.29-22.39-30.16-33.77c1.38,23.33,14.78,46.32,36.75,58.22   c12.69,2.48,15.18,17.01,23.53,25.02c8.21,9.26,15.94,18.99,25.61,27.27c-13.4-9.37-29.36-11.61-43.81-18.33v1.3   c14.24,24.88,39.97,34.56,66.56,36.25c16.8,12.41,34.52,23.13,53.21,31.33c-15.32-5.87-35.12-2.92-52.33-3.7   c4.49,4.47,11.31,7.57,17.42,10.54c17.48,7.89,40.37,7.63,59.71,3.67c13.72,4.22,27.64,8.19,42.05,10.88   c-19.16-1.75-34.3,6.14-51.12,9.93c26.21,10.3,61.48,8.3,85.24-5.61l0.46,23.94C192.89,551.5,86.85,485.11,45.31,383.73   C11.49,298.73,27.01,191.22,93.25,126.17z M67.68,187.55c4.29-16.67,10.79-32.52,19.77-47.48C84.6,157.52,75.15,172.1,67.68,187.55   z M46.52,296.7c-4.33-19.17-6.85-39.14-7.39-59.87C46.6,254.65,46.33,275.76,46.52,296.7z M74.89,401.16   c-18.4-9.07-31.42-28.14-34.96-47.13C48.94,370.84,60.93,386.39,74.89,401.16z M134.94,470.53c-19.54-2.33-37.83-10.29-50.12-27.29   C100.7,454.37,117.64,462.83,134.94,470.53z M214.18,514.58c-20.16,4-42.91,1.73-59.39-9.02   C173.73,510.57,194.02,512.39,214.18,514.58z M290.04,532.8c-19.21,9.47-45.06,10.35-66.18,4.72   C245.46,537.32,268.51,535.76,290.04,532.8z"/>
	<path d="M109.41,191.22l32.66,56.1l1.24,25.21l4.93,65.99l3.73,26.32c2.5,16.6,19.2,28.34,33.58,34.13   c37.12,14.54,76.15,24.93,115,35.33c37.53-10.04,74.77-20.5,110.9-33.82c14.78-5.6,33.1-16.49,36.57-33.78   c6.67-38.19,8.75-78.29,10.31-118.67l32.94-56.82l-8.35-1.18l-113.84-13.98l-70.61-6.99l-54.91,5.8L109.41,191.22z M301.57,174.46   l120.59,13.38l60.15,7.84l-29.34,50.14c-1.66,35.79-3.84,71.52-7.65,106.32c-2.06,12.19-4,24.68-15.66,32.45   c-11.59,8.48-25.05,12.44-38.23,17.21c-29.36,10.27-59.78,18.12-89.87,26.64l-0.32-23.6c38.53-9.74,80.02-12.27,115.76-28.74   c10.31-4.68,13.86-15.3,14.56-25.52l2.78-109.63c6.23-10.62,12.76-21.33,18.62-32.04l-151.41-0.23V174.46L301.57,174.46z    M303.43,359.56h123.97c-3.44,14.73-19.61,17-31.04,21.96l-30.76,7.8l-61.9,12.08L303.43,359.56z M299.53,211.15h1.72v41.55   l64.72,0.22l0.6-0.89v-40.88h82.04l-7.71,13.67h-72.11c-1.16,3.84-0.36,8.43-0.62,12.68l0.86,0.64h63.76   c-2.38,4.69-1.22,10.87-1.46,16.35l-62.9,0.44l-0.26,42.71l0.86,0.62h61.2v1.52H301.89l-0.64,0.95v29.79l128.2,0.29   c0.46,0.25,0.22,0.98,0.22,1.5l-128.1,0.26l-0.32,22.61l0.86,0.7h126.36l-0.64,1.54H301.57l-0.32,43.97   c-0.22,0.45-1.02,0.35-1.5,0.4l-0.22-56.46l-64.78-0.38l-0.64,1.02v43.03c-17.04-3.87-34.28-7.32-49.44-15.52h47.26   c1.14-3.93,0.36-8.68,0.74-13.03l-1.18-0.51h-58.39c-1-5.42-1.68-10.86-1.82-16.58l60.65-0.2l0.74-0.88v-41.85l-1.18-0.66h-61.22   v-1.52h128.52l0.74-1.01v-29.66l-129.84-0.45v-1.5l129.38-0.25l0.46-22.69l-130.06-0.19c-0.64-0.5-0.38-1.33-0.38-1.97h129.98   L299.53,211.15z M430.03,302.23l-0.36,26.1H303.43v-26.1H430.03z M169.69,269.73h127.54v25.97H170.27L169.69,269.73z    M167.86,238.41l-15.9-27.25h145.26v26.95L167.86,238.41z M298.79,174.46v34.23H147.96l0.28,1.82l18.28,30.93l2.24,105.43   c0.92,8.78,1.12,17.83,8.07,24.21c13.78,10.24,30.2,13.88,46.34,18.23l75.29,15.21h0.32c0.6,7.77,0.14,15.99,0.28,23.94   c-38.59-11.05-77.82-20.93-114.76-36.04c-14.84-5.39-27.63-19.79-28.27-35.91c-4.29-36.08-6.99-72.83-8.35-110.08   c-9.39-17.11-20.06-33.68-29.28-50.73l125.3-15.29L298.79,174.46z"/>
	<path d="M365.61,269.94h-63.72v13.1l64.36-0.3C365.97,278.41,366.89,273.84,365.61,269.94z"/>
	<rect x="234.75" y="315.31" width="64.32" height="12.65"/>
</g>
</svg>
