<svg width="611" height="156" viewBox="0 0 611 156" fill="none" xmlns="http://www.w3.org/2000/svg">
<g clip-path="url(#clip0_6_62)">
<path d="M84.4852 0.581094C64.4213 0.962936 40.2601 4.44718 26.2274 12.8682C17.1791 18.3531 6.0536 29.5223 2.63948 46.7178C-0.774642 63.9133 0.803514 80.6609 4.17072 97.8741C7.53793 115.087 14.2823 134.357 32.9656 144.282C51.649 154.208 64.1794 155.385 89.786 155.312C115.393 155.385 127.923 154.208 146.606 144.282C165.29 134.357 172.034 115.087 175.401 97.8741C178.768 80.6609 180.347 63.9133 176.932 46.7178C173.518 29.5223 162.393 18.3531 153.345 12.8682C135.113 2.83921 115.055 0.915578 95.0867 0.581094C91.45 0.605302 87.8527 0.540524 84.4852 0.581094ZM110.612 5.21C118.021 5.91683 136.56 7.35371 150.434 15.626C164.309 23.8983 170.511 34.418 173.102 47.1768C175.694 59.9356 175.468 76.0717 171.878 96.4952C168.288 116.919 158.241 133.911 144.614 141.067C130.987 148.224 113.687 152.011 89.786 151.642C65.8849 152.011 48.585 148.224 34.9578 141.067C21.3307 133.911 11.2844 116.919 7.69416 96.4952C4.10389 76.0717 3.87841 59.9356 6.46955 47.1768C9.06068 34.418 15.2627 23.8983 29.1375 15.626C43.0124 7.35372 61.5509 5.91683 68.9598 5.21C82.7963 4.06148 96.9494 3.97136 110.612 5.21ZM85.1903 8.76078C73.8169 8.9026 61.6416 10.2944 53.3094 12.085C43.7869 14.1314 40.5311 14.854 32.3192 19.7666C24.1072 24.6793 14.0095 34.6817 10.911 50.083C7.81239 65.4844 9.24561 80.4862 12.3016 95.9034C15.3576 111.321 21.478 128.58 38.4344 137.47C66.6154 152.147 113.664 151.563 141.138 137.47C158.094 128.58 164.214 111.321 167.27 95.9034C170.326 80.4862 171.76 65.4844 168.661 50.083C165.562 34.6817 155.465 24.6793 147.253 19.7666C139.041 14.854 135.785 14.1314 126.263 12.085C117.93 10.2944 105.755 8.9026 94.3817 8.76078C91.2283 8.78475 88.1103 8.72628 85.1903 8.76078ZM107.559 16.167C110.652 16.457 115.996 16.8995 122.038 18.0635C122.932 18.2477 123.436 18.537 123.239 19.3877C113.522 42.9549 103.144 66.5313 92.3172 90.0987C90.8578 93.2241 89.0137 93.3444 87.5203 90.6768C76.5975 66.9168 66.1289 43.1476 56.3328 19.3877C56.1363 18.537 56.6396 18.2477 57.534 18.0635C63.5761 16.8995 68.9204 16.457 72.0125 16.167C83.8202 15.1955 95.9388 15.1297 107.559 16.167ZM47.7645 20.626C48.3177 20.612 48.503 20.9774 48.4832 21.669L48.491 21.6475V61.3037C48.491 73.8199 50.5373 79.6902 56.0731 89.8956L82.6024 138.749C83.5082 140.475 82.0388 140.363 80.4422 140.38C64.6238 139.701 52.5118 136.625 42.6434 131.53C30.8724 125.453 22.1938 111.025 19.0926 93.6827C15.9914 76.3399 15.7958 62.638 18.034 51.8038C20.2722 40.9695 25.6292 32.0353 37.6141 25.0108C40.6025 23.2592 43.842 21.8689 47.1199 20.7588C47.374 20.6766 47.5892 20.6305 47.7645 20.626ZM131.807 20.626C131.983 20.6305 132.198 20.6766 132.452 20.7588C135.73 21.8689 138.969 23.2592 141.958 25.0108C153.943 32.0353 159.3 40.9695 161.538 51.8038C163.776 62.638 163.581 76.3399 160.479 93.6827C157.378 111.025 148.7 125.453 136.929 131.53C127.06 136.625 114.948 139.701 99.1297 140.38C97.5331 140.363 96.0637 140.475 96.9696 138.749L123.499 89.8956C129.035 79.6902 131.081 73.8199 131.081 61.3037V21.6475L131.089 21.669C131.069 20.9774 131.254 20.612 131.807 20.626Z" fill="black"/>
<path d="M353.383 12.4399V18.5474H318.094V35.6255L330.641 35.7388V27.6099C330.629 26.4826 331.531 26.1138 333.024 26.2329H388.543C389.194 26.2276 390.682 26.3741 390.708 27.4829V35.6255L403.262 35.5122L403.194 25.4243C403.23 21.0025 399.85 18.9609 396.137 18.8872H367.069V12.4399H353.383ZM452.969 12.9575L441.108 35.1255H452.581L457.053 26.9575H505.76V20.3462L461.719 20.0552L466.678 13.0552L452.969 12.9575ZM549.122 12.9575L543.872 20.7349L521.473 20.8052V27.5474L537.067 27.5337C538.034 27.5264 538.508 28.1033 538.135 28.7075L526.567 45.9165C524.894 48.664 525.153 53.0302 529.872 53.1099L562.02 53.2251L562.112 64.7231H520.436V71.9849L562.02 72.0728L562.11 88.9302H574.725L574.815 72.0728L610.002 71.9849V64.7231H574.725L574.815 53.2251L605.161 53.1372V46.9146L574.885 46.8892L574.729 34.2915H562.108L562.149 46.7915L544.165 46.5962C541.269 46.7472 540.811 45.3207 541.733 43.9712L553.01 27.6392L608.62 27.5474V20.8091L558.358 20.7349L563.491 13.0239L549.122 12.9575ZM226.504 13.8892V42.3774L213.018 42.5923V49.854H226.504V83.2427C226.746 86.3318 228.804 87.806 231.752 88.4888H254.758V81.3188H241.073C240.201 81.963 238.698 80.9814 238.809 79.0571V49.6509H252.608C263.036 64.9107 271.468 80.9006 302.584 88.5845L302.26 79.8481C288.085 73.7037 273.759 67.8768 265.163 49.9888H302.6V42.7505H238.698V13.9106L226.504 13.8892ZM430.317 14.7075L417.192 14.8052C420.592 18.6438 423.347 21.8127 428.178 29.8755H439.358C436.648 24.8807 434.254 19.9477 430.317 14.7075ZM280.659 15.2661C269.461 22.9321 259.759 30.1005 253.965 35.9653L266.973 36.0786C277.675 26.8654 287.995 21.8316 298.415 15.7192L280.659 15.2661ZM347.581 33.2759L341.018 42.8774H315.764V49.9087H335.477C335.971 50.3704 335.346 51.1976 334.7 52.0396L329.79 59.77C328.996 61.2219 328.926 62.7087 330.713 64.2896L349.963 73.186C350.764 73.5832 351.655 73.9654 350.061 74.7407C340.993 77.214 330.985 79.4278 315.764 80.2349V88.936C334.168 87.0517 351.629 84.5363 363.624 78.6782C363.916 78.4357 364.028 78.0431 365.374 78.6782C378.121 82.5054 390.603 86.6487 405.209 88.7407V80.2349C395.81 78.442 386.065 76.1275 375.629 73.0396C374.847 72.575 374.875 72.03 375.387 71.436C383.867 65.6665 388.193 57.9873 391.67 49.9087H405.209V42.8774H356.04C355.633 42.6538 354.878 42.7048 355.311 41.8813L361.436 34.4438C361.739 34.0388 361.773 33.681 361.825 33.2759H347.581ZM456.459 33.7739V40.1704H502.108V33.7739H456.459ZM430.415 37.0688L417.874 37.2642C421.438 41.9098 425.002 46.3445 428.567 53.4985C429.205 55.6769 429.192 57.9654 428.276 60.4028C425.508 70.3236 422.193 79.5149 418.651 88.4028L430.317 88.4985C433.993 78.6143 436.678 68.7304 439.067 58.8462C440.165 52.8835 438.989 51.9632 438.094 49.6099C435.917 44.9193 433.37 40.7224 430.415 37.0688ZM447.295 46.9146V53.6567L485.344 53.7915C487.269 53.646 487.642 54.8312 487.776 56.2212L487.872 73.1392C488.091 81.0178 497.771 88.5123 507.295 88.7583L507.467 80.8423C502.257 79.5787 499.64 74.0115 499.635 70.7075V52.7212C499.568 50.3569 497.618 47.3296 493.803 46.9849L447.295 46.9146ZM348.967 49.9087H379.147C377.408 57.1192 371.97 63.483 363.266 69.2271C356.324 67.0491 349.724 64.5285 343.331 61.8013C341.394 60.7242 341.647 59.6478 342.436 58.5708L348.967 49.9087Z" fill="black"/>
<path d="M236.525 102.525C223.953 102.525 213.48 106.583 213.48 122.611C213.764 138.68 227.412 142.633 237.427 142.633H256.507V134.746L239.302 134.854C235.439 134.854 226.044 133.454 226.044 122.68C225.766 111.476 235.875 110.504 239.908 110.504H256.507V102.59L236.525 102.525ZM467.003 102.525C460.718 102.592 443.957 104.471 443.957 122.611C443.957 139.852 457.138 142.633 466.834 142.633H486.986H491.921C492.522 142.633 493.029 142.193 493.029 141.473V119.949C493.029 119.475 492.716 119.146 492.224 119.146L473.156 119.104V126.496H481.298C482.253 126.496 482.492 127.559 482.363 127.559V133.811C482.363 134.385 482.154 134.815 481.402 134.771L467.228 134.854C464.717 134.854 456.521 133.392 456.521 122.443C456.521 111.08 464.36 110.504 467.835 110.504H493.119V102.59L467.003 102.525ZM341.853 102.59L324.843 142.551L334.673 142.633L347.689 111.607C348.107 110.594 349.45 110.719 349.847 111.756L363.332 142.635L375.878 142.633L359.892 106.139C358.309 102.847 356.747 102.59 353.736 102.59H341.853ZM390.519 102.59L385.257 102.592L385.337 142.559L394.619 142.645V119.254C394.935 119.316 395.345 118.702 396.945 119.916L420.078 140.178C421.197 141.246 423.002 142.635 426.13 142.635H431.251C431.973 142.635 432.601 142.039 432.601 140.957L432.697 102.592L423.322 102.59L423.294 124.145C423.294 126.323 421.634 126.381 420.095 124.842L397.056 104.992C395.78 103.848 394.524 102.59 390.519 102.59ZM519.962 102.59L502.953 142.551L512.781 142.633L525.798 111.607C526.217 110.594 527.559 110.719 527.957 111.756L541.439 142.635L553.988 142.633L538 106.139C536.417 102.847 534.856 102.59 531.845 102.59H519.962ZM568.302 102.59L563.041 102.592L563.121 142.559L572.402 142.645V119.254C572.718 119.316 573.128 118.702 574.728 119.916L597.861 140.178C598.98 141.246 600.785 142.635 603.914 142.635H609.035C609.756 142.635 610.384 142.039 610.384 140.957L610.48 102.592L601.105 102.59L601.078 124.145C601.078 126.323 599.418 126.381 597.878 124.842L574.839 104.992C573.563 103.848 572.307 102.59 568.302 102.59ZM269.199 102.592V142.635H280.419V125.965H303.82V142.635H315.525V102.592H303.82V117.617H280.419V102.592H269.199Z" fill="black"/>
<path d="M227.685 14.5947V14.7153H227.816V14.5947H227.685ZM227.372 14.601C227.328 14.601 227.288 14.6067 227.252 14.6183C227.216 14.6294 227.187 14.6447 227.164 14.664C227.14 14.6838 227.122 14.7063 227.11 14.7314C227.099 14.7566 227.093 14.7833 227.093 14.8118C227.093 14.8571 227.106 14.8954 227.131 14.9268C227.156 14.9577 227.199 14.9812 227.26 14.9972C227.282 15.003 227.306 15.0084 227.332 15.0133C227.359 15.0183 227.381 15.0226 227.397 15.0263C227.442 15.0362 227.472 15.0482 227.487 15.0622C227.503 15.0762 227.511 15.0968 227.511 15.124C227.511 15.1594 227.496 15.1854 227.468 15.2019C227.439 15.2184 227.399 15.2266 227.348 15.2266C227.306 15.2266 227.263 15.2186 227.218 15.2025C227.173 15.186 227.133 15.164 227.096 15.1364H227.09V15.2668C227.119 15.2812 227.154 15.2946 227.197 15.307C227.24 15.3189 227.287 15.3249 227.338 15.3249C227.428 15.3249 227.499 15.3047 227.551 15.2643C227.603 15.2239 227.63 15.1722 227.63 15.1092C227.63 15.0589 227.615 15.0185 227.586 14.988C227.556 14.9579 227.515 14.9367 227.461 14.9243C227.443 14.9202 227.421 14.9156 227.394 14.9107C227.368 14.9058 227.344 14.9008 227.322 14.8959C227.284 14.8868 227.256 14.875 227.238 14.8606C227.22 14.8462 227.212 14.8248 227.212 14.7963C227.212 14.7642 227.226 14.7401 227.256 14.724C227.285 14.7075 227.321 14.6993 227.363 14.6993C227.404 14.6993 227.446 14.7069 227.488 14.7221C227.53 14.737 227.566 14.7553 227.596 14.7772H227.602V14.6529C227.574 14.6385 227.539 14.6263 227.497 14.6164C227.455 14.6061 227.413 14.601 227.372 14.601ZM227.548 14.8309V14.9286H227.692V15.485C227.692 15.5183 227.691 15.5466 227.688 15.5697C227.686 15.5932 227.68 15.6131 227.671 15.6296C227.662 15.6461 227.648 15.6585 227.63 15.6667C227.612 15.675 227.588 15.6791 227.558 15.6791C227.54 15.6791 227.521 15.6762 227.501 15.6704C227.481 15.6647 227.466 15.6595 227.454 15.655H227.448V15.7656C227.466 15.7706 227.489 15.7747 227.516 15.778C227.543 15.7813 227.565 15.7829 227.581 15.7829C227.65 15.7829 227.706 15.7623 227.747 15.7211C227.788 15.6799 227.809 15.6189 227.809 15.5381V14.8309H227.548ZM228.125 14.8497C228.083 14.8497 228.041 14.8535 227.998 14.8609C227.956 14.8683 227.923 14.8751 227.9 14.8813V14.9994H227.906C227.946 14.9841 227.985 14.9726 228.022 14.9647C228.06 14.9565 228.094 14.9524 228.124 14.9524C228.15 14.9524 228.174 14.954 228.197 14.9573C228.22 14.9606 228.24 14.967 228.256 14.9765C228.273 14.9864 228.287 15 228.296 15.0173C228.305 15.0346 228.31 15.0564 228.31 15.0828V15.1007C228.242 15.104 228.179 15.109 228.12 15.1156C228.061 15.1222 228.011 15.1347 227.969 15.1533C227.927 15.1718 227.895 15.1974 227.872 15.23C227.85 15.2621 227.839 15.3043 227.839 15.3567C227.839 15.4206 227.861 15.4731 227.904 15.5143C227.947 15.5555 228 15.5762 228.062 15.5762C228.096 15.5762 228.125 15.5729 228.15 15.5663C228.176 15.5601 228.198 15.5522 228.217 15.5428C228.234 15.5354 228.251 15.5255 228.268 15.5131C228.286 15.5003 228.3 15.4904 228.31 15.4834V15.557H228.426V15.0884C228.426 15.0439 228.419 15.0066 228.405 14.9765C228.392 14.9464 228.372 14.9219 228.346 14.9029C228.319 14.8835 228.288 14.8699 228.252 14.8621C228.216 14.8539 228.174 14.8497 228.125 14.8497ZM228.31 15.1947V15.387C228.281 15.4092 228.25 15.4284 228.216 15.4445C228.182 15.4601 228.145 15.468 228.104 15.468C228.055 15.468 228.019 15.4581 227.995 15.4383C227.971 15.4181 227.959 15.3882 227.959 15.3486C227.959 15.3136 227.969 15.2862 227.99 15.2664C228.01 15.2462 228.037 15.2314 228.071 15.2219C228.099 15.2141 228.137 15.2081 228.184 15.204C228.233 15.1999 228.275 15.1968 228.31 15.1947Z" fill="black"/>
</g>
<defs>
<clipPath id="clip0_6_62">
<rect width="609.747" height="154.747" fill="white" transform="translate(0.73291 0.567383)"/>
</clipPath>
</defs>
</svg>
