<svg width="512" height="513" viewBox="0 0 512 513" fill="none" xmlns="http://www.w3.org/2000/svg">
<g clip-path="url(#clip0_6_24)">
<path d="M101.5 359.54V374.05H29.1204C29.1204 374.05 26.4204 373.34 26.4204 376.75C26.4204 380.16 26.4204 405.9 26.4204 405.9C26.4204 405.9 25.9904 408.6 29.1204 408.6C32.2504 408.6 101.36 408.6 101.36 408.6V421.83H26.5604C26.5604 421.83 12.0504 420.55 12.0504 407.32V374.47C12.0504 374.47 10.3404 359.68 26.8404 359.68L101.5 359.54Z" fill="black"/>
<path d="M232.901 384.28H298.601V397.79H230.201V405.75C230.201 405.75 229.771 408.45 233.041 408.45C236.171 408.45 307.561 408.45 307.561 408.45V421.68H230.341C230.341 421.68 215.411 420.4 215.411 407.17V374.32C215.411 374.32 213.701 359.53 230.631 359.53L307.711 359.39V372.47C307.711 372.47 238.881 372.47 233.051 372.47C233.051 372.47 230.211 372.75 230.211 375.31C230.211 377.87 230.211 377.87 230.211 377.87V383.98L232.901 384.28Z" fill="black"/>
<path d="M112.59 359.11H126.96V384.57H188.25V359.25H203.32V422.54H188.68V398.08H126.96V422.11H112.45L112.59 359.11Z" fill="black"/>
<path d="M319.081 359.25H398.011H401.001C401.001 359.25 411.101 362.95 411.101 369.35C411.101 375.61 411.101 384.14 411.101 384.14C411.101 384.14 411.951 394.66 400.581 394.66C389.201 394.66 388.071 394.66 388.071 394.66L414.241 422.39H395.331L371.151 394.52H334.321V422.25H319.221L319.081 359.25ZM333.871 383.86H395.161C395.161 383.86 398.291 383.43 398.291 380.73C398.291 378.03 398.291 376.46 398.291 376.46C398.291 376.46 399.001 373.47 395.301 373.47H333.721L333.871 383.86Z" fill="black"/>
<path d="M414.36 359.11H436.54L470.11 388.55L503.67 359.11H524L478.5 400.78V422.11H461.72V400.5L414.36 359.11Z" fill="black"/>
<path d="M257.65 174.53L153.27 298.39L118.57 309.91L241.29 164L257.65 174.53Z" fill="black"/>
<path d="M257.65 174.53L361.88 298.39L396.73 309.91L274 164L257.65 174.53Z" fill="black"/>
<path d="M257.65 174.53L274 164H241.29L257.65 174.53Z" fill="black"/>
<path d="M181.71 189.17L198.35 165.14L181.71 178.22V189.17Z" fill="black"/>
<path d="M165.5 274.64L140.76 283.6C22.4302 265.68 30.5402 227.57 30.5402 227.57C30.2602 178.37 198.35 165.14 198.35 165.14L181.71 178.37C181.71 178.37 44.6202 198.14 48.6002 227.43C52.5802 256.58 165.5 274.64 165.5 274.64Z" fill="black"/>
<path d="M181.85 178.22V189.17C181.85 189.17 66.9502 197.7 66.9502 226.71C66.9502 255.72 158.11 263.12 158.11 263.12L165.5 274.64C165.5 274.64 48.6002 260.42 48.6002 227.28C48.4602 194.01 181.85 178.22 181.85 178.22Z" fill="black"/>
<path d="M118.57 309.91H165.21L153.27 298.39L118.57 309.91Z" fill="black"/>
<path d="M257.65 174.53V197.28L165.21 309.91L153.27 298.39L257.65 174.53Z" fill="black"/>
<path d="M257.65 174.53V197.28L350.22 309.91L362.03 298.39L257.65 174.53Z" fill="black"/>
<path d="M396.73 309.91H350.08L362.03 298.39L396.73 309.91Z" fill="black"/>
<path d="M333.73 189.17L317.09 165.14L333.59 178.22L333.73 189.17Z" fill="black"/>
<path d="M349.94 274.64L374.68 283.6C493 265.68 484.75 227.43 484.75 227.43C485.03 178.23 316.94 165 316.94 165L333.58 178.23C333.58 178.23 470.67 198 466.69 227.29C462.71 256.58 349.94 274.64 349.94 274.64Z" fill="black"/>
<path d="M333.59 178.22V189.17C333.59 189.17 448.49 197.7 448.49 226.71C448.49 255.72 357.33 263.12 357.33 263.12L349.94 274.64C349.94 274.64 466.84 260.42 466.84 227.28C466.83 194.01 333.59 178.22 333.59 178.22Z" fill="black"/>
<path d="M294.48 268.95L310.55 290.71L296.9 279.19L294.48 268.95Z" fill="black"/>
<path d="M178.58 276.35L199.63 267.82C199.63 267.82 278.7 271.09 294.48 268.96L296.9 279.2C296.9 279.19 263.9 285.45 178.58 276.35Z" fill="black"/>
<path d="M296.9 279.19L310.41 290.71C310.41 290.71 236.04 295.69 182.28 288.86L178.58 276.35C178.58 276.35 251.67 283.03 296.9 279.19Z" fill="black"/>
</g>
<defs>
<clipPath id="clip0_6_24">
<rect width="512" height="512" fill="white" transform="translate(0 0.5)"/>
</clipPath>
</defs>
</svg>
