<svg width="2054" height="789" viewBox="0 0 2054 789" fill="none" xmlns="http://www.w3.org/2000/svg">
<path fill-rule="evenodd" clip-rule="evenodd" d="M554.122 78.0507C1007.83 78.0507 1644.23 119.295 1944.74 243.039C1974.21 254.829 1994.83 263.661 1994.83 284.283C1994.83 313.737 1932.96 331.415 1876.99 349.093C1653.08 419.817 1255.32 502.292 669.034 543.562L129.868 1.45133C76.835 1.45133 32.647 4.40847 0.235596 7.33964L560.024 567.128L406.812 788.094C1311.31 643.727 1720.84 502.305 1903.51 419.817C1941.81 399.195 2053.75 352.037 2053.75 284.283C2053.75 243.026 2015.45 219.46 1968.33 198.838C1779.76 119.295 1467.45 66.2483 1158.1 39.7381C836.967 7.32668 409.756 -1.50576 174.056 1.43837L677.867 505.249C775.088 499.348 869.365 490.502 957.754 481.67L554.122 78.0507Z" fill="black"/>
</svg>
