<svg width="512" height="513" viewBox="0 0 512 513" fill="none" xmlns="http://www.w3.org/2000/svg">
<g clip-path="url(#clip0_6_69)">
<path d="M79.4047 280.69H52.1422C52.0047 280.14 52.0047 279.44 52.1422 278.752C59.8922 278.34 61.5547 277.64 61.5547 272.39V237.652C61.5547 234.327 60.4422 233.915 56.9922 233.915H53.8047C53.6672 232.952 53.6672 232.527 53.9422 232.115C54.7672 231.152 57.9547 231.002 63.7672 231.002H78.7172C98.5047 231.002 108.605 239.302 108.605 255.915C108.605 272.102 98.5047 280.69 79.4047 280.69ZM70.2672 234.465C69.9922 234.465 69.8547 234.602 69.8547 234.877V271.827C69.8547 276.815 71.9297 277.502 78.7047 277.502C89.0797 277.502 99.7422 275.152 99.7422 257.165C99.7422 242.502 91.9922 234.327 77.7422 234.327H70.2672" fill="white"/>
<path d="M168.655 280.69H145.13C144.992 280.14 144.992 279.44 145.13 278.752C150.667 278.615 152.605 278.202 153.292 277.227C153.705 276.677 153.43 275.977 153.292 275.29L148.592 264.215C148.455 264.077 148.317 263.94 148.18 263.94H129.217C129.08 263.94 128.805 264.077 128.805 264.215L125.755 272.24C124.642 274.865 124.367 276.39 124.93 277.227C125.48 278.052 126.73 278.19 128.53 278.19H134.48C134.617 279.152 134.617 279.715 134.342 280.127C134.067 280.402 133.655 280.54 133.092 280.54H112.48C112.342 279.99 112.342 279.152 112.48 278.602C118.017 277.915 118.842 277.215 120.78 272.515L135.305 238.052C137.792 232.377 138.63 231.552 141.667 231.552H144.155C144.43 233.077 144.98 234.315 146.092 236.677L163.117 275.427C163.942 277.502 165.055 278.327 168.93 278.327H170.18C170.317 279.29 170.317 279.852 170.042 280.265C169.767 280.552 169.355 280.69 168.655 280.69ZM138.492 240.827C138.355 240.827 138.08 240.965 138.08 241.102L130.467 260.202C130.467 260.34 130.467 260.477 130.467 260.615C130.605 260.752 130.742 260.752 130.88 260.752H146.517C146.655 260.752 146.792 260.615 146.93 260.615C147.067 260.477 147.067 260.34 146.93 260.202L138.905 241.102C138.767 240.977 138.63 240.827 138.492 240.827Z" fill="white"/>
<path d="M198.13 280.69H176.13C175.992 280.14 175.992 279.302 176.13 278.752C181.805 277.79 183.467 276.952 183.467 273.627V238.477C183.467 235.427 182.355 234.877 178.905 234.877H175.717C175.58 234.19 175.717 233.627 175.992 233.215C176.405 232.802 177.242 232.527 178.48 232.527H199.242C199.38 233.077 199.38 233.915 199.242 234.465C192.88 235.015 191.767 236.54 191.767 239.865V274.877C191.767 277.927 193.017 278.477 196.055 278.477H199.655C199.93 279.44 199.792 280.14 199.517 280.415C199.38 280.552 198.967 280.69 198.13 280.69Z" fill="white"/>
<path d="M246.43 280.965L226.23 241.115C226.092 240.977 225.955 240.84 225.817 240.84C225.817 240.84 225.817 240.84 225.68 240.84C225.542 240.84 225.267 241.115 225.267 241.252L222.917 274.327C222.78 275.577 222.78 276.54 223.467 277.227C224.292 278.19 226.092 278.477 231.08 278.477H234.68C234.817 279.44 234.817 280.14 234.542 280.415C234.267 280.69 233.855 280.827 233.155 280.827H209.355C209.217 280.14 209.217 279.44 209.355 278.89C217.242 278.477 218.205 276.815 218.355 273.49L221.405 238.89C221.542 238.065 221.542 237.09 220.855 236.54C220.03 235.577 218.23 235.152 213.792 235.015C213.655 234.327 213.792 233.765 214.067 233.352C214.48 232.802 215.317 232.527 216.555 232.527H231.08L249.48 267.677C249.617 267.815 249.755 267.952 249.892 267.952C250.03 267.952 250.167 267.815 250.305 267.677L267.192 232.527H283.942C284.08 233.215 284.08 233.777 283.942 234.465C280.067 234.74 278.13 235.29 277.305 236.265C276.617 236.952 276.755 237.927 276.755 238.752L280.217 274.59C280.492 277.352 282.017 277.64 287.28 278.327C287.417 279.44 287.28 279.99 287.005 280.402C286.73 280.677 286.317 280.815 285.617 280.815H260.017C259.88 280.127 259.88 279.565 260.017 278.877L263.617 278.74C267.08 278.602 269.292 278.19 270.255 276.94C271.08 275.977 271.08 274.727 270.942 273.34L267.617 241.24C267.617 241.102 267.48 240.827 267.205 240.827C267.205 240.827 267.205 240.827 267.067 240.827C266.93 240.827 266.792 240.965 266.655 241.102L248.942 278.19C248.092 280.552 247.667 280.965 246.43 280.965Z" fill="white"/>
<path d="M333.33 280.69H298.18C298.042 280.14 298.042 279.44 298.18 278.752C304.955 278.34 307.03 277.227 307.03 272.115V238.49C307.03 235.44 305.642 234.89 302.467 234.89H299.28C299.142 234.202 299.28 233.64 299.555 233.227C299.967 232.677 300.805 232.54 302.042 232.54H324.592C324.73 233.09 324.73 233.927 324.592 234.477C317.255 234.89 315.317 235.727 315.317 240.84V273.352C315.317 276.54 317.53 276.952 319.055 276.952H323.755C329.567 276.952 330.392 276.402 333.442 269.752L335.38 265.465C335.93 265.465 336.767 265.602 337.18 266.015C337.455 266.427 337.455 266.977 337.18 267.952C335.405 272.802 334.155 276.815 333.33 280.69Z" fill="white"/>
<path d="M385.08 280.69H345.23C345.092 280.002 345.092 279.44 345.23 278.752C352.842 278.34 354.505 277.64 354.505 272.39V238.49C354.505 235.44 353.392 234.89 350.08 234.89H346.892C346.755 234.065 346.892 233.502 347.167 233.227C347.58 232.815 348.417 232.54 349.655 232.54H384.255C384.392 235.44 384.805 238.765 385.367 242.09C385.505 243.052 385.367 243.89 385.092 244.302C384.817 244.715 384.267 244.852 383.567 244.852H383.43L382.605 241.802C381.355 237.24 379.555 235.852 375.267 235.852H363.505C363.23 235.852 363.092 235.99 363.092 236.265V255.227C363.092 255.502 363.23 255.64 363.505 255.64H371.255C373.742 255.64 374.305 254.677 374.58 252.59L374.992 249.265H375.405C376.092 249.265 376.517 249.402 376.655 249.677C376.93 249.952 377.067 250.64 377.067 251.615C376.792 256.177 376.792 261.165 377.067 265.865C376.792 265.865 376.517 266.002 376.242 266.002C375.967 266.002 375.692 266.002 375.417 265.865C374.455 260.327 373.48 259.365 371.13 259.365H363.38C363.105 259.365 362.967 259.502 362.967 259.777V272.79C362.967 275.69 363.792 276.94 369.055 276.94H375.417C381.23 276.94 382.055 276.39 385.105 269.74L387.042 265.452C387.592 265.452 388.43 265.59 388.705 266.002C388.98 266.415 388.98 266.965 388.705 267.94C387.155 272.802 385.917 276.815 385.08 280.69Z" fill="white"/>
<path d="M451.367 281.927C444.442 281.927 440.017 280.402 434.905 275.84C432.142 273.352 429.642 270.44 427.98 267.54C426.042 264.077 425.767 263.802 421.055 263.802H416.067C415.792 263.802 415.655 264.077 415.655 264.215V275.002C415.655 277.627 416.767 278.327 420.642 278.327H423.967C424.105 279.44 423.967 279.99 423.692 280.265C423.417 280.54 423.005 280.677 422.305 280.677H399.467C399.467 280.127 399.33 279.427 399.467 278.74C405.692 278.327 407.355 277.352 407.355 272.652V238.615C407.355 235.427 405.967 234.877 402.792 234.877H399.605C399.467 234.19 399.467 233.627 399.742 233.215C400.155 232.665 400.992 232.39 402.23 232.252C405.692 231.977 410.117 231.977 420.492 231.977C433.917 231.977 441.942 238.065 441.942 248.302C441.942 254.252 438.48 259.09 432.255 261.59C432.117 261.59 431.98 261.727 431.98 261.865C431.98 262.002 431.98 262.14 432.117 262.277C432.117 262.277 437.655 267.402 440.417 269.615C449.967 277.227 453.43 278.19 459.655 278.19C459.792 278.877 459.655 279.44 459.242 279.852C458.555 281.24 455.792 281.927 451.367 281.927ZM416.217 235.302C415.942 235.302 415.805 235.44 415.805 235.715V259.79C415.805 260.065 415.942 260.202 416.217 260.202H419.817C426.742 260.202 433.517 259.377 433.517 248.577C433.517 239.44 428.68 235.152 418.855 235.152H416.23" fill="white"/>
<path d="M56.9797 234.465H53.3797C52.8297 231.277 53.1047 230.59 63.7547 230.59H78.7047C99.8797 230.59 109.142 240.14 109.142 255.915C109.142 271.14 100.43 281.24 79.3922 281.24H51.7297C51.4547 280.552 51.4547 279.302 51.7297 278.34C59.6172 277.927 61.0047 277.377 61.0047 272.39V237.652C61.0047 234.877 60.3047 234.465 56.9797 234.465ZM99.3297 257.302C99.3297 243.19 91.9922 234.89 77.8797 234.89H70.2672V271.84C70.2672 276.265 71.9297 277.102 78.7047 277.102C91.3047 277.227 99.3297 273.077 99.3297 257.302Z" fill="black"/>
<path d="M144.58 231.153C144.855 232.815 145.267 234.053 146.517 236.553L163.542 275.303C164.367 277.24 165.205 277.928 168.942 277.928H170.605C171.017 280.003 170.605 281.253 168.667 281.253H144.855C144.58 280.565 144.58 279.315 144.855 278.353C152.88 278.078 153.705 277.528 152.88 275.59L148.18 264.515H129.217L126.167 272.54C124.505 276.828 124.505 277.94 128.517 277.94H134.88C135.43 280.015 134.88 281.265 133.08 281.265H112.042C111.767 280.578 111.767 279.328 112.042 278.365C117.717 277.678 118.405 277.115 120.342 272.415L134.867 237.953C137.355 232.278 138.192 231.178 141.642 231.178L144.58 231.153ZM146.517 260.34L138.492 241.24L130.88 260.34H146.517Z" fill="black"/>
<path d="M199.655 232.115C199.93 232.802 199.93 234.19 199.655 235.015C193.292 235.427 192.317 236.815 192.317 240.002V275.015C192.317 277.64 193.005 278.065 196.192 278.065H200.205C200.755 280.14 200.48 281.39 198.267 281.39H175.717C175.442 280.702 175.442 279.452 175.717 278.49C181.667 277.527 183.055 276.827 183.055 273.79V238.502C183.055 235.877 182.367 235.452 179.042 235.452H175.442C175.03 233.515 175.442 232.127 178.492 232.127L199.655 232.115Z" fill="black"/>
<path d="M284.342 232.115C284.617 233.078 284.617 234.053 284.342 235.015C277.567 235.428 277.005 236.678 277.28 238.753L280.88 274.59C281.155 276.94 282.267 277.215 287.942 277.915C288.217 279.99 287.942 281.24 285.867 281.24H259.855C259.58 280.278 259.58 279.303 259.855 278.34L263.867 278.065C270.092 277.653 271.067 276.815 270.642 273.228L267.317 241.128L249.605 278.215C248.217 280.84 247.667 281.265 246.005 281.265L225.667 241.14L223.317 274.215C223.042 277.115 223.042 277.815 230.93 277.815H234.942C235.492 279.89 235.217 281.14 233.142 281.14H209.067C208.792 280.178 208.792 279.203 209.067 278.24C217.092 277.828 217.78 276.303 218.067 273.253L221.117 238.653C221.392 236.303 220.842 235.465 213.642 235.328C213.23 233.665 213.642 232.003 216.692 232.003H231.505L249.905 267.428L266.93 232.003H284.367" fill="black"/>
<path d="M325.03 232.115C325.305 232.802 325.305 234.19 325.03 235.015C317.28 235.427 315.892 236.127 315.892 240.965V273.49C315.892 275.977 317.142 276.54 319.217 276.54H323.917C329.317 276.54 330.142 276.127 333.192 269.477L335.267 264.915C337.342 264.777 338.455 265.74 337.755 267.965C336.23 272.39 334.855 276.677 333.88 281.252H298.042C297.905 280.29 297.767 279.315 298.042 278.352C305.242 277.94 306.755 276.965 306.755 272.127V238.502C306.755 235.877 305.792 235.452 302.742 235.452H299.142C298.73 233.515 299.142 232.127 302.192 232.127L325.03 232.115Z" fill="black"/>
<mask id="mask0_6_69" style="mask-type:luminance" maskUnits="userSpaceOnUse" x="-64" y="207" width="641" height="99">
<path d="M576.034 305.496H-63.9663V207.596H576.034V305.496Z" fill="white"/>
</mask>
<g mask="url(#mask0_6_69)">
<path d="M384.721 232.058C384.996 235.383 385.409 238.833 385.834 242.021C386.246 244.233 385.284 245.621 382.934 245.346L381.971 242.021C380.721 237.596 379.209 236.346 375.196 236.346H363.434V255.296H371.184C373.396 255.296 373.809 254.608 374.084 252.671L374.634 248.933H375.459C376.984 248.933 377.671 249.483 377.534 251.696C377.259 256.396 377.259 261.383 377.534 266.221C376.846 266.496 375.734 266.633 374.909 266.221C373.946 260.546 372.971 259.858 371.034 259.858H363.284V272.733C363.284 275.358 363.971 276.471 368.959 276.471H375.321C380.721 276.471 381.546 276.058 384.596 269.408L386.671 264.846C388.746 264.708 389.859 265.671 389.159 267.896C387.634 272.046 386.259 276.608 385.284 281.183H344.734C344.459 280.221 344.459 279.246 344.734 278.283C352.484 277.871 353.871 277.321 353.871 272.333V238.296C353.871 235.671 353.184 235.246 349.859 235.246H346.259C345.984 233.308 346.259 231.921 349.446 231.921H384.734" fill="black"/>
<path d="M402.996 235.37H399.396C398.846 233.433 399.396 232.046 402.446 231.771C406.046 231.496 410.334 231.495 420.709 231.495C434.821 231.495 442.571 238.133 442.571 248.246C442.571 254.471 438.696 259.458 432.609 261.945C432.609 261.945 438.146 267.07 440.909 269.283C450.596 277.033 453.921 277.72 460.284 277.72C460.971 280.345 459.171 282.146 451.284 282.146C444.509 282.146 439.934 280.62 434.534 275.92C432.046 273.845 429.409 270.795 427.609 267.483C425.809 264.158 425.671 263.883 421.109 263.883H416.121V274.67C416.121 276.745 416.809 277.57 420.546 277.57H424.284C424.559 279.645 424.284 280.896 422.209 280.896H399.096C398.959 280.071 398.821 278.958 399.096 277.995C405.459 277.583 406.984 276.745 406.984 272.32V238.283C407.009 235.783 405.896 235.37 402.996 235.37ZM419.734 260.008C427.071 260.008 432.884 258.758 432.884 248.933C432.884 238.97 426.934 235.92 418.634 235.92H416.146V259.995H419.734" fill="black"/>
</g>
</g>
<defs>
<clipPath id="clip0_6_69">
<rect width="512" height="512" fill="white" transform="translate(0 0.5)"/>
</clipPath>
</defs>
</svg>
