<svg width="2501" height="1343" viewBox="0 0 2501 1343" fill="none" xmlns="http://www.w3.org/2000/svg">
<path fill-rule="evenodd" clip-rule="evenodd" d="M1050.97 761.808L1050.2 761.521C1049 761.392 1048.19 761.468 1047.02 761.425L1031.45 759.989C1028.32 759.459 1028.1 759.827 1025.6 758.643L1025.28 758.392C1024.47 757.788 1024.04 757.648 1023.23 757.139C1022.3 756.563 1021.83 756.34 1020.89 755.873L1020.53 755.599C1019.19 754.643 1018.36 754.199 1016.91 753.502L1016.58 753.225C1015.7 752.604 1015.16 752.421 1014.28 751.845C1013.4 751.27 1013.07 751.026 1012.1 750.466C1010.3 749.434 1009.24 748.434 1007.4 747.567L1007.09 747.301C1006.45 746.707 1006.79 747.06 1006.15 746.776L1005.9 746.535C1004.23 745.266 1002.56 744.285 1000.83 743.136C998.988 741.906 997.385 740.729 995.509 739.656L995.22 739.41L982.45 730.163L982.166 729.91C981.1 728.948 980.043 728.043 978.876 727.394L978.605 727.148C977.636 726.26 977.273 726.077 976.342 725.306L971.983 721.753C970.953 720.881 971.044 720.591 969.801 719.876L969.112 719.242C968.419 718.603 968.077 718.152 967.425 717.606C966.621 716.929 966.476 717.023 965.639 716.229C964.455 715.1 963.674 713.946 962.276 713.153L961.992 712.851L954.371 705.346C953.531 704.496 953.618 704.42 952.966 703.586C951.622 701.869 949.94 700.824 948.54 698.914C947.929 698.075 947.723 698.001 947.064 697.228L944.287 693.677C942.253 691.3 940.843 689.157 938.88 686.651L938.258 685.926L937.726 685.069L937.467 684.77C937.203 684.229 937.518 684.491 936.929 683.882L936.676 683.603C936.283 682.876 935.842 682.176 935.357 681.508L935.093 681.211C934.857 680.724 935.098 680.902 934.591 680.321L934.302 679.986C933.916 679.192 933.947 679.126 933.384 678.343L933.115 678.021C932.719 677.194 932.78 677.174 932.189 676.364L931.928 676.009C931.479 675.109 931.248 674.49 930.647 673.597L930.345 673.217L930.228 672.804L929.949 672.459L927.071 666.476L926.787 666.072C926.553 665.111 926.665 665.497 926.247 664.5L925.993 664.234C925.638 663.349 925.476 662.745 925.047 661.728L924.809 661.385C924.418 659.603 924.06 659.369 923.492 657.903C923.226 657.216 923.193 656.78 922.977 656.049C922.658 654.966 922.559 654.984 922.318 653.817L922.039 653.452C921.727 652.065 921.362 651.078 921.126 649.468L920.852 649.087C920.809 647.129 920.205 646.308 919.959 644.324L919.665 642.853L919.533 641.555L919.269 640.439C919.269 635.95 918.077 634.435 918.465 624.927C918.534 623.223 918.813 623.317 918.874 621.381C918.988 617.772 920.441 610.973 920.456 610.285L920.723 609.91L920.849 608.698L921.111 608.327C921.735 604.422 923.282 601.809 924.017 598.365L924.296 598.043C924.74 596.856 924.986 595.88 925.468 594.746C926.036 593.424 926.457 593.153 926.787 591.677L927.043 591.317L927.971 589.217L928.217 588.945L929.949 585.293L930.211 584.989L930.345 584.522L930.601 584.198C931.319 583.226 931.464 582.734 931.928 581.71L932.169 581.431L932.323 580.999L932.61 580.637C933.333 579.594 933.792 578.882 934.302 577.763L934.555 577.474C935.603 576.064 936.328 574.836 937.307 573.36C938.388 571.737 939.318 570.647 940.234 569.077L940.503 568.772L948.543 558.815L949.177 558.09C954.69 552.142 962.992 543.575 969.609 538.02C970.415 537.343 970.539 537.429 971.387 536.633L974.973 533.493C975.784 532.854 976.193 532.575 977.022 531.88L977.352 531.588L984.77 525.884C985.318 525.517 985.77 525.271 986.191 524.933C986.754 524.49 986.825 524.302 987.459 523.83L997.987 516.412L998.281 516.158C999.721 515.499 999.31 515.633 1000.52 514.738C1001.37 514.111 1001.89 513.868 1002.73 513.272L1003.05 512.995C1003.53 512.752 1003.32 513.031 1003.92 512.475L1004.25 512.204L1005.11 511.684L1005.42 511.413C1006.84 510.746 1008.12 509.866 1009.46 508.925L1009.78 508.646C1010.67 508.113 1011.73 507.58 1012.62 506.929L1012.92 506.667C1013.95 506.191 1015.61 505.272 1016.58 504.537L1016.87 504.293C1017.35 504.063 1017.19 504.288 1017.77 503.796L1018.11 503.502C1018.91 503.109 1019.42 502.893 1020.22 502.396C1021.08 501.856 1021.68 501.605 1022.51 500.989L1022.79 500.735C1023.65 500.248 1023.46 500.256 1024.49 499.809L1024.81 499.546C1025.81 499.071 1026.24 498.633 1027.18 498.285C1028 497.981 1029.42 498.07 1030.73 497.877C1032.35 497.636 1035.7 497.23 1037.54 497.172C1039.4 497.113 1039.26 496.88 1040.71 496.776L1080.66 493.9L1082.24 493.613L1101.63 492.688L1103.55 492.426L1120.61 491.633C1122.29 491.643 1124.95 491.787 1126.52 491.607L1149.89 490.844C1156.81 490.844 1205.45 490.491 1209.7 491.153C1213.11 491.681 1217.96 490.862 1221.45 491.27C1224.72 491.653 1229.32 491.617 1232.59 492L1255.81 492.908C1259.32 493.456 1263.4 493.312 1267.37 493.611C1271.63 493.933 1273.09 494.306 1278.46 494.389C1282.05 494.443 1285.83 495.196 1289.97 495.196L1291.1 495.485C1297.61 496.155 1312.85 496.829 1318.56 497.803C1320.29 498.1 1321.17 497.879 1322.61 498.501C1323.66 498.955 1323.29 498.889 1324.09 499.386C1324.84 499.85 1325.27 499.997 1325.96 500.337L1326.31 500.631C1327.36 501.341 1328.87 502.204 1329.95 502.711L1330.26 502.975C1331.26 503.697 1332.87 504.595 1333.91 505.085L1334.22 505.341C1335.71 506.437 1337.12 507.175 1338.65 508.176C1339.48 508.722 1340.04 508.963 1340.87 509.508C1341.93 510.205 1342.23 510.459 1343.38 511.017L1343.71 511.301C1344.89 512.125 1345.82 512.729 1346.99 513.391L1347.27 513.662C1348.08 514.236 1348.6 514.54 1349.37 514.974L1349.65 515.235C1350.78 516.062 1351.79 516.706 1352.91 517.347L1353.21 517.642L1354.03 518.139L1354.39 518.443C1355.18 519.082 1355.46 519.242 1356.3 519.797C1357.25 520.432 1357.57 520.799 1358.48 521.301L1358.75 521.55L1384.17 541.873L1384.46 542.152C1384.53 542.228 1384.64 542.446 1384.67 542.375L1391.29 548.596L1391.97 549.291L1398.08 555.718L1399.49 557.215L1407.11 566.396L1407.4 566.713C1407.99 567.71 1408.28 568.237 1409.15 569.165L1409.78 569.87C1410.34 570.837 1410.69 571.42 1411.47 572.331L1411.75 572.653L1412.27 573.515L1412.54 573.814C1413.23 575.303 1413.29 575.103 1414.13 576.279L1418.6 583.802L1418.87 584.142L1421.8 590.13L1422.04 590.416L1422.56 591.712L1422.83 592.08C1423.15 592.778 1423.33 593.465 1423.56 594.145C1423.94 595.21 1424.11 595.347 1424.54 596.334C1425.24 597.957 1425.49 599.123 1426.1 600.813L1426.39 601.168C1426.75 602.798 1427.31 604.127 1427.69 605.953L1427.97 606.309L1429.45 613.172C1429.72 614.714 1429.78 615.388 1430.05 616.928C1430.26 618.105 1430.28 619.383 1430.46 620.986L1430.74 622.584V634.874L1430.46 636.809C1430.28 638.427 1430.26 639.675 1430.05 640.867C1429.79 642.379 1429.55 643.193 1429.55 644.694L1429.28 645.116C1429.03 647.2 1428.51 648.149 1428.37 649.894L1428.1 650.256C1427.59 652.539 1426.86 654.533 1426.39 656.592L1426.09 656.983C1425.57 658.489 1425.16 660.029 1424.54 661.462C1423.94 662.862 1423.17 664.208 1422.83 665.697L1422.53 666.08L1422.43 666.526L1422.18 666.871L1422.04 667.343L1421.76 667.663L1420.06 671.335L1419.81 671.619L1419.27 672.857L1418.99 673.202C1418.38 674.072 1418.33 674.376 1417.82 675.314C1417.28 676.296 1417 676.578 1416.5 677.551C1415.07 680.329 1412.68 683.476 1410.88 686.177C1409.91 687.638 1408.92 688.871 1407.86 690.273C1403.94 695.48 1401.62 697.605 1398.37 701.755L1372.69 725.512C1371.44 726.686 1370.14 727.635 1368.74 728.69C1367.24 729.826 1366.12 730.637 1364.68 731.85L1364.36 732.141C1363.81 732.42 1364.14 732.035 1363.49 732.699L1362.79 733.326C1361.51 734.077 1360.96 734.619 1359.7 735.469C1358.45 736.316 1357.56 736.902 1356.37 737.863L1355.65 738.469L1348.3 743.451C1347.72 743.841 1347.36 743.963 1346.8 744.318L1340.82 748.229C1339.55 748.957 1338.95 749.461 1337.65 750.207L1331.45 754.037L1331.14 754.293C1330.28 754.699 1330.31 754.605 1329.48 755.229L1329.19 755.477C1328.32 755.873 1328.33 755.799 1327.5 756.401L1327.19 756.667C1326.11 757.172 1324.58 758.034 1323.54 758.747L1323.19 759.038C1319.17 760.857 1291.99 761.927 1285.99 762.63C1261.9 764.312 1237.79 765.621 1213.66 766.556C1206.4 766.556 1200.39 766.951 1193 766.951C1155.91 766.726 1122.37 765.605 1085.82 764.167C1083.66 764.083 1082.68 764.139 1080.97 763.872L1050.97 761.808ZM1151.73 495.29C1151.97 495.315 1152.95 495.1 1153.84 495.1L1186.11 495.774C1207.3 495.744 1226.95 496.614 1247.98 498.247C1265.89 499.637 1285.93 499.236 1303.02 503.304C1298.65 503.388 1288.22 502.878 1283.71 503.568C1262.62 501.887 1146.28 491.805 1069.37 503.573L1061.96 504.41L1045.11 501.455C1052.66 501.658 1076.56 498.518 1084.18 497.872C1088.19 497.534 1092.79 497.441 1097.05 496.946L1123.76 495.749C1133.3 495.597 1142.15 495.305 1151.73 495.29ZM1426.88 623.078L1413.97 622.918C1413.42 604.995 1404.6 590.328 1395.48 576.376L1372.06 575.554C1362.91 554.131 1314.36 512.716 1297.86 506.297C1304.15 505.757 1311.38 503.895 1317.58 502.574C1326.5 507.748 1336.48 513.49 1344.75 519.161L1360.34 529.986L1366.82 534.974L1370.28 537.576L1371.39 536.339C1364.81 529.643 1326.19 502.224 1318.79 501.471C1310.24 500.601 1300.9 499.614 1292.29 499.173C1283.35 498.716 1274.02 497.529 1265 497.222C1256.04 496.918 1246.52 496.261 1237.62 495.729C1209.03 494.017 1180 493.233 1151.28 493.149C1145.35 493.377 1122.91 494.181 1119.32 494.379C1090.69 495.967 1061 498.285 1032.53 501.268C1028.5 501.689 1028.88 501.549 1026.11 503.15C1004.59 515.585 985.262 529.438 967.108 545.408C961.744 550.126 957.285 555.368 952.433 560.398L952.509 560.476L953.975 561.531C955.593 559.731 953.392 562.17 956.278 559.112L971.338 544.493C972.841 543.086 974.394 541.734 975.995 540.44L995.27 525.638C1001.58 520.832 1008.89 517.091 1015.36 512.475L1020.87 508.978L1030.05 503.703C1031.69 502.767 1048.94 505.275 1051.01 506.256C1038.31 513.277 1006.65 539.283 999.518 548.941C989.404 559.86 986.87 559.786 978.594 572.308C978.052 573.51 977.486 574.712 977.194 575.595L954.216 576.449C944.49 591.563 940.406 606.149 934.801 622.913C934.058 623.007 922.949 622.703 922.729 623.433C922.708 623.509 922.602 623.486 922.539 623.519C922.333 625.804 922.284 628.101 922.394 630.393C924.631 631.59 933.759 630.618 936.914 631.011L942.808 655.453C945.991 663.445 949.828 670.901 954.046 677.458L977.025 678.312C977.319 679.195 977.882 680.397 978.425 681.599C986.7 694.121 989.406 697.841 999.518 708.762C1006.65 718.418 1038.31 744.422 1051.01 751.442C1048.94 752.424 1031.69 754.932 1030.05 753.996L1020.87 748.721L1015.36 745.226C1008.89 740.607 1001.58 736.866 995.268 732.063L975.992 717.261C974.392 715.967 972.84 714.615 971.338 713.208L956.278 698.587C953.392 695.531 955.593 697.968 953.975 696.167L952.512 697.223L952.436 697.301C957.285 702.331 961.744 707.573 967.108 712.29C985.26 728.264 1004.59 742.116 1026.11 754.549C1028.88 756.149 1028.5 756.01 1032.53 756.434C1042.04 757.43 1051.39 759.492 1061.08 760.337C1080.41 762.023 1100.24 762.264 1119.32 763.322C1122.91 763.52 1145.46 764.395 1151.23 764.004C1179.96 763.92 1209.32 764.633 1237.91 762.921C1264.38 761.336 1292.32 758.922 1318.79 756.231C1326.19 755.477 1364.81 728.058 1371.39 721.36L1370.28 720.125L1366.82 722.727L1360.34 727.716L1344.75 738.54C1336.48 744.209 1326.5 749.951 1317.58 755.125C1311.38 753.806 1304.15 751.944 1297.86 751.404C1314.36 744.982 1362.74 699.777 1371.89 678.353L1395.32 677.531C1404.43 663.577 1411.35 648.935 1411.91 631.011L1426.97 630.824C1427.14 628.338 1427.1 625.744 1426.88 623.078ZM1217.44 761.899C1199.1 762.102 1168.51 761.95 1151.73 762.409C1142.15 762.394 1133.3 762.102 1123.76 761.952L1097.05 760.755C1092.79 760.261 1088.19 760.167 1084.18 759.827C1079.72 759.44 1075.26 759.133 1070.78 758.906C1064.94 758.627 1048.63 757.461 1045.79 756.583C1045.06 756.357 1045.5 756.451 1045.11 756.243L1061.96 753.291L1069.37 754.126C1146.28 765.894 1262.62 755.812 1283.71 754.133C1288.22 754.82 1302.45 755.835 1306.82 755.919C1298.21 757.968 1287.02 757.765 1278.05 758.526C1268.03 759.37 1258.06 759.718 1247.98 760.502C1237.92 761.28 1227.38 761.171 1217.44 761.899Z" fill="black"/>
<path d="M1043.05 679.065C1043.03 679.047 1043.02 679.028 1043 679.01L1043.05 679.065ZM1042.76 678.685C1042.81 678.76 1042.87 678.834 1042.92 678.908L1042.7 678.622L1042.76 678.685ZM995.154 640.882L1018.4 640.806C1022.72 640.791 1026.86 638.967 1027.65 634.367C1028.31 630.58 1028.21 622.079 1025.94 619.664C1024.19 617.808 1021.46 616.722 1017.91 616.633L995.156 616.821L995.154 640.882ZM1090.26 633.35L1068.48 633.274L1079.37 613.98L1090.26 633.35Z" fill="black"/>
<path fill-rule="evenodd" clip-rule="evenodd" d="M1042.76 678.685C1042.23 677.946 1041.82 677.132 1041.53 676.271C1041.38 675.921 1041.33 675.677 1041.29 675.5C1041.2 675.079 1041.19 675.035 1040.24 674.835C1038.6 674.488 1028.33 674.513 1023.34 674.526C1022.21 674.526 1021.36 674.531 1020.93 674.526L970.286 673.415C969.421 673.392 969.127 673.369 968.721 673.339C968.51 673.324 968.272 673.306 967.909 673.285C967.123 673.237 966.253 673.222 965.398 673.209C964.445 673.206 963.493 673.168 962.543 673.095C961.051 672.951 959.509 672.943 957.977 672.938L957.014 672.933C956.588 671.901 955.477 669.966 954.655 668.53C954.455 668.183 954.272 667.863 954.122 667.594C950.82 661.756 948.046 655.712 945.966 649.521C944.566 645.351 943.242 640.261 942.798 635.541C942.291 630.147 942.339 623.294 943.173 618.891L939.894 620.078C939.838 616.484 940.985 612.261 942.037 608.789L949.993 589.881C950.501 588.907 951.256 587.665 952.03 586.394C953.171 584.512 954.353 582.569 954.83 581.337L1037.15 579.5C1038.27 579.145 1039.74 576.888 1040.96 575.006C1041.55 574.114 1042.07 573.307 1042.48 572.825C1050.98 562.812 1060.13 553.943 1071.18 546.945L1074.48 544.683L1074.62 544.617L1074.76 544.551L1085.05 538.611L1085.3 538.467L1085.32 538.454L1085.81 538.142C1086.46 537.741 1087.13 537.366 1087.77 537.029C1111.83 524.492 1143.37 517.269 1174.41 517.289C1206.24 517.309 1240.74 524.72 1265.13 538.883C1266.35 539.593 1267.53 540.257 1268.63 540.876C1270.41 541.878 1272 542.771 1273.29 543.59L1295.96 561.037C1296.31 561.384 1296.57 561.617 1296.83 561.851C1297.07 562.059 1297.31 562.269 1297.61 562.563L1298.31 563.238C1298.68 563.598 1299.03 563.925 1299.27 564.184C1299.48 564.412 1299.66 564.633 1299.85 564.861C1300.1 565.166 1300.35 565.473 1300.69 565.807C1303.18 568.232 1304.42 569.764 1306.73 572.612C1307.88 574.045 1308.59 574.971 1309.48 576.188C1309.69 576.475 1309.91 576.835 1310.14 577.213C1310.77 578.227 1311.48 579.384 1312.27 579.635C1320.88 579.539 1329.51 579.757 1338.14 579.977C1343.3 580.109 1348.46 580.239 1353.61 580.302C1363.31 580.424 1388.34 580.796 1394.63 581.438C1395.65 583.381 1396.7 585.225 1397.74 587.064C1399.88 590.835 1402.01 594.581 1403.87 599.111C1406 604.335 1409.48 613.537 1409.66 620.07L1406.5 619.69C1409.22 637.875 1402.83 655.42 1393.98 669.968L1393.61 670.541C1393.11 671.325 1392.79 671.83 1392.62 673.001C1389.24 672.829 1385.58 673.037 1382 673.242C1380.44 673.331 1378.89 673.42 1377.4 673.471C1375.52 673.542 1373.68 673.572 1371.8 673.582L1364.3 673.742C1356.88 673.93 1349.44 674.036 1342 674.148C1330.95 674.308 1319.89 674.47 1308.9 674.883C1307.69 676.299 1306.63 677.808 1305.58 679.322C1304.67 680.623 1303.75 681.929 1302.73 683.182L1285.97 700.048L1279 705.316C1271.81 710.832 1263.98 714.859 1255.83 718.92C1234.07 729.757 1204.67 736.395 1175.99 736.527C1150.73 736.646 1126.89 732.606 1103.9 723.452L1097.49 720.774C1096.85 720.525 1096.64 720.409 1096.27 720.211C1096 720.059 1095.72 719.911 1095.44 719.77C1094.57 719.336 1093.79 718.971 1092.93 718.573C1092.39 718.323 1091.86 718.071 1091.32 717.817L1087.75 715.978L1087.49 715.849L1073.24 707.256L1073.01 707.088L1072.31 706.556C1072.22 706.494 1072.13 706.433 1072.04 706.373C1071.9 706.274 1071.73 706.16 1071.58 706.044L1069.66 704.76C1066.17 702.564 1058.83 696.162 1055.81 693.017L1046.39 682.563L1046.22 682.335C1046.2 682.299 1046.16 682.259 1046.12 682.216L1046.04 682.127L1042.76 678.685ZM1095.31 541.794C1096.14 540.957 1092.38 542.509 1086.92 545.238C1082.38 547.508 1072.7 553.223 1068.4 556.248C1068.9 555.378 1069.9 554.62 1070.79 553.948C1070.92 553.846 1071.04 553.753 1071.17 553.656C1078.79 547.754 1086.82 543.724 1095.29 539.466L1096.63 538.791C1099.29 537.686 1101.95 536.557 1104.61 535.428H1104.61C1105.84 534.903 1107.07 534.381 1108.3 533.861C1124.39 527.723 1141.77 524.061 1159.36 522.823C1160.2 522.765 1161.12 522.722 1161.95 522.689C1162.69 522.656 1163.35 522.628 1163.79 522.592C1167.09 522.331 1184.45 521.365 1186.82 523.328L1185.07 523.318C1179.92 523.272 1168.18 523.166 1166.47 524.396C1207.14 540.653 1174.04 574.469 1172.46 574.613C1171.56 574.628 1164.57 574.646 1155.05 574.671H1155.02C1132.11 574.735 1094.67 574.834 1092.54 575.037C1091.51 574.377 1085.19 558.008 1095.31 541.794ZM1095.84 582.907C1095.84 582.907 1059.82 582.853 1044.44 582.917L1046.24 580.091H1305.37L1305.57 580.386C1306.17 581.248 1306.67 581.963 1307.22 582.909L1165.99 582.917C1155.46 591.903 1111.35 605.096 1095.84 582.907ZM1167.1 607.432H1108.95V616.542H1131.39V649.516H1144.48V616.542H1167.1L1167.1 607.432ZM1282 607.432H1296.25L1296.22 632.736C1296.2 647.761 1279.55 651.048 1267.9 651.124C1250.07 651.246 1240 646.285 1239.54 632.736L1239.58 607.432H1254.07L1253.9 634.354C1254.72 636.464 1255.41 637.436 1256.98 638.417C1262.72 642.019 1274.66 641.362 1279.07 638.455C1280.49 637.517 1282 635.691 1282 634.354V607.432ZM1330.26 607.49L1309.68 607.432V649.516H1322.64L1322.64 616.542L1346.46 649.513H1365.78V607.488L1353.4 607.498V640.931L1330.26 607.49ZM1185.68 618.914C1186.55 621.719 1200.26 623.109 1207.82 623.874C1210.02 624.098 1211.7 624.268 1212.4 624.407C1223.54 626.601 1229.43 630.862 1227.53 641.651C1226.04 650.178 1211.99 650.738 1204.88 651.022L1204.47 651.04C1190.74 651.596 1181.52 649.721 1176.67 648.737C1175.99 648.598 1175.32 648.466 1174.65 648.342V638.775L1176.82 639.165C1187.07 641.012 1210.41 645.222 1215.18 640.345C1222.07 633.307 1202.33 632.026 1193.54 631.453C1191.75 631.336 1190.42 631.25 1189.85 631.151C1180.31 629.49 1173.14 626.908 1174.65 615.388C1177.15 601.353 1216.6 604.906 1224.96 608.657L1224.91 617.651C1221.2 616.859 1183.04 610.432 1185.68 618.911V618.914ZM981.676 607.432C984.681 607.541 991.377 607.498 998.694 607.452C1010.53 607.376 1024.01 607.293 1026.16 607.815C1029.52 608.632 1034.14 610.364 1036.56 612.768C1040.8 616.984 1041.32 620.509 1041.47 628.011C1041.89 649.716 1028.83 649.62 1011.02 649.493C1008.23 649.473 1005.32 649.452 1002.32 649.513H982.209L981.676 607.432ZM1098.01 649.513H1112.38L1087.35 607.432H1070.79L1045.83 649.513H1059.66L1064.39 640.586L1093.81 640.883L1098.01 649.513ZM1051.32 678.173L1049.53 675.347C1106.73 675.588 1158.79 675.512 1212.75 675.436H1212.76C1240.79 675.396 1269.33 675.353 1299.37 675.355C1298.81 676.306 1298.32 677.019 1297.71 677.886L1297.51 678.173H1051.32Z" fill="black"/>
</svg>
