<svg width="513" height="513" viewBox="0 0 513 513" fill="none" xmlns="http://www.w3.org/2000/svg">
<g clip-path="url(#clip0_6_100)">
<path d="M53.5849 210.069C51.6249 209.789 49.3749 209.649 47.2749 209.649H47.1349C45.0349 209.649 42.9249 209.789 40.8249 210.069C17.8149 213.159 0.00488281 232.929 0.00488281 256.639C0.00488281 280.489 17.8149 300.269 40.8249 303.209C42.9249 303.489 45.0349 303.629 47.1349 303.629H47.2749C49.3749 303.629 51.4849 303.489 53.5849 303.209C76.5849 299.979 94.4049 280.349 94.4049 256.639C94.2649 232.929 76.5949 213.159 53.5849 210.069ZM40.8249 215.959C42.9249 215.679 45.0349 215.539 47.1349 215.539H47.2749C49.3749 215.539 51.4849 215.679 53.5849 216.099C67.0549 218.199 78.4149 226.899 84.3049 238.679C82.9049 245.549 78.1349 252.429 73.2249 257.059C73.2249 242.469 65.3649 230.129 53.7249 223.669C51.7649 222.549 49.6549 221.709 47.4149 220.859C45.3149 220.159 43.2049 219.599 40.9649 219.319C37.5949 218.759 34.2349 218.759 30.7249 219.039C33.8149 217.499 37.1749 216.519 40.8249 215.959ZM59.4849 257.059C59.4849 260.009 59.3449 262.809 58.6449 265.619C57.8049 269.549 55.8349 273.479 53.4549 276.979C51.6349 279.789 49.3849 282.309 47.2849 284.549C44.7649 282.309 42.6549 279.639 40.8349 276.689C37.1849 270.799 35.0849 263.929 35.0849 256.489C35.0849 253.539 35.3649 250.739 36.0649 247.929C36.9049 243.859 38.5849 240.069 40.8349 236.569C42.6549 233.759 44.9049 231.239 47.2849 228.849C49.6649 231.229 51.7749 233.759 53.5949 236.569C57.2349 242.609 59.4849 249.629 59.4849 257.059ZM5.75488 256.639C5.75488 240.089 15.7149 225.779 29.8849 219.189C33.8149 220.169 37.4549 221.859 40.8249 223.959C42.9249 225.219 44.8949 226.769 46.7149 228.449C44.7549 228.449 42.7849 228.729 40.8249 229.009C19.5049 232.519 5.47488 253.139 9.68488 274.179C7.29488 268.839 5.75488 262.949 5.75488 256.639ZM53.5849 297.319C51.4849 297.599 49.3749 297.739 47.2749 297.879H47.1349C45.0349 297.879 42.9249 297.739 40.8249 297.319C27.4949 295.219 16.1349 286.799 10.2449 275.159C11.9249 267.869 15.9949 261.409 21.4649 256.499C21.4649 271.089 29.1849 283.429 40.8249 289.889C42.9249 291.009 45.0349 291.989 47.2749 292.699C49.2349 293.399 51.3449 293.959 53.5849 294.239C56.8149 294.659 60.1749 294.799 63.6849 294.519C60.4649 295.779 57.0949 296.759 53.5849 297.319ZM64.3949 294.089C60.4649 293.109 56.9649 291.569 53.5949 289.459C51.4949 288.199 49.5249 286.649 47.7049 284.969C48.9649 284.969 51.0749 284.829 53.5949 284.409C65.6549 282.169 88.1049 272.629 85.0149 240.219C87.2549 245.269 88.5249 250.879 88.5249 256.629C88.5149 273.189 78.5549 287.499 64.3949 294.089Z" fill="black"/>
<path d="M492.925 237.279H477.495H456.595V262.389H477.495H497.135V241.069C496.995 239.389 494.755 237.279 492.925 237.279ZM484.375 255.939H477.365H469.085V244.999H477.365H484.375V255.939Z" fill="#231F20"/>
<path d="M498.535 235.179V227.459H477.355H455.615V235.179H477.355H498.535Z" fill="#231F20"/>
<path d="M507.794 217.219H477.494H456.314V225.079H477.494H500.784V261.969C500.784 262.389 500.504 262.529 499.944 262.529H497.844V268.839H508.364C510.604 268.839 511.594 266.879 511.734 264.629V220.019C511.584 218.629 509.484 217.219 507.794 217.219Z" fill="#231F20"/>
<path d="M431.344 217.079H404.274H398.524V224.229H404.274H427.844L436.124 241.199C437.244 243.299 439.074 245.129 441.034 245.129H448.754L436.974 220.019C435.974 218.199 433.734 217.079 431.344 217.079Z" fill="#231F20"/>
<path d="M431.485 243.589H420.125L428.265 260.559L407.925 260.699L422.225 233.639H410.725L404.275 244.439L393.055 263.379C391.935 265.619 393.475 269.269 396.285 269.269H404.285H442.155C444.115 269.269 444.965 267.449 443.835 265.199L431.485 243.589Z" fill="#231F20"/>
<path d="M404.275 235.599L410.025 226.199H404.275H398.105L386.455 245.839H398.245L404.275 235.599Z" fill="#231F20"/>
<path d="M231.455 226.479L220.515 226.619L216.725 234.049L212.935 226.759L202.135 226.899L211.255 244.289L201.295 264.209H209.715C210.695 264.209 211.535 263.509 211.815 262.949L216.585 254.249V254.389L221.635 263.089C221.915 263.649 222.615 264.069 223.455 264.069H232.015L221.915 244.149L231.455 226.479Z" fill="#231F20"/>
<path d="M245.765 261.829C245.485 261.549 245.205 261.269 245.205 260.849L245.485 223.259C245.205 220.309 243.805 218.209 240.155 217.929H216.725H191.055L188.385 268.289H196.385C197.785 268.289 199.475 266.469 199.895 265.059C200.455 251.309 201.015 237.709 201.715 223.819H216.725H232.575L232.995 265.479C233.135 267.299 234.115 268.289 235.805 268.569L248.715 268.429L248.575 261.839H245.765V261.829Z" fill="#231F20"/>
<path d="M311.135 243.589C311.975 241.209 310.295 238.819 307.905 238.819C296.405 238.819 285.745 238.819 274.235 238.819V245.689H298.365L287.845 263.079C287.005 266.029 287.985 267.989 290.795 268.829H314.365L314.505 261.399L300.475 261.539L311.135 243.589Z" fill="#231F20"/>
<path d="M307.905 229.569H275.225V235.599H307.905V229.569Z" fill="#231F20"/>
<path d="M256.005 268.699L266.245 268.979L272.695 247.519H262.315L256.005 268.699Z" fill="#231F20"/>
<path d="M284.345 224.939H309.875L310.155 218.909H287.145L287.845 217.219H276.765L271.435 228.159H282.515L284.345 224.939Z" fill="#231F20"/>
<path d="M256.425 232.789L260.635 245.139L271.295 244.999L266.385 232.789H256.425Z" fill="#231F20"/>
<path d="M270.315 230.409L265.405 217.919H255.585L259.795 230.549L270.315 230.409Z" fill="#231F20"/>
<path d="M359.384 253.549V248.359H379.444V240.499H359.664L359.804 231.239H347.744V240.359H340.174L348.034 228.999H379.454V221.139H353.224L356.314 217.069H342.004L339.194 221.139H320.814V228.999H334.144L323.904 243.589C322.644 245.409 323.624 248.359 328.114 248.359H347.334V253.409L320.824 253.269V261.129H347.334V269.129H359.254V261.269H380.154V253.549H359.384Z" fill="#231F20"/>
<path d="M170.015 250.189H161.455L169.455 267.299C169.595 267.579 169.735 267.859 170.015 267.999C170.715 268.699 171.555 269.259 172.685 269.539H181.665L173.385 250.179L170.015 250.189Z" fill="#231F20"/>
<path d="M156.975 248.359H170.025H178.445L178.305 240.499H170.025H157.115V230.539H146.035V240.359H137.055L146.735 227.739L170.025 227.879H178.585V221.149H170.025H151.225L154.875 216.379H140.005L136.495 221.149H131.585H119.665V227.879H131.585H131.725L131.585 228.019L122.605 241.489C120.085 244.999 121.345 248.359 124.705 248.219H131.575H146.025L145.885 261.829H140.135V269.399H155.005C156.685 269.399 157.385 267.159 157.385 265.469L156.975 248.359Z" fill="#231F20"/>
<path d="M131.725 250.329H130.465L121.485 269.549H131.585H132.425C133.125 269.549 133.825 268.709 134.245 267.869L141.675 250.339H131.725V250.329Z" fill="#231F20"/>
<path d="M119.375 282.589H126.105C127.505 282.589 128.485 282.729 129.335 283.149C130.175 283.569 130.735 283.989 131.295 284.689C131.855 285.389 132.135 286.089 132.415 287.069C132.695 287.909 132.695 288.889 132.695 289.879C132.695 291.419 132.555 292.689 132.135 293.529C131.715 294.369 131.295 295.069 130.595 295.769C130.035 296.329 129.335 296.749 128.635 296.889C127.655 297.169 126.675 297.309 125.965 297.309H119.235V282.579H119.375V282.589ZM123.865 285.819V293.819H124.985C125.965 293.819 126.665 293.679 126.945 293.539C127.365 293.399 127.645 292.979 127.925 292.419C128.205 291.859 128.205 291.019 128.205 289.899C128.205 288.359 127.925 287.229 127.505 286.669C126.945 286.109 126.105 285.829 124.985 285.829L123.865 285.819Z" fill="#231F20"/>
<path d="M134.665 289.879C134.665 287.499 135.365 285.669 136.625 284.269C138.025 282.869 139.855 282.309 142.235 282.309C144.615 282.309 146.585 283.009 147.845 284.269C149.245 285.529 149.805 287.499 149.805 289.739C149.805 291.419 149.525 292.829 148.965 293.949C148.405 295.069 147.565 295.909 146.445 296.469C145.325 297.029 144.065 297.449 142.375 297.449C140.695 297.449 139.285 297.169 138.305 296.609C137.185 296.049 136.345 295.209 135.635 294.089C135.085 293.109 134.665 291.569 134.665 289.879ZM139.295 289.879C139.295 291.419 139.575 292.399 140.135 293.109C140.695 293.809 141.395 294.089 142.375 294.089C143.355 294.089 144.195 293.809 144.615 293.109C145.175 292.409 145.455 291.289 145.455 289.739C145.455 288.339 145.175 287.359 144.615 286.649C144.055 285.949 143.355 285.669 142.375 285.669C141.535 285.669 140.695 285.949 140.135 286.649C139.575 287.359 139.295 288.479 139.295 289.879Z" fill="#231F20"/>
<path d="M152.485 282.589H156.695L162.305 290.729V282.589H166.515V297.319H162.305L156.695 289.179V297.319H152.485V282.589Z" fill="#231F20"/>
<path d="M176.895 291.989V288.899H183.905V295.209C182.505 296.189 181.385 296.749 180.395 297.029C179.415 297.309 178.155 297.589 176.745 297.589C174.925 297.589 173.515 297.309 172.535 296.749C171.415 296.189 170.575 295.209 170.015 294.079C169.455 292.959 169.175 291.559 169.175 290.009C169.175 288.459 169.455 287.059 170.155 285.799C170.855 284.679 171.835 283.699 173.105 283.129C174.085 282.709 175.485 282.429 177.175 282.429C178.855 282.429 179.985 282.569 180.825 282.849C181.665 283.129 182.225 283.549 182.785 284.249C183.345 284.809 183.625 285.649 183.905 286.629L179.555 287.469C179.275 286.909 178.995 286.489 178.575 286.209C178.155 285.929 177.595 285.789 176.895 285.789C175.915 285.789 175.075 286.069 174.515 286.769C173.955 287.469 173.675 288.589 173.675 289.999C173.675 291.539 173.955 292.669 174.515 293.369C175.075 294.069 175.915 294.349 177.035 294.349C177.595 294.349 178.015 294.209 178.435 294.069C178.855 293.929 179.415 293.649 179.975 293.369V291.969H176.895V291.989Z" fill="#231F20"/>
<path d="M186.705 282.589H197.935V285.679H191.195V288.199H196.945V291.289H191.195V297.319H186.705V282.589Z" fill="#231F20"/>
<path d="M200.314 282.589H212.524V285.679H204.944V288.059H211.954V291.009H204.944V293.949H212.804V297.319H200.314V282.589Z" fill="#231F20"/>
<path d="M215.185 282.589H219.535L225.005 290.729V282.589H229.355V297.319H225.005L219.535 289.179V297.319H215.185V282.589Z" fill="#231F20"/>
<path d="M239.735 291.989V288.899H246.745V295.209C245.345 296.189 244.225 296.749 243.235 297.029C242.255 297.309 240.995 297.589 239.585 297.589C237.765 297.589 236.355 297.309 235.235 296.749C234.115 296.189 233.275 295.209 232.715 294.079C232.155 292.959 231.875 291.559 231.875 290.009C231.875 288.459 232.155 287.059 232.855 285.799C233.555 284.679 234.535 283.699 235.805 283.129C236.785 282.709 238.185 282.429 239.875 282.429C241.555 282.429 242.685 282.569 243.525 282.849C244.365 283.129 244.925 283.549 245.485 284.249C246.045 284.809 246.325 285.649 246.605 286.629L242.255 287.469C241.975 286.909 241.695 286.489 241.275 286.209C240.855 285.929 240.295 285.789 239.595 285.789C238.615 285.789 237.775 286.069 237.215 286.769C236.655 287.469 236.375 288.589 236.375 289.999C236.375 291.539 236.655 292.669 237.215 293.369C237.775 294.069 238.615 294.349 239.735 294.349C240.295 294.349 240.715 294.209 241.135 294.069C241.555 293.929 242.115 293.649 242.675 293.369V291.969H239.735V291.989Z" fill="#231F20"/>
<path d="M256.285 282.589H262.175L264.565 291.429L266.805 282.589H272.695V297.319H269.055V286.099L266.105 297.319H262.875L259.935 286.099V297.319H256.285V282.589Z" fill="#231F20"/>
<path d="M275.085 289.879C275.085 287.499 275.785 285.669 277.045 284.269C278.445 282.869 280.275 282.309 282.655 282.309C285.035 282.309 287.005 283.009 288.265 284.269C289.665 285.529 290.225 287.499 290.225 289.739C290.225 291.419 289.945 292.829 289.385 293.949C288.825 295.069 287.985 295.909 286.865 296.469C285.745 297.029 284.345 297.449 282.795 297.449C281.115 297.449 279.705 297.169 278.725 296.609C277.605 296.049 276.765 295.209 276.055 294.089C275.505 293.109 275.085 291.569 275.085 289.879ZM279.715 289.879C279.715 291.419 279.995 292.399 280.555 293.109C281.115 293.809 281.815 294.089 282.795 294.089C283.775 294.089 284.615 293.809 285.035 293.109C285.595 292.409 285.875 291.289 285.875 289.739C285.875 288.339 285.595 287.359 285.035 286.649C284.475 285.949 283.635 285.669 282.795 285.669C281.955 285.669 281.115 285.949 280.555 286.649C279.855 287.359 279.715 288.479 279.715 289.879Z" fill="#231F20"/>
<path d="M291.215 282.589H305.105V286.239H300.335V297.319H295.845V286.239H291.215V282.589Z" fill="#231F20"/>
<path d="M305.805 289.879C305.805 287.499 306.505 285.669 307.765 284.269C309.165 282.869 310.995 282.309 313.375 282.309C315.755 282.309 317.725 283.009 318.985 284.269C320.385 285.529 320.945 287.359 320.945 289.739C320.945 291.419 320.665 292.829 320.105 293.949C319.545 295.069 318.705 295.909 317.585 296.469C316.465 297.029 315.065 297.449 313.515 297.449C311.835 297.449 310.425 297.169 309.445 296.609C308.325 296.049 307.485 295.209 306.775 294.089C306.225 293.109 305.805 291.569 305.805 289.879ZM310.435 289.879C310.435 291.419 310.715 292.399 311.275 293.109C311.835 293.809 312.535 294.089 313.515 294.089C314.495 294.089 315.335 293.809 315.755 293.109C316.315 292.409 316.595 291.289 316.595 289.739C316.595 288.339 316.315 287.359 315.755 286.649C315.195 285.949 314.355 285.669 313.515 285.669C312.675 285.669 311.835 285.949 311.275 286.649C310.715 287.359 310.435 288.479 310.435 289.879Z" fill="#231F20"/>
<path d="M323.615 297.319V282.589H331.185C332.585 282.589 333.705 282.729 334.415 283.009C335.115 283.289 335.815 283.709 336.235 284.409C336.655 285.109 336.935 285.809 336.935 286.789C336.935 287.629 336.795 288.329 336.375 288.889C336.095 289.449 335.535 290.009 334.975 290.289C334.555 290.569 333.995 290.709 333.435 290.849C333.995 290.989 334.275 291.269 334.555 291.409C334.695 291.549 334.975 291.829 335.255 292.249C335.535 292.669 335.815 292.949 335.955 293.229L338.195 297.439H333.005L330.625 292.949C330.345 292.389 330.065 291.969 329.785 291.829C329.505 291.549 329.085 291.549 328.665 291.549H328.245V297.579H323.615V297.319ZM328.105 288.479H330.065C330.205 288.479 330.625 288.339 331.185 288.339C331.465 288.339 331.745 288.059 331.885 287.919C332.165 287.639 332.165 287.359 332.165 287.079C332.165 286.659 332.025 286.239 331.745 285.959C331.465 285.679 330.905 285.539 330.065 285.539H328.105V288.479Z" fill="#231F20"/>
<path d="M356.165 291.289L360.095 292.549C359.815 293.669 359.395 294.649 358.835 295.359C358.275 296.059 357.575 296.619 356.735 297.039C355.895 297.459 354.775 297.599 353.505 297.599C351.965 297.599 350.555 297.319 349.575 296.899C348.595 296.479 347.755 295.639 346.905 294.379C346.205 293.259 345.785 291.709 345.785 289.889C345.785 287.509 346.485 285.539 347.745 284.279C349.005 283.019 350.835 282.319 353.215 282.319C355.035 282.319 356.585 282.739 357.565 283.439C358.685 284.139 359.385 285.259 359.945 286.949L355.875 287.789C355.735 287.369 355.595 287.089 355.455 286.809C355.175 286.529 354.895 286.249 354.475 285.969C354.195 285.829 353.635 285.689 353.215 285.689C352.235 285.689 351.395 286.109 350.835 286.949C350.415 287.509 350.135 288.489 350.135 289.899C350.135 291.579 350.415 292.709 350.975 293.269C351.395 293.829 352.095 294.109 353.075 294.109C353.915 294.109 354.615 293.829 355.035 293.409C355.595 292.829 355.885 292.129 356.165 291.289Z" fill="#231F20"/>
<path d="M361.774 289.879C361.774 287.499 362.474 285.669 363.734 284.269C365.134 282.869 366.964 282.309 369.344 282.309C371.724 282.309 373.694 283.009 375.094 284.269C376.494 285.529 377.054 287.499 377.054 289.739C377.054 291.419 376.774 292.829 376.214 293.949C375.654 295.069 374.814 295.909 373.694 296.469C372.574 297.029 371.174 297.449 369.624 297.449C367.944 297.449 366.534 297.169 365.554 296.609C364.434 296.049 363.594 295.209 362.884 294.089C362.054 293.109 361.774 291.569 361.774 289.879ZM366.264 289.879C366.264 291.419 366.544 292.399 367.104 293.109C367.664 293.809 368.364 294.089 369.344 294.089C370.324 294.089 371.164 293.809 371.584 293.109C372.144 292.409 372.424 291.289 372.424 289.739C372.424 288.339 372.144 287.359 371.584 286.649C371.024 285.949 370.184 285.669 369.344 285.669C368.504 285.669 367.664 285.949 367.104 286.649C366.544 287.359 366.264 288.479 366.264 289.879Z" fill="#231F20"/>
<path d="M379.445 297.319V282.589H387.015C388.415 282.589 389.395 282.729 390.245 283.009C390.945 283.289 391.645 283.709 392.065 284.409C392.485 285.109 392.765 285.809 392.765 286.789C392.765 287.629 392.625 288.329 392.205 288.889C391.925 289.449 391.365 290.009 390.805 290.289C390.385 290.569 389.965 290.709 389.265 290.849C389.825 290.989 390.245 291.269 390.385 291.409C390.525 291.549 390.805 291.829 391.085 292.249C391.365 292.669 391.645 292.949 391.785 293.229L394.025 297.439H388.835L386.315 292.949C386.035 292.389 385.755 291.969 385.475 291.829C385.195 291.549 384.775 291.549 384.355 291.549H383.935V297.579H379.445V297.319ZM384.075 288.479H386.035C386.315 288.479 386.595 288.339 387.155 288.339C387.435 288.339 387.715 288.059 387.855 287.919C388.135 287.639 388.135 287.359 388.135 287.079C388.135 286.659 387.995 286.239 387.715 285.959C387.435 285.679 386.875 285.539 386.035 285.539H384.075V288.479Z" fill="#231F20"/>
<path d="M395.435 282.589H403.005C404.685 282.589 405.815 283.009 406.655 283.709C407.495 284.549 407.915 285.669 407.915 287.079C407.915 288.619 407.495 289.749 406.515 290.589C405.675 291.429 404.275 291.849 402.445 291.849H399.925V297.319H395.295V282.589H395.435ZM399.925 288.759H401.045C401.885 288.759 402.585 288.619 402.865 288.339C403.145 288.059 403.425 287.639 403.425 287.219C403.425 286.799 403.285 286.379 403.005 286.099C402.725 285.819 402.165 285.539 401.325 285.539H400.065V288.769H399.925V288.759Z" fill="#231F20"/>
<path d="M409.745 289.879C409.745 287.499 410.445 285.669 411.705 284.269C413.105 282.869 414.935 282.309 417.315 282.309C419.695 282.309 421.665 283.009 423.065 284.269C424.465 285.529 425.025 287.499 425.025 289.739C425.025 291.419 424.745 292.829 424.185 293.949C423.625 295.069 422.785 295.909 421.665 296.469C420.545 297.029 419.145 297.449 417.595 297.449C415.915 297.449 414.505 297.169 413.525 296.609C412.405 296.049 411.565 295.209 410.855 294.089C410.025 293.109 409.745 291.569 409.745 289.879ZM414.235 289.879C414.235 291.419 414.515 292.399 415.075 293.109C415.635 293.809 416.335 294.089 417.315 294.089C418.295 294.089 419.135 293.809 419.555 293.109C420.115 292.409 420.395 291.289 420.395 289.739C420.395 288.339 420.115 287.359 419.555 286.649C418.995 285.949 418.155 285.669 417.315 285.669C416.475 285.669 415.635 285.949 415.075 286.649C414.515 287.359 414.235 288.479 414.235 289.879Z" fill="#231F20"/>
<path d="M427.415 297.319V282.589H434.985C436.385 282.589 437.505 282.729 438.215 283.009C438.915 283.289 439.615 283.709 440.035 284.409C440.455 285.109 440.735 285.809 440.735 286.789C440.735 287.629 440.595 288.329 440.175 288.889C439.895 289.449 439.335 290.009 438.775 290.289C438.355 290.569 437.795 290.709 437.235 290.849C437.795 290.989 438.075 291.269 438.355 291.409C438.495 291.549 438.775 291.829 439.055 292.249C439.335 292.669 439.615 292.949 439.755 293.229L441.995 297.439H436.805L434.425 292.949C434.145 292.389 433.865 291.969 433.585 291.829C433.305 291.549 432.885 291.549 432.465 291.549H432.045V297.579H427.415V297.319ZM432.045 288.479H434.005C434.285 288.479 434.705 288.339 435.265 288.339C435.545 288.339 435.825 288.059 435.965 287.919C436.245 287.639 436.245 287.359 436.245 287.079C436.245 286.659 436.105 286.239 435.825 285.959C435.545 285.679 434.985 285.539 434.145 285.539H432.185V288.489H432.045V288.479Z" fill="#231F20"/>
<path d="M452.385 294.789H447.195L446.495 297.169H441.865L447.335 282.439H452.385L457.855 297.169H453.085L452.385 294.789ZM451.405 291.569L449.725 286.239L448.185 291.569H451.405Z" fill="#231F20"/>
<path d="M456.875 282.589H470.765V286.239H466.135V297.319H461.505V286.239H456.875V282.589Z" fill="#231F20"/>
<path d="M477.635 282.589H473.005V297.319H477.635V282.589Z" fill="#231F20"/>
<path d="M480.165 289.879C480.165 287.499 480.865 285.669 482.125 284.269C483.525 282.869 485.355 282.309 487.735 282.309C490.115 282.309 492.085 283.009 493.345 284.269C494.745 285.529 495.305 287.499 495.305 289.739C495.305 291.419 495.025 292.829 494.465 293.949C493.905 295.069 493.065 295.909 491.945 296.469C490.825 297.029 489.565 297.449 487.875 297.449C486.195 297.449 484.785 297.169 483.805 296.609C482.685 296.049 481.845 295.209 481.135 294.089C480.585 293.109 480.165 291.569 480.165 289.879ZM484.795 289.879C484.795 291.419 485.075 292.399 485.635 293.109C486.195 293.809 486.895 294.089 487.875 294.089C488.855 294.089 489.695 293.809 490.115 293.109C490.675 292.409 490.955 291.289 490.955 289.739C490.955 288.339 490.675 287.359 490.115 286.649C489.555 285.949 488.715 285.669 487.875 285.669C487.035 285.669 486.195 285.949 485.635 286.649C485.075 287.359 484.795 288.479 484.795 289.879Z" fill="#231F20"/>
<path d="M497.975 282.589H502.185L507.655 290.729V282.589H512.005V297.319H507.655L502.185 289.179V297.319H497.975V282.589Z" fill="#231F20"/>
</g>
<defs>
<clipPath id="clip0_6_100">
<rect width="512" height="512" fill="white" transform="translate(0.00488281 0.63916)"/>
</clipPath>
</defs>
</svg>
