<svg width="416" height="257" viewBox="0 0 416 257" fill="none" xmlns="http://www.w3.org/2000/svg">
<g clip-path="url(#clip0_1_24)">
<path d="M0.149292 0.421143L8.43288 256.261H48.7026L47.8193 150.167H81.5864V117.096H47.8193L47.9452 33.8492H92.0307L91.793 0.421143H0.149292Z" fill="black"/>
<path d="M107.71 0.421143L112.804 256.261H154.387L155.231 0.421143H107.71Z" fill="black"/>
<path d="M302.646 0.421143V32.6907H335.492L334.547 256.261H374.778L383.322 32.6537H415.897L415.648 0.421143H302.646Z" fill="black"/>
<path d="M217.938 118.829L218.394 31.9281H241.61C252.136 51.2827 258.9 76.8773 264.202 118.829H217.938ZM180.842 256.254H184.92H214.932H219.336L219.765 150.462H265.891C269.516 169.135 270.405 226.774 270.621 256.254H274.435H304.562H307.964C311.487 125.642 300.542 51.8148 270.302 0.419312H177.319L180.842 256.254Z" fill="black"/>
</g>
<defs>
<clipPath id="clip0_1_24">
<rect width="415.748" height="255.84" fill="white" transform="translate(0.149292 0.420044)"/>
</clipPath>
</defs>
</svg>
