<svg width="371" height="109" viewBox="0 0 371 109" fill="none" xmlns="http://www.w3.org/2000/svg">
<path d="M282.579 45.1053C280.679 47.0053 279.979 49.4053 279.979 53.0053V63.8053C279.979 67.4053 280.679 69.9053 282.579 71.7053C284.479 73.6053 286.979 74.4053 290.479 74.4053H312.179H312.279C315.779 74.4053 318.279 73.6053 320.079 71.7053C321.979 69.8053 322.679 67.4053 322.679 63.8053V53.0053C322.679 49.4053 321.979 46.9053 320.079 45.1053C318.179 43.2053 315.679 42.4053 312.279 42.4053H312.179H290.479H290.379C286.979 42.4053 284.479 43.2053 282.579 45.1053ZM289.379 63.0053V53.5053C289.479 52.1053 290.079 51.4053 291.579 51.3053H311.079C312.479 51.4053 313.179 52.1053 313.279 53.5053V63.3053C313.179 64.7053 312.479 65.4053 311.079 65.5053H291.579C290.179 65.4053 289.479 64.4053 289.379 63.0053Z" fill="black"/>
<path d="M211.779 42.4053H190.079C186.579 42.4053 183.979 43.2053 182.179 45.1053C180.279 47.0053 179.579 49.4053 179.579 53.0053V63.8053C179.579 67.4053 180.279 69.9053 182.179 71.7053C184.079 73.6053 186.579 74.4053 190.079 74.4053H211.779H211.879C215.379 74.4053 217.879 73.6053 219.679 71.7053C221.579 69.8053 222.279 67.4053 222.279 63.8053V53.0053C222.279 49.4053 221.579 46.9053 219.679 45.1053C217.879 43.2053 215.379 42.4053 211.779 42.4053ZM189.079 62.8053V53.5053C189.179 52.1053 189.879 51.4053 191.279 51.3053H210.679C212.079 51.4053 212.779 52.1053 212.879 53.5053V63.3053C212.779 64.7053 212.079 65.4053 210.679 65.5053H191.179C189.779 65.4053 189.079 64.2053 189.079 62.8053Z" fill="black"/>
<path d="M144.579 42.3052H141.979C141.779 42.3052 141.479 42.3052 141.279 42.3052H140.679H140.179C137.479 42.5052 135.379 43.2052 133.779 44.9052C131.879 46.8052 131.179 49.2052 131.179 52.8052V74.2052H140.679V65.3052H163.179V56.8052H140.779V52.9052C140.779 52.5052 140.879 52.0052 140.979 51.7052C141.179 51.5052 141.279 51.3052 141.979 51.2052H142.279H170.579V42.3052H144.579Z" fill="black"/>
<path d="M229.479 42.4053V51.3053H230.479H246.479V74.4053H255.979V51.3053H272.879V42.4053H229.479Z" fill="black"/>
<path d="M331.379 42.4053V74.4053H340.879V51.3053H359.079H359.379C359.679 51.3053 360.179 51.5053 360.579 52.0053C360.979 52.4053 361.279 53.0053 361.179 53.5053V74.4053H370.679V53.0053C370.679 49.4053 369.979 46.9053 368.079 45.1053C366.479 43.5053 364.179 42.7053 361.279 42.5053H360.579C360.379 42.5053 360.179 42.5053 359.979 42.5053H331.379V42.4053Z" fill="black"/>
<path d="M92.2792 16.6053C82.5792 6.90529 69.1792 0.905273 54.3792 0.905273C24.6792 0.905273 0.679199 24.9053 0.679199 54.5053C0.679199 84.1053 24.6792 108.105 54.2792 108.105C69.0792 108.105 82.4792 102.105 92.1792 92.4053C101.879 82.7053 107.879 69.3053 107.879 54.5053C107.879 39.7053 101.979 26.3053 92.2792 16.6053ZM54.2792 102.005C47.6792 102.005 41.4792 100.705 35.7792 98.3053C30.0792 95.9053 24.9792 92.4053 20.6792 88.1053C16.3792 83.8053 12.8792 78.7053 10.4792 73.0053C8.0792 67.3053 6.7792 61.1053 6.7792 54.5053C6.7792 47.9053 8.0792 41.7053 10.4792 36.0053C12.8792 30.3053 16.3792 25.2053 20.6792 20.9053C24.9792 16.6053 30.0792 13.1053 35.7792 10.7053C41.4792 8.30528 47.6792 7.00528 54.2792 7.00528C60.8792 7.00528 67.0792 8.30528 72.7792 10.7053C78.4792 13.1053 83.5792 16.6053 87.8792 20.9053C92.1792 25.2053 95.6792 30.3053 98.0792 36.0053C100.479 41.7053 101.779 47.9053 101.779 54.5053C101.779 61.0053 100.479 67.3053 98.0792 73.0053C95.6792 78.7053 92.1792 83.8053 87.8792 88.1053C79.2792 96.7053 67.4792 102.005 54.2792 102.005Z" fill="black"/>
<path d="M72.8794 34.0055C72.8794 34.0055 73.0794 33.8055 73.2794 33.3055C73.4794 32.9055 73.6794 32.3055 73.6794 31.7055C73.6794 31.3055 73.5794 30.8055 73.3794 30.4055C72.9794 29.6055 72.3794 29.1055 71.7794 28.9055C71.2794 28.7055 70.7794 28.6055 70.7794 28.6055H55.1794C54.9794 28.6055 54.6794 28.7055 54.1794 28.8055C53.6794 28.9055 53.0794 29.1055 52.4794 29.5055C51.4794 30.1055 50.8794 31.0055 50.8794 31.0055L29.6794 60.1055C29.6794 60.1055 29.4794 60.4055 29.2794 60.8055C29.0794 61.2055 28.8794 61.8055 28.8794 62.5055C28.8794 63.9055 29.6794 64.8055 29.6794 64.9055L36.8794 74.8055C36.8794 74.8055 38.0794 76.3055 40.1794 76.3055C42.2794 76.3055 43.4794 74.6055 43.4794 74.6055L72.8794 34.0055ZM72.9794 31.7055C72.9794 32.2055 72.7794 32.7055 72.6794 33.0055C72.7794 32.6055 72.9794 32.2055 72.9794 31.7055Z" fill="black"/>
<path d="M29.6792 55.2054L45.0792 33.7054C45.0792 33.7054 45.4792 33.0054 45.4792 31.9054C45.4792 31.4054 45.3792 30.8054 45.0792 30.3054C44.2792 28.6054 42.3792 28.5054 42.0792 28.5054C42.0792 28.5054 42.0792 28.5054 41.9792 28.5054H26.7792L26.6792 28.6054C26.2792 28.6054 25.2792 28.7054 24.2792 29.3054C23.2792 29.9054 22.6792 30.8054 22.6792 30.8054L15.3792 40.8054C15.2792 40.9054 14.6792 41.7054 14.6792 42.9054C14.6792 44.2054 15.6792 45.4054 15.6792 45.5054L22.7792 55.3054C22.7792 55.3054 24.0792 56.8054 26.2792 56.8054C28.2792 56.8054 29.6792 55.2054 29.6792 55.2054Z" fill="black"/>
<path d="M85.1792 29.8055C85.1792 29.8055 84.9792 29.5055 84.5792 29.2055C84.1792 28.9055 83.6792 28.6055 82.8792 28.6055C81.0792 28.6055 80.2792 29.9055 80.1792 29.9055L43.9792 79.8055C43.9792 79.8055 43.7792 80.1055 43.5792 80.5055C43.3792 80.9055 43.1792 81.5055 43.1792 82.3055C43.1792 83.7055 43.9792 84.6055 44.0792 84.8055L50.8792 94.1055C50.9792 94.2055 51.9792 95.8055 54.3792 95.8055C56.3792 95.8055 57.5792 94.2055 57.5792 94.2055L93.0792 45.4055C93.0792 45.4055 93.1792 45.1055 93.3792 44.7055C93.5792 44.2055 93.6792 43.6055 93.6792 42.9055C93.6792 41.6055 93.3792 41.0055 93.2792 41.0055L85.1792 29.8055Z" fill="black"/>
</svg>
