<svg width="151" height="25" viewBox="0 0 151 25" fill="none" xmlns="http://www.w3.org/2000/svg">
<path d="M123.261 19.4731H106.321C105.321 19.4731 104.891 19.1631 104.891 18.1831V0.823137C104.891 0.113137 104.621 0.0731369 104.091 0.0731369H98.4413C97.8713 0.0731369 97.6813 0.0731369 97.6813 0.823137V17.5831C97.6813 23.1631 99.6813 24.9731 105.111 24.9731H123.341C124.011 24.9731 124.011 24.7531 124.011 24.1831V20.2931C124.011 19.7331 124.011 19.4731 123.261 19.4731ZM92.3213 0.0731369H74.0713C69.0713 0.0731369 66.0713 1.66314 66.0713 6.90314V18.1531C66.0713 23.3931 69.0713 24.9731 74.1313 24.9731H92.3213C93.0413 24.9731 93.0013 24.7531 93.0013 24.2231V20.3331C93.0013 19.8031 93.0013 19.5831 92.3213 19.5831H74.4413C73.6413 19.5831 73.2313 19.2831 73.2313 18.4831V15.0731H91.8313C92.5513 15.0731 92.5113 14.8431 92.5113 14.3231V10.4831C92.5113 9.92314 92.5113 9.73314 91.8313 9.73314H73.2313V6.56314C73.2313 5.77314 73.6413 5.47314 74.4413 5.47314H92.3213C93.0413 5.47314 93.0013 5.24314 93.0013 4.68314V0.823137C93.0013 0.303137 93.0713 0.0731369 92.3213 0.0731369ZM61.3113 0.0731369H43.0713C38.0713 0.0731369 35.0013 1.66314 35.0013 6.90314V18.1531C35.0013 23.3931 38.0913 24.9731 43.0713 24.9731H61.3113C62.0213 24.9731 62.0213 24.7531 62.0213 24.2231V20.3331C62.0213 19.8031 62.0213 19.5831 61.3113 19.5831H43.4613C42.6713 19.5831 42.2513 19.2831 42.2513 18.4831V15.0731H60.8113C61.5313 15.0731 61.5313 14.8431 61.5313 14.3231V10.4831C61.5313 9.92314 61.5313 9.73314 60.8113 9.73314H42.2513V6.56314C42.2513 5.77314 42.6713 5.47314 43.4613 5.47314H61.3113C62.0213 5.47314 62.0213 5.24314 62.0213 4.68314V0.823137C62.0713 0.303137 62.0713 0.0731369 61.3113 0.0731369ZM29.6113 0.0731369H8.18129C3.12129 0.0731369 0.0712891 1.66314 0.0712891 6.90314V18.1531C0.0712891 23.3931 3.12129 24.9731 8.18129 24.9731H29.6113C30.3313 24.9731 30.2913 24.7531 30.2913 24.2231V10.4831C30.2913 9.92314 30.2913 9.73314 29.6113 9.73314H11.9113C11.2013 9.73314 11.2413 9.92314 11.2413 10.4831V14.3431C11.2413 14.8631 11.2413 15.0931 11.9113 15.0931H23.0713V19.5831H8.48129C7.72129 19.5831 7.28129 19.2831 7.28129 18.4831V6.56314C7.28129 5.77314 7.72129 5.47314 8.48129 5.47314H29.6113C30.3313 5.47314 30.2913 5.24314 30.2913 4.68314V0.823137C30.2913 0.303137 30.3313 0.0731369 29.6113 0.0731369ZM150.131 0.0731369H143.601C143.208 0.0370043 142.811 0.0932188 142.443 0.237308C142.075 0.381398 141.746 0.609386 141.481 0.903137L132.481 10.7531L123.531 0.903137C123.258 0.609251 122.922 0.381676 122.547 0.237818C122.173 0.0939606 121.771 0.0376306 121.371 0.0731369H114.851C114.331 0.0731369 114.091 0.343137 114.741 1.01314L128.881 16.5631V24.2631C128.881 24.9731 129.111 24.9731 129.681 24.9731H135.331C135.861 24.9731 136.091 24.9731 136.091 24.2631V16.5631L150.271 1.01314C150.881 0.343137 150.691 0.0731369 150.131 0.0731369Z" fill="#000000"/>

<defs>
</defs>
</svg>
