<svg width="143" height="126" viewBox="0 0 143 126" fill="none" xmlns="http://www.w3.org/2000/svg">
<path fill-rule="evenodd" clip-rule="evenodd" d="M71.8431 0.931641C100.575 0.931641 123.876 15.0751 123.876 32.5155C123.876 49.956 100.575 64.0995 71.8431 64.0995C43.1112 64.0995 19.8105 49.956 19.8105 32.5155C19.8105 15.0751 43.1112 0.931641 71.8431 0.931641ZM71.4564 37.7065L51.4725 58.5148C57.5293 60.7876 64.4684 62.0788 71.8431 62.0788C79.2179 62.0788 86.1573 60.7876 92.214 58.5148L72.2299 37.7065C71.9508 37.4152 71.7355 37.4152 71.4564 37.7065ZM50.9217 58.3023L64.2978 33.2168C64.5138 32.8116 64.0621 32.4069 63.6914 32.3294L30.3385 25.3631C29.5148 27.6536 29.0745 30.0491 29.0745 32.5155C29.0745 43.5868 37.8854 53.2368 50.9217 58.3023ZM30.4725 24.9978L66.5227 25.0841C67.2347 25.0857 67.5602 25.1492 67.7257 24.2545L71.74 2.95334C51.9273 2.98574 35.2769 12.335 30.4725 24.9978ZM71.9464 2.95334L75.9606 24.2545C76.1261 25.1492 76.4515 25.0857 77.1636 25.0841L113.214 24.9978C108.409 12.3354 91.7592 2.98574 71.9464 2.95334ZM113.348 25.3631L79.995 32.3294C79.6243 32.4069 79.1726 32.8116 79.3886 33.2168L92.7646 58.3023C105.801 53.2368 114.612 43.5868 114.612 32.5155C114.612 30.0491 114.172 27.6536 113.348 25.3631Z" fill="#1B1918"/>
<path fill-rule="evenodd" clip-rule="evenodd" d="M110.007 85.0398C113.224 79.0885 121.191 77.4376 127.136 82.6531C127.739 83.1822 127.936 83.6708 128.818 83.6716C132.121 83.6716 136.392 83.6716 139.708 83.6716C140.961 83.6716 141.81 83.2715 141.993 82.5269C142.117 82.0173 141.954 81.3342 141.3 80.5549C136.66 75.021 130.061 71.6417 120.917 71.1538C111.12 70.631 100.539 74.7305 95.9615 83.1554C93.8591 87.0246 93.8591 92.5119 95.9615 96.3811C100.539 104.806 111.12 108.905 120.917 108.383C128.27 107.99 133.979 105.728 138.345 101.979C139.775 100.751 140.881 99.3927 142.081 97.9606C142.735 97.1814 142.778 96.498 142.654 95.9886C142.471 95.244 141.622 94.8439 140.369 94.8439C137.053 94.8439 132.781 94.8439 129.479 94.8439C128.492 94.8448 127.234 96.8294 126.384 97.5193C125.305 98.3952 124.242 99.0795 123.043 99.491C118.005 101.22 112.495 99.0995 110.007 94.4967C108.4 91.5231 108.4 88.0135 110.007 85.0398ZM43.5603 107.539H52.3924C53.4076 107.539 54.709 106.716 55.3195 105.73L68.3101 84.7563C68.5732 84.3315 69.0329 84.0261 69.4934 84.0304C69.9539 84.0344 70.4151 84.3493 70.6807 84.7779L75.7299 92.9301C76.3454 93.9239 75.9751 94.4385 74.7958 94.4385H67.7337C66.6766 94.4385 65.3265 95.1998 64.7789 96.1489C64.1709 97.2026 63.5628 98.2567 62.9546 99.3103C62.204 100.61 62.5375 101.593 64.0107 101.593H79.1702C80.7926 101.593 81.3212 101.957 82.1756 103.337L83.6579 105.73C84.2684 106.716 85.5699 107.539 86.5851 107.539H95.4171C96.4323 107.539 96.7758 106.725 96.1812 105.73L77.1009 73.8067C76.5064 72.8118 75.1886 71.9933 74.1737 71.9971H64.8037C63.7889 71.9931 62.471 72.8118 61.8766 73.8067L42.7963 105.73C42.2017 106.725 42.5451 107.539 43.5603 107.539ZM41.7878 71.9971V95.9469C41.7878 102.323 36.9017 107.539 30.9298 107.539H11.8346C5.86266 107.539 0.976562 102.323 0.976562 95.9469V92.8016H10.2966C12.2164 92.8016 13.0859 93.429 13.0859 95.4377V95.9469C13.0859 98.1716 14.6413 100.655 17.0604 100.655H25.7039C28.123 100.655 29.6784 98.1719 29.6784 95.9469V76.2932C29.6784 73.9093 30.7899 71.9971 33.4284 71.9971H41.7878Z" fill="#1B1918"/>
<path fill-rule="evenodd" clip-rule="evenodd" d="M3.55469 125.656V116.766V116.754H4.48229L8.19229 122.975L11.9154 116.754H12.843V125.644V125.656H11.9154V118.53L8.19229 124.617L4.48229 118.53V125.656H3.55469ZM35.3868 116.756C35.9681 116.756 36.5081 116.85 37.011 117.036C37.514 117.221 37.9581 117.503 38.3392 117.877C38.7224 118.25 39.0207 118.718 39.2341 119.279C39.4453 119.84 39.5519 120.481 39.5519 121.201C39.5519 121.919 39.4453 122.562 39.2341 123.125C39.0207 123.689 38.7224 124.158 38.3392 124.534C37.9581 124.909 37.514 125.191 37.011 125.377C36.5081 125.562 35.9681 125.656 35.3868 125.656C34.7859 125.656 34.2329 125.575 33.73 125.412C33.227 125.249 32.7872 124.991 32.4061 124.64C32.0272 124.29 31.7313 123.826 31.5156 123.252C31.3001 122.678 31.1934 121.994 31.1934 121.201C31.1934 120.408 31.3001 119.726 31.5135 119.156C31.7267 118.584 32.0251 118.123 32.4061 117.77C32.7893 117.415 33.2291 117.159 33.732 116.998C34.2329 116.837 34.7859 116.756 35.3868 116.756ZM35.3868 117.645C34.7859 117.645 34.2372 117.774 33.7408 118.035C33.2465 118.294 32.8524 118.69 32.5586 119.225C32.2669 119.759 32.121 120.418 32.121 121.201C32.121 121.988 32.2669 122.647 32.5586 123.183C32.8524 123.72 33.2465 124.118 33.7408 124.377C34.2372 124.638 34.7859 124.767 35.3868 124.767C35.9659 124.767 36.5015 124.623 36.998 124.335C37.4923 124.047 37.8884 123.632 38.1824 123.09C38.4763 122.547 38.6244 121.917 38.6244 121.201C38.6244 120.485 38.4763 119.857 38.1824 119.316C37.8884 118.776 37.4923 118.363 36.998 118.077C36.5015 117.789 35.9659 117.645 35.3868 117.645ZM57.0947 116.754H64.5258V117.645H61.2902V125.656H60.3497V117.645H57.0947V116.754ZM86.6276 116.756C87.2089 116.756 87.7489 116.85 88.2519 117.035C88.7549 117.221 89.199 117.503 89.58 117.876C89.9632 118.25 90.2615 118.718 90.4748 119.279C90.686 119.84 90.7927 120.481 90.7927 121.201C90.7927 121.919 90.686 122.562 90.4748 123.125C90.2615 123.688 89.9632 124.158 89.58 124.534C89.199 124.909 88.7549 125.191 88.2519 125.377C87.7489 125.562 87.2089 125.656 86.6276 125.656C86.0267 125.656 85.4737 125.575 84.9707 125.412C84.4677 125.249 84.028 124.991 83.6469 124.64C83.2681 124.289 82.972 123.826 82.7565 123.252C82.5409 122.678 82.4342 121.994 82.4342 121.201C82.4342 120.408 82.5409 119.725 82.7542 119.156C82.9676 118.584 83.266 118.123 83.6469 117.77C84.0301 117.415 84.4699 117.159 84.9728 116.998C85.4737 116.837 86.0267 116.756 86.6276 116.756ZM86.6276 117.645C86.0267 117.645 85.4781 117.774 84.9816 118.035C84.4873 118.294 84.0933 118.69 83.7993 119.225C83.5076 119.759 83.3617 120.418 83.3617 121.201C83.3617 121.988 83.5076 122.647 83.7993 123.183C84.0933 123.72 84.4873 124.118 84.9816 124.377C85.4781 124.638 86.0267 124.767 86.6276 124.767C87.2068 124.767 87.7424 124.623 88.2387 124.335C88.733 124.047 89.1292 123.632 89.4232 123.089C89.7171 122.547 89.8652 121.917 89.8652 121.201C89.8652 120.485 89.7171 119.857 89.4232 119.316C89.1292 118.776 88.733 118.363 88.2387 118.077C87.7424 117.789 87.2068 117.645 86.6276 117.645ZM109.825 117.645V121.199H112.451C112.871 121.199 113.23 121.115 113.53 120.948C113.831 120.781 114.057 120.56 114.21 120.289C114.362 120.016 114.438 119.725 114.438 119.421C114.438 119.114 114.362 118.826 114.212 118.555C114.062 118.281 113.833 118.062 113.53 117.895C113.228 117.728 112.869 117.645 112.451 117.645H110.504H109.825ZM108.897 125.656V116.768V116.756H112.62C113.208 116.756 113.716 116.881 114.138 117.131C114.558 117.382 114.876 117.712 115.087 118.118C115.298 118.525 115.405 118.96 115.405 119.421C115.405 119.882 115.298 120.318 115.087 120.725C114.876 121.132 114.558 121.462 114.138 121.712C113.716 121.963 113.208 122.088 112.62 122.088L115.405 125.656H114.321L111.523 122.088H109.825V125.656H108.897ZM133.623 123.277H134.707C134.707 123.599 134.829 123.857 135.073 124.06C135.317 124.26 135.615 124.402 135.972 124.488C136.329 124.573 136.682 124.617 137.032 124.617C137.572 124.617 138.045 124.473 138.445 124.187C138.846 123.901 139.046 123.45 139.046 122.837C139.046 122.509 138.848 122.24 138.452 122.027C138.056 121.816 137.387 121.522 136.449 121.149C135.51 120.775 134.805 120.418 134.332 120.08C133.86 119.742 133.623 119.323 133.623 118.82C133.623 118.311 133.782 117.889 134.099 117.553C134.417 117.219 134.835 116.973 135.349 116.82C135.865 116.666 136.427 116.589 137.032 116.589C137.381 116.589 137.74 116.643 138.106 116.752C138.474 116.862 138.809 117.017 139.116 117.217C139.423 117.417 139.669 117.655 139.854 117.933C140.039 118.208 140.131 118.505 140.131 118.82H139.046C139.046 118.54 138.948 118.298 138.75 118.098C138.552 117.897 138.297 117.745 137.986 117.643C137.677 117.54 137.359 117.49 137.032 117.49C136.706 117.49 136.425 117.498 136.19 117.515C135.957 117.534 135.724 117.584 135.493 117.666C135.26 117.749 135.07 117.883 134.925 118.071C134.779 118.258 134.707 118.509 134.707 118.82C134.707 119.216 134.92 119.533 135.349 119.773C135.778 120.016 136.449 120.304 137.361 120.642C138.273 120.978 138.963 121.303 139.429 121.618C139.898 121.931 140.131 122.338 140.131 122.837C140.131 123.302 140.017 123.738 139.793 124.145C139.569 124.552 139.225 124.882 138.757 125.133C138.291 125.381 137.716 125.506 137.032 125.506C136.279 125.506 135.645 125.416 135.136 125.235C134.624 125.053 134.245 124.794 133.995 124.463C133.747 124.129 133.623 123.734 133.623 123.277Z" fill="#1B1918" stroke="#1B1918" stroke-width="0.6409"/>
</svg>
