<svg width="25" height="11" viewBox="0 0 25 11" fill="none" xmlns="http://www.w3.org/2000/svg">
<path d="M17.2547 8.98852H17.2477C17.1147 9.02052 17.0047 8.94252 17.0357 8.88152C17.1577 8.60152 17.3038 8.20152 17.3298 8.09752C17.4508 7.68052 17.4058 7.39352 17.0368 7.08552C16.8168 6.90552 16.5698 6.73352 16.3468 6.57452C16.2418 6.48052 16.3017 6.38952 16.3347 6.35752C16.3987 6.29352 16.4788 6.24052 16.5408 6.19252C16.7208 6.05752 16.8317 6.07552 16.9947 6.09252C17.2467 6.12652 17.4978 6.16352 17.7488 6.20752C17.9918 6.25752 18.0417 6.16852 18.1007 5.99852L18.2428 5.57352C18.3298 5.32952 18.2127 5.27552 18.0327 5.27152L15.6397 5.17852C15.4377 5.16552 15.3568 5.22652 15.2828 5.27652C14.9228 5.53652 14.5627 5.79452 14.2017 6.05352C14.0147 6.17952 14.0948 6.26552 14.1418 6.35152L14.3438 6.68252C14.5058 6.94652 14.4437 7.01952 14.3027 7.17352C14.1947 7.28352 14.0768 7.38352 13.9528 7.47252L13.9097 7.50252C13.5397 7.76452 13.1597 7.88252 12.8357 7.93752C12.0597 8.04452 11.3307 8.06052 10.6877 8.07152C9.2591 8.0923 7.83057 8.02249 6.41075 7.86252C6.35602 7.85542 6.30045 7.86607 6.25221 7.89289C6.20398 7.9197 6.16561 7.96129 6.14275 8.01152L5.92275 8.49152C5.9081 8.52289 5.88211 8.54755 5.85001 8.56053C5.81792 8.57352 5.78209 8.57387 5.74975 8.56152C3.69975 7.83252 2.40675 6.76152 2.40675 5.56852C2.40675 3.91952 4.87375 2.50352 8.39375 1.89852C8.46575 1.88452 8.50675 1.91352 8.52375 1.92852C8.60075 1.99352 8.67875 2.05852 8.75375 2.12652C8.80275 2.16852 8.79175 2.21152 8.78075 2.24652L6.90175 6.35152L6.59875 7.01252C6.53475 7.17452 6.67375 7.22552 6.72175 7.22552C8.00675 7.29152 9.26775 7.26852 10.4167 7.15552C11.6767 7.04452 12.4687 6.77252 13.4467 6.17352C14.199 5.7103 14.9129 5.18763 15.5817 4.61052C15.9537 4.27752 16.1457 4.09152 16.3867 3.78952C16.8077 3.24752 16.8907 2.70952 16.5597 2.10152C16.5237 2.01752 16.6198 2.00652 16.6558 2.01152C19.8498 2.66852 22.0397 4.01552 22.0397 5.56852C22.0397 7.02152 20.1197 8.29352 17.2547 8.98852ZM9.35375 2.68052C9.43675 2.76252 9.49775 2.82652 9.57575 2.90852C9.78075 3.14152 9.94375 3.35152 9.93175 3.75052C9.92575 4.00452 9.80475 4.31252 9.63375 4.61052C9.46375 4.91452 9.26075 5.19952 9.03175 5.46052C8.69675 5.86052 8.35475 6.03452 7.90175 6.14952C7.81975 6.16552 7.80475 6.09552 7.82175 6.05252L9.23375 2.70352C9.27475 2.63052 9.33575 2.66452 9.35375 2.68052ZM12.2598 2.38752C12.1507 2.09021 11.9796 1.81954 11.7577 1.59352C11.7352 1.57161 11.7144 1.54786 11.6958 1.52252C11.6818 1.49852 11.6558 1.45452 11.6858 1.41552C11.7258 1.36952 11.7768 1.39052 11.7948 1.40052C11.9288 1.46452 12.3867 1.72252 12.6327 2.38452C12.8317 2.91852 12.7027 3.44852 12.2017 4.15552C11.5447 5.08152 10.9787 5.77852 9.67575 6.30252C9.10675 6.53252 8.17575 6.61752 7.72575 6.61752C7.56975 6.61952 7.48075 6.60052 7.45475 6.54152C7.44846 6.53013 7.44532 6.51726 7.44567 6.50425C7.44603 6.49124 7.44985 6.47856 7.45675 6.46752C7.49875 6.41152 7.56175 6.42052 7.61675 6.42052C8.12375 6.42052 9.03575 6.24752 9.58275 5.99152C10.7328 5.45252 11.3067 4.73352 11.7957 4.04352C12.1257 3.58052 12.4738 2.97352 12.2598 2.38752ZM14.2998 2.55752C14.2578 2.26052 14.0558 2.00252 13.9228 1.83152L13.8177 1.69652C13.7837 1.65652 13.7458 1.61152 13.7878 1.56652C13.8548 1.49852 13.9607 1.57952 13.9827 1.59352C14.2027 1.74152 14.5858 2.07552 14.6858 2.64552C14.7708 3.11652 14.6937 3.80352 13.3457 4.93652C13.2727 4.99652 13.1998 5.06052 13.1228 5.12852C12.5588 5.61852 11.8578 6.22952 10.3108 6.73852C9.77475 6.91352 8.75975 7.04152 7.89675 7.04152C7.73975 7.04152 7.59575 7.03652 7.46675 7.02752C7.32275 7.01752 7.27975 6.96752 7.26875 6.92752C7.26552 6.91673 7.26483 6.90533 7.26674 6.89423C7.26865 6.88313 7.2731 6.87261 7.27975 6.86352C7.29975 6.83752 7.33975 6.82152 7.38975 6.82052C8.83175 6.79052 9.32975 6.70052 10.1927 6.42452C11.4777 6.01252 12.4127 5.25152 13.0817 4.63452C14.4197 3.40152 14.3408 2.85252 14.2998 2.55752ZM12.2188 0.58252C5.59075 0.58252 0.21875 2.81152 0.21875 5.56252C0.21875 8.31252 5.59075 10.5425 12.2188 10.5425C18.8467 10.5425 24.2188 8.31252 24.2188 5.56252C24.2188 2.81252 18.8467 0.58252 12.2188 0.58252Z" fill="black"/>
</svg>
