<svg width="2500" height="2365" viewBox="0 0 2500 2365" fill="none" xmlns="http://www.w3.org/2000/svg">
<g clip-path="url(#clip0_3_213)">
<path d="M559.196 2006.36C562.919 1989.79 564.42 1967.58 564.42 1961.22C564.42 1886.18 517.457 1841.5 438.84 1841.5H193.262L189.129 1863.07L194.808 1863.75C203.892 1864.79 207.022 1868.52 207.022 1878.28C207.022 1882.47 206.206 1887.96 204.89 1893.96L108.83 2312.62C106.56 2322.88 105.788 2327.38 105.788 2332.19C105.788 2348.09 116.236 2358.03 133.175 2358.03H261.347L265.432 2336.51L259.846 2335.73C251.08 2334.65 247.675 2330.51 247.675 2321.2C247.675 2316.21 248.311 2310.03 249.72 2303.35L284.645 2148.25H307.445L368.76 2333.96C373.71 2352.68 380.25 2358.03 402.144 2358.03H440.973C459.547 2358.03 469.633 2351.5 480.032 2332.01C490.48 2312.44 518.729 2259.39 518.729 2259.39H500.469C488.436 2259.39 481.167 2256.62 479.122 2251.26L440.699 2139.89C503.697 2128.4 542.389 2084.67 559.196 2006.36ZM2368.98 1841.5H2260.53L2256.44 1863.08L2262.07 1863.76C2271.25 1864.8 2275.02 1869.3 2275.02 1878.97C2275.02 1880.65 2273.61 1891.14 2272.24 1896.09L2218.38 2116.32L2126.91 1874.97C2119.46 1854.31 2102.66 1841.5 2083.08 1841.5H1984.08L1980.07 1863.03L1985.62 1863.76C1994.7 1864.8 1997.87 1868.53 1997.87 1877.56C1997.87 1882.29 1997.1 1887.88 1995.79 1893.96L1899.73 2312.62C1897.41 2322.84 1896.68 2327.38 1896.68 2332.2C1896.68 2348.09 1907.08 2358.04 1923.93 2358.04H2032.39L2036.48 2336.37L2030.85 2335.74C2021.72 2334.65 2017.95 2330.24 2017.95 2320.48C2017.95 2317.03 2019.08 2309.72 2020.72 2303.36L2068.91 2107.38L2161.75 2337.15C2168.15 2352.54 2181.72 2358.04 2191.58 2358.04H2285.24L2393.28 1886.83C2395.64 1876.61 2396.33 1872.07 2396.33 1867.35C2396.33 1851.36 2385.79 1841.5 2368.98 1841.5ZM1712.04 1834.13C1626.78 1834.13 1567.56 1853.98 1525.37 1896.49C1482.08 1940.09 1462.74 2003.76 1449.52 2060.4C1436.98 2113.13 1429.53 2166.18 1429.53 2202.42C1429.53 2314.67 1483.75 2363.42 1610.46 2364.58H1621.35C1709.97 2363.88 1761.63 2347.74 1798.83 2309.25C1839.66 2267.05 1861.78 2198.06 1884.35 2100.19C1893.84 2057.63 1898.29 2022.66 1898.29 1993.46C1898.29 1884.73 1839.15 1834.13 1712.04 1834.13ZM1742.78 2107.36C1713.44 2237.67 1685.6 2258.61 1630.6 2258.61C1580.23 2258.61 1564.06 2245.03 1564.06 2202.42C1564.06 2178.31 1569.29 2145.1 1582.23 2087.79C1610.53 1961.44 1641.82 1940.09 1701.04 1940.09C1742.01 1940.09 1758.72 1956.94 1758.72 1998.64C1758.72 2024.16 1753.5 2059.63 1742.78 2107.36ZM1427.7 1841.5H1316.52L1311.34 1863.76H1318.11C1326.55 1863.76 1330.47 1869.3 1330.64 1874.65C1330.64 1876.29 1330.37 1877.66 1328.42 1880.97L1185.31 2163.92L1163.78 1876.56C1162.64 1860.35 1148.29 1841.5 1131.49 1841.5H1003.45L998.231 1863.76H1005C1014.53 1863.76 1025.03 1871.89 1026.57 1887.47L1067.18 2325.93C1069.13 2346.05 1086.66 2358.04 1114.09 2358.04H1207.47L1457.45 1892.42C1460.81 1885.42 1462.17 1879.47 1462.08 1872.48C1461.77 1854.22 1447.59 1841.5 1427.7 1841.5ZM990.874 2335.76C980.656 2335.76 972.936 2328.68 972.252 2318.87L931.241 1879.54C928.874 1856.79 910.306 1841.48 885.139 1841.48H736.491L732.538 1863.74H739.264C748.475 1863.74 754.11 1868.05 754.614 1875.37C754.795 1878.73 753.978 1882.18 751.752 1886.67L531.102 2315.15C527.062 2320.82 526.068 2329.14 526.474 2335.08C527.243 2346.12 537.558 2358.02 558.313 2358.02H667.995L672.036 2335.76H665.222C659.729 2335.76 656.505 2334.17 655.958 2326.27C655.781 2322.73 656.638 2320.82 658.364 2317.01C658.775 2316.05 659.181 2315.15 659.588 2314.14L698.651 2234.07H830.36L838.626 2332.18C839.766 2348.35 851.98 2358.02 871.419 2358.02H994.544L997.228 2335.76H990.874ZM813.972 2000.31L823.736 2139.2H744.89L813.972 2000.31ZM425.535 1972.84C425.535 1976.98 424.762 1983.79 423.398 1989.24C411.722 2039.02 396.964 2053.32 357.358 2053.32H306.853L334.563 1936.42H384.608C418.399 1936.42 425.535 1956.23 425.535 1972.85" fill="black"/>
<path d="M1277.92 1120.81C1308.37 1089.25 1333.74 1051.03 1371.24 1027.48C1538.47 1037.07 1706.07 1043.01 1873.06 1056.24C1772.45 1122.39 1664.69 1177.72 1555.1 1227.49C1470.14 1263.03 1380.34 1299.93 1286.4 1292.05C1256.67 1288.52 1215.9 1273.11 1215.41 1237.8C1213.83 1190.71 1250 1154.54 1277.92 1120.81ZM1923.3 1061.95C1981.68 1018.02 2041.26 975.292 2100.97 932.944C2082.52 1110.01 2006.68 1281.97 1885.44 1412.92C1732.28 1585 1504 1685.86 1274.15 1689.5C1108.13 1689.62 940.17 1646.05 800.972 1554.06C659.711 1462.8 546.116 1328.46 481.313 1173.23C540.901 1180.27 599.756 1192.29 659.345 1198.72C778.274 1389.25 986.281 1526.27 1213.23 1536.82C1456.55 1557.09 1703.52 1434.52 1837.62 1231.12C1875 1179.42 1896.11 1118.86 1923.3 1061.95ZM421.119 883.671C467.84 858.067 516.75 836.703 565.295 814.862C566.747 856.729 568.324 898.596 570.514 940.468C518.689 941.678 466.625 938.773 415.29 931.486C416.871 915.465 416.138 899.087 421.119 883.671ZM1177.92 796.655C1510.19 780.511 1842.35 806.123 2173.54 830.035C2101.1 895.806 2025.85 961.099 1941.51 1011.1C1765.05 1006.49 1588.47 992.285 1412.02 983.064C1443.32 940.225 1484.34 906.121 1517.6 864.983C1347.57 855.268 1177.19 868.988 1007.28 874.57C936.647 877.842 844.42 891.195 796.852 825.54C923.059 806.489 1050.85 804.18 1177.91 796.655H1177.92ZM1037.75 478.696C1511.17 341.198 2022.21 329.182 2500 452.121V476.629C2422.21 571.289 2345.99 668.134 2256.44 752.121C2231.55 779.181 2192.71 766.556 2160.68 767.532C1981.43 754.788 1801.7 756.488 1622.33 750.292C1654.74 701.267 1691.02 654.67 1720.39 603.45C1563.11 581.366 1402.79 586.705 1245.27 604.788C969.536 638.526 700.121 719.355 448.79 837.436C387.501 868.136 323.298 894.587 268.081 936.22C356.431 968.377 452.066 959.156 543.564 971.291C569.781 985.003 588.35 1009.28 609.096 1029.79C656.797 1081.61 710.799 1127.36 756.309 1181.25C646.481 1174.45 538.106 1154.06 430.097 1134.04C283.25 1104.18 135.798 1068.62 0 1003.69V984.274C40.8914 943.012 88.5921 909.513 135.679 875.903C408.613 689.004 719.896 565.584 1037.75 478.696ZM1196.97 0.416992H1315.65C1557.16 20.686 1793.93 142.163 1936.04 340.831C1877.18 341.432 1818.33 342.288 1759.59 339.979C1730.7 340.95 1711.65 316.075 1689.93 301.026C1538.84 177.478 1333.13 129.057 1141.75 161.947C945.867 192.651 769.297 316.557 666.741 485.249C646 518.258 632.77 555.392 611.291 587.919C556.189 622.385 493.328 642.893 434.102 669.472C490.167 385.251 708.255 143.378 980.099 47.6275C1050.24 22.9912 1124.03 12.4327 1196.97 0.421408" fill="black"/>
</g>
<defs>
<clipPath id="clip0_3_213">
<rect width="2500" height="2365" fill="white"/>
</clipPath>
</defs>
</svg>
