<svg width="513" height="513" viewBox="0 0 513 513" fill="none" xmlns="http://www.w3.org/2000/svg">
<g clip-path="url(#clip0_2_192)">
<path d="M285.401 424.225C285.831 423.085 286.251 421.945 286.821 420.955C291.091 412.995 295.351 405.025 299.761 397.065C300.611 395.355 300.611 394.225 299.621 392.655C291.231 378.575 282.981 364.355 274.741 350.145C274.311 349.295 273.891 348.585 273.181 347.305C277.731 347.305 281.851 347.165 285.981 347.445C286.691 347.445 287.401 348.445 287.831 349.295C293.801 359.395 299.771 369.625 305.751 379.865C306.181 380.715 306.751 381.425 307.461 382.565C308.031 381.425 308.601 380.715 309.021 380.005C314.421 370.055 319.831 360.095 325.091 350.005C326.091 348.015 327.221 347.305 329.501 347.445C332.771 347.725 336.181 347.445 339.881 347.445C339.311 348.585 338.881 349.435 338.461 350.285C325.661 374.035 312.871 397.775 300.211 421.665C299.211 423.655 297.931 424.365 295.801 424.225C292.531 424.085 289.401 424.365 286.131 424.505C285.681 424.225 285.541 424.225 285.401 424.225Z" fill="#030303"/>
<path d="M320.95 98.7546C319.95 95.2046 320.52 94.0646 323.79 94.4846C328.62 95.1946 333.46 95.9046 338.01 97.6146C347.68 101.455 357.06 106.005 366.59 110.265C367.3 110.545 368.01 110.975 368.72 111.265C368.29 107.285 368.86 106.715 372.84 107.715C380.66 109.705 387.63 113.545 394.45 117.665C406.68 125.055 417.77 133.875 426.44 145.395C443.65 168.005 442.22 191.605 422.46 211.945C409.09 225.735 392.6 234.975 374.26 239.815C348.24 246.645 321.93 252.325 295.77 258.445C293.92 258.875 291.93 259.295 290.08 259.865C287.24 260.865 286.81 262.425 289.23 264.415C291.22 266.265 293.5 267.685 295.34 269.535C297.47 271.665 299.61 273.805 301.17 276.215C303.45 279.625 303.02 282.755 299.89 285.315C297.05 287.735 293.92 290.005 290.51 291.425C283.68 294.415 277.43 298.105 272.17 303.365C263.92 311.465 249.42 311.325 241.31 303.645C235.62 298.245 229.08 294.265 221.83 291.135C218.7 289.855 216 287.725 213.3 285.585C210.03 282.745 209.46 279.475 212.02 276.055C214.3 272.925 217.28 270.365 220.12 267.665C221.4 266.525 222.82 265.535 224.1 264.395C226.09 262.405 225.81 260.845 223.1 260.125C219.4 258.985 215.56 258.415 211.87 257.425C187.41 251.595 162.96 246.335 138.64 239.935C119.3 234.815 102.24 225.145 88.5904 210.215C79.6304 200.405 73.9404 189.025 74.5104 175.235C74.9404 164.285 79.4904 154.755 85.8904 146.085C97.4104 130.875 112.34 120.065 129.4 111.815C132.95 110.105 136.65 108.825 140.35 107.695C143.76 106.695 144.47 107.695 143.76 111.535C144.76 110.965 145.61 110.535 146.32 110.115C156.98 104.145 168.22 99.3046 180.02 95.8946C182.72 95.0446 185.71 94.7546 188.55 94.4746C191.96 94.3346 192.53 95.1846 191.68 98.7446C194.1 97.7446 196.23 96.6146 198.51 95.7546C206.19 93.1946 214.01 90.6346 221.83 88.2146C223.54 87.6446 225.53 87.9346 227.38 87.9346C227.95 87.9346 228.8 88.3646 228.94 88.7846C229.08 89.2146 228.66 90.0646 228.23 90.4946C226.81 91.6346 225.39 92.7746 223.96 93.7646C210.74 102.015 198.08 110.975 187.27 122.345C177.89 132.295 169.64 143.105 164.24 155.755C154.57 178.225 158.55 198.695 173.77 217.185C182.44 227.705 193.82 234.535 206.9 238.085C217.85 241.075 229.22 243.205 240.31 245.905C241.73 246.185 243.3 246.615 244.72 247.185C248.56 248.895 251.26 254.865 246 258.565C243.3 260.555 240.74 262.545 238.18 264.675C229.93 271.785 230.64 282.305 240.03 287.995C250.98 294.535 262.21 294.535 273.02 287.995C282.26 282.445 282.97 271.925 274.87 264.815C272.17 262.535 269.32 260.545 266.62 258.275C262.78 255.005 263.21 250.025 267.62 247.465C269.18 246.615 270.89 246.045 272.6 245.755C286.53 243.335 300.18 240.495 313.55 235.375C336.73 226.415 352.79 204.375 353.65 179.635C354.08 168.115 350.24 157.735 344.69 147.925C333.88 128.585 318.38 113.515 300.18 101.145C296.34 98.5846 292.5 96.1646 288.52 93.6046C287.52 92.8946 286.39 92.3246 285.68 91.4746C284.83 90.6246 284.26 89.4846 283.55 88.4846C284.69 88.2046 285.97 87.4846 287.1 87.6346C290.65 88.0646 294.35 88.4846 297.62 89.6246C304.73 92.0446 311.7 94.8846 318.66 97.5846C319.1 98.0446 319.81 98.3246 320.95 98.7546ZM324.22 99.3246C324.08 99.6046 323.94 100.035 323.79 100.325C324.64 100.755 325.64 101.325 326.49 101.745C338.29 107.715 349.38 114.685 359.62 122.935C370.71 131.895 380.38 141.985 386.64 155.075C394.18 170.855 393.47 186.075 383.37 200.715C378.54 207.545 372.99 213.655 366.59 218.915C354.79 228.725 341 234.985 326.92 240.385C326.07 240.665 325.07 241.095 324.22 241.385C325.22 241.665 326.07 241.525 326.78 241.245C332.18 239.255 337.73 237.405 343.13 235.275C357.06 229.445 370.43 222.765 381.81 212.385C394.46 200.725 401.01 186.645 398.16 169.015C396.31 157.635 391.05 147.825 383.94 139.015C373.42 125.935 360.05 116.695 345.41 109.015C338.44 105.435 331.33 102.455 324.22 99.3246ZM187.86 241.795C187.86 241.655 187.86 241.515 188 241.365C182.74 239.235 177.48 237.095 172.22 234.825C156.01 227.715 141.93 217.905 130.98 203.545C118.89 187.615 117.33 170.845 126.57 153.205C130.98 144.675 136.95 137.275 143.78 130.735C156.15 118.795 170.51 109.545 185.87 101.725C186.72 101.295 187.72 100.725 189 100.015C188.29 100.015 188 99.8746 187.86 100.015C187.15 100.155 186.58 100.445 185.87 100.725C169.94 106.415 155.44 114.655 142.22 125.185C132.69 132.865 124.73 141.825 119.33 152.915C113.07 165.565 111.08 178.655 116.06 192.155C119.9 202.675 127.29 210.635 136.11 217.325C150.76 228.275 167.25 235.385 184.45 241.075C185.58 241.085 186.72 241.375 187.86 241.795ZM138.66 113.825C138.09 114.105 137.1 114.535 136.1 115.105C130.98 118.375 125.72 121.505 120.74 124.915C111.92 130.885 103.68 137.715 96.9904 146.245C81.9204 165.725 82.2004 187.905 97.7004 206.105C104.95 214.635 114.05 220.895 124.15 225.585C130.41 228.425 136.8 230.845 143.2 233.405C143.34 233.125 143.34 232.975 143.48 232.695C139.5 230.845 135.38 229.145 131.54 227.145C119.74 221.035 108.93 213.635 101.11 202.545C90.3004 187.045 88.6004 170.835 98.5504 154.055C103.38 145.955 109.21 138.695 116.18 132.445C123.44 125.915 131.41 119.795 138.66 113.825ZM369.29 233.265C369.15 233.265 369.15 233.125 369.01 233.125C371.85 232.125 374.84 231.275 377.68 230.135C391.19 225.015 403.84 218.195 413.65 207.245C423.46 196.435 428.15 183.785 425.88 169.135C424.46 159.325 419.34 151.075 413.08 143.545C403.41 132.165 390.9 124.065 378.24 116.385C376.53 115.385 374.83 114.535 373.12 113.685C376.25 116.525 379.8 118.945 383.07 121.505C395.72 131.175 406.96 142.125 414.78 156.195C422.46 169.985 421.75 183.775 414.35 197.575C409.52 206.395 402.69 213.505 394.44 218.905C386.35 223.885 377.68 228.435 369.29 233.265Z" fill="#030303"/>
<path d="M448.49 360.815C448.49 381.005 448.49 401.195 448.49 421.535C443.37 421.535 438.54 421.675 433.56 421.395C432.85 421.395 432 420.255 431.57 419.545C424.03 406.605 416.5 393.665 408.96 380.725C408.25 379.445 407.4 378.165 406.12 376.885C406.12 391.675 406.12 406.315 406.12 421.245C402 421.245 398.3 421.245 394.46 421.245C394.46 401.055 394.46 381.005 394.46 360.525C399.72 360.525 404.98 360.385 410.1 360.665C410.81 360.665 411.66 361.805 412.23 362.515C419.77 375.315 427.16 388.105 434.55 400.765C435.12 401.765 435.69 402.755 436.4 403.755C436.68 403.755 436.83 403.615 437.11 403.615C437.11 389.395 437.11 375.035 437.11 360.675C440.81 360.815 444.51 360.815 448.49 360.815Z" fill="#030303"/>
<path d="M171.501 377.025C171.501 391.675 171.501 406.315 171.501 421.245C167.521 421.245 163.821 421.245 159.841 421.245C159.841 401.055 159.841 381.005 159.841 360.675C165.101 360.675 170.361 360.535 175.481 360.815C176.191 360.815 177.041 361.955 177.471 362.665C185.151 375.745 192.681 388.825 200.221 401.905C200.651 402.615 201.071 403.325 202.071 403.895C202.071 389.675 202.071 375.315 202.071 360.955C206.051 360.955 209.891 360.955 213.731 360.955C213.731 381.005 213.731 401.195 213.731 421.675C208.751 421.675 203.781 421.815 198.801 421.535C198.091 421.535 197.241 420.395 196.811 419.545C188.991 406.175 181.171 392.675 173.351 379.305C172.921 378.595 172.351 377.745 171.931 377.025C171.791 376.875 171.651 377.025 171.501 377.025Z" fill="#030303"/>
<path d="M1.02059 408.585C7.99059 411.285 14.6706 413.135 21.5006 412.425C24.6306 412.145 27.7606 411.575 30.7406 410.575C34.2906 409.435 36.7106 406.875 37.1406 403.035C37.5706 399.055 35.8606 395.925 32.5906 393.935C29.6006 392.085 26.3306 390.945 23.2106 389.525C19.2306 387.675 14.9606 386.255 10.9806 384.125C3.30059 380.145 -0.679411 373.745 0.170589 364.925C1.02059 356.535 5.86059 350.995 13.8206 348.285C24.3406 344.585 34.8606 345.445 45.3906 348.145C49.3706 349.145 49.3706 349.145 49.3706 353.405C49.3706 355.825 49.3706 358.095 49.3706 360.945C48.2306 360.515 47.5206 360.235 46.8106 359.945C39.4206 356.955 31.8806 355.535 24.0606 357.245C18.5106 358.525 15.6706 362.075 16.2406 367.055C16.5206 370.325 18.3706 372.745 21.0706 374.165C24.3406 376.015 27.9006 377.575 31.3106 379.285C35.8606 381.565 40.5506 383.405 44.6806 386.255C55.6306 393.935 55.4906 409.575 44.8206 417.535C39.5606 421.515 33.3006 423.085 26.9006 423.645C19.0806 424.355 11.2606 423.785 3.58059 421.515C1.73059 420.945 1.02059 419.955 1.16059 418.105C1.02059 414.985 1.02059 411.995 1.02059 408.585Z" fill="#030303"/>
<path d="M390.621 391.665C390.481 410.715 376.831 423.805 357.771 423.655C338.721 423.515 325.211 410.005 325.491 391.095C325.631 372.755 339.851 359.105 358.481 359.245C376.971 359.385 390.901 373.325 390.621 391.665ZM377.401 392.375C376.691 388.105 376.401 384.555 375.411 381.285C373.131 373.605 366.451 368.915 358.491 368.775C350.531 368.635 343.701 373.045 341.141 380.575C338.441 388.115 338.581 395.785 341.421 403.185C344.121 410.015 349.381 413.565 356.631 413.995C364.311 414.425 370.851 412.005 374.121 404.615C375.831 400.625 376.401 396.075 377.401 392.375Z" fill="#030303"/>
<path d="M275.3 372.324C268.05 369.334 260.94 368.344 253.69 368.914C236.77 370.194 227.1 386.404 234.21 402.044C238.05 410.294 245.02 413.564 253.69 413.984C256.68 414.124 259.8 413.554 262.79 413.134C264.21 412.994 264.78 412.134 264.78 410.574C264.78 406.594 264.64 402.754 264.78 398.774C264.78 397.064 264.07 396.644 262.5 396.644C258.38 396.644 254.11 396.644 249.85 396.644C249.85 393.654 249.85 390.954 249.85 388.114C259.09 388.114 268.05 388.114 277.43 388.114C277.43 388.824 277.57 389.534 277.57 390.244C277.57 399.064 277.57 408.014 277.57 416.834C277.57 418.114 277.57 419.114 276.01 419.674C263.64 423.944 251.13 425.364 238.61 420.954C222.26 415.264 214.44 397.494 220.41 380.714C224.96 368.064 234.77 362.374 247.28 360.234C255.95 358.674 264.63 359.664 273.16 361.794C274.72 362.224 275.44 362.934 275.29 364.634C275.16 367.064 275.3 369.484 275.3 372.324Z" fill="#030303"/>
<path d="M509.771 372.324C502.381 369.334 495.121 368.204 487.591 368.914C480.621 369.484 474.511 371.754 470.671 377.874C466.261 384.844 465.271 392.234 467.971 399.914C471.241 409.294 478.631 413.284 488.161 413.704C491.151 413.844 494.271 413.274 497.261 412.854C498.681 412.714 499.251 411.854 499.251 410.294C499.111 406.314 499.111 402.474 499.251 398.494C499.251 396.784 498.541 396.364 496.971 396.364C493.421 396.504 489.861 396.364 486.161 396.364C484.601 396.364 484.031 395.794 484.031 394.234C484.171 392.104 484.031 389.964 484.031 387.694C493.411 387.694 502.511 387.694 511.761 387.694C511.901 388.404 512.041 389.114 512.041 389.684C512.041 398.644 512.041 407.604 511.901 416.554C511.901 417.404 511.191 418.834 510.621 419.114C498.531 423.524 486.311 424.664 473.931 420.824C454.731 414.854 448.341 393.524 456.301 376.884C461.421 366.224 470.801 361.674 481.751 359.674C490.421 358.114 499.101 359.104 507.631 361.234C509.191 361.664 509.911 362.234 509.761 364.074C509.771 367.064 509.771 369.484 509.771 372.324Z" fill="#030303"/>
<path d="M94.1504 421.525C94.4304 420.525 94.7204 419.815 95.0004 419.105C102.25 400.335 109.5 381.705 116.61 362.935C117.32 361.225 118.03 360.655 119.88 360.655C124 360.795 128.27 360.795 132.39 360.655C133.81 360.655 134.52 361.085 135.09 362.365C142.48 381.565 149.88 400.755 157.27 419.955C157.41 420.385 157.55 420.805 157.7 421.515C153.72 421.515 149.88 421.515 146.04 421.515C145.47 421.515 144.62 420.665 144.33 420.095C142.91 416.685 141.63 413.265 140.35 409.855C139.92 408.575 139.07 408.005 137.65 408.005C129.83 408.005 121.87 408.005 114.05 408.005C112.49 408.005 111.77 408.575 111.35 409.995C110.21 413.265 108.79 416.535 107.65 419.805C107.22 421.085 106.51 421.655 105.09 421.655C101.55 421.525 97.9904 421.525 94.1504 421.525ZM126.29 373.185C126.01 373.185 125.86 373.185 125.58 373.045C122.31 381.435 119.18 389.685 115.91 398.355C122.74 398.355 129.13 398.355 136.1 398.355C132.69 389.815 129.41 381.575 126.29 373.185Z" fill="#030303"/>
<path d="M54.2004 410.865C58.7504 411.865 63.0204 413.145 67.4204 413.565C70.2604 413.845 73.2504 413.425 75.9504 412.715C79.2204 411.865 81.7804 409.875 82.2104 406.315C82.6404 402.905 80.7904 400.345 77.9404 398.775C74.2404 396.785 70.1204 395.225 66.4204 393.225C63.7204 391.805 61.0204 390.385 58.7404 388.535C50.0704 381.425 51.3504 367.775 61.3004 362.655C71.4004 357.535 82.0604 358.675 92.4404 362.085C93.0104 362.225 93.5804 363.225 93.5804 363.795C93.7204 366.785 93.5804 369.765 93.5804 373.175C92.5804 372.745 91.8704 372.325 91.0204 372.035C86.4704 369.905 81.6404 368.765 76.6604 369.195C75.1004 369.335 73.5304 369.625 72.2504 370.195C66.9904 372.185 65.8504 378.015 70.1204 381.575C72.5404 383.565 75.5204 384.985 78.3704 386.555C81.6404 388.265 85.2004 389.685 88.4704 391.535C100.98 398.645 97.2904 413.715 88.1904 419.115C83.0704 422.105 77.5304 423.385 71.8404 423.235C66.7204 423.095 61.4604 422.235 56.3404 421.525C54.7804 421.385 54.0604 420.525 54.0604 418.685C54.3404 416.125 54.2004 413.425 54.2004 410.865Z" fill="#030303"/>
</g>
<defs>
<clipPath id="clip0_2_192">
<rect width="512" height="512" fill="white" transform="translate(0.0908203 0.034668)"/>
</clipPath>
</defs>
</svg>
