<svg width="2500" height="2297" viewBox="0 0 2500 2297" fill="none" xmlns="http://www.w3.org/2000/svg">
<g clip-path="url(#clip0_6_2)">
<path d="M0 1619.35H601.859V1802.5H429.198V2242.67H178.406V1802.5H0V1619.35ZM906.668 1871.2L779.952 2242.67H539.105L775.32 1619.35H1036.88L1278.79 2242.67H1034.98L906.668 1871.2ZM1221.26 1619.35H1823.09V1802.5H1650.48V2242.67H1399.7V1802.5H1221.26V1619.35ZM2128.01 1871.2L2001.24 2242.67H1760.4L1996.69 1619.35H2258.18L2500 2242.67H2256.28L2128.01 1871.2Z" fill="black"/>
<path fill-rule="evenodd" clip-rule="evenodd" d="M2136.89 474.437C2114.41 430.245 2084.82 387.89 2048 348.17C1965.26 258.869 1848.52 184.56 1710.38 133.308C1571.09 81.6595 1412.22 54.3308 1250.78 54.3308C1089.34 54.3308 930.473 81.6595 791.259 133.308C653.04 184.566 536.297 258.875 453.559 348.17C416.766 387.884 387.074 430.299 364.608 474.514C544.459 431.021 852.105 373.598 1137.76 367.527C1165.31 366.935 1184.28 375.76 1196.78 391.592C1211.99 410.871 1210.85 479.596 1210.48 510.342L1202.36 1305.03C1218.44 1305.56 1234.61 1305.91 1250.78 1305.91C1267.09 1305.91 1283.35 1305.64 1299.43 1305.11L1291.31 510.336C1290.89 479.596 1289.71 410.865 1304.98 391.586C1317.5 375.76 1336.41 366.934 1363.96 367.521C1649.49 373.545 1957.07 430.98 2136.89 474.437Z" fill="black"/>
<path fill-rule="evenodd" clip-rule="evenodd" d="M2175.28 577.781C1912.05 518.273 1736.27 507.268 1562.82 497.643C1411.63 489.239 1409.65 543.227 1424.75 646.399C1425.74 652.695 1426.95 660.632 1428.39 669.682C1479.1 970.049 1542.25 1228.53 1553.1 1272.4C1921.69 1188.15 2187.51 954.549 2187.51 680.137C2187.51 645.582 2183.33 611.347 2175.28 577.781ZM1076.96 646.399C1092.07 543.233 1090.13 489.239 938.96 497.643C765.452 507.268 589.622 518.267 326.292 577.817C318.248 611.382 314.019 645.576 314.019 680.131C314.019 798.733 362.268 913.497 453.565 1012.1C536.303 1101.4 653.045 1175.71 791.264 1226.99C841.29 1245.52 894.082 1260.7 948.461 1272.84C958.666 1231.74 1023.27 967.881 1074.53 662.143C1075.48 656.285 1076.36 650.877 1076.96 646.399Z" fill="black"/>
</g>
<defs>
<clipPath id="clip0_6_2">
<rect width="2500" height="2296" fill="white" transform="translate(0 0.5)"/>
</clipPath>
</defs>
</svg>
