<svg width="1418" height="1124" viewBox="0 0 1418 1124" fill="none" xmlns="http://www.w3.org/2000/svg">
<g clip-path="url(#clip0_6_57)">
<path d="M691.467 5.55713C476.035 5.55713 300.807 182.234 300.807 398.764C300.807 615.294 476.035 791.99 691.467 791.99C906.9 791.99 1082.13 615.294 1082.13 398.765C1082.13 182.237 906.898 5.55713 691.467 5.55713ZM691.467 86.665C862.746 86.665 1001.02 225.747 1001.02 398.764C1001.02 571.781 862.745 710.882 691.468 710.882C520.189 710.882 381.914 571.78 381.914 398.764C381.914 225.747 520.189 86.665 691.467 86.665Z" fill="black"/>
<path fill-rule="evenodd" clip-rule="evenodd" d="M573.405 128H450.209L628.586 723.443H750.497L931.441 127.358H800.546L690.183 551.484L573.405 128Z" fill="black"/>
<path d="M241.668 861.919L141.425 1114.08H97.91L0 861.919H39.2417L120.057 1078.33H123.553L204.368 861.919H241.668ZM482.497 929.912V1049.58C482.497 1063.31 479.13 1074.96 472.395 1084.55C465.92 1094.13 456.984 1101.26 445.587 1105.92C434.189 1110.32 422.922 1113.43 411.784 1115.24C400.646 1117.06 388.602 1117.96 375.651 1117.96C305.196 1117.96 269.969 1095.17 269.969 1049.58V930.3C269.969 882.123 305.196 858.034 375.651 858.034C446.882 858.034 482.497 881.993 482.497 929.912ZM445.975 1049.19V929.135C445.975 898.053 422.663 882.512 376.039 882.512C366.197 882.512 357.519 883.159 350.007 884.454C342.496 885.49 335.243 887.692 328.249 891.059C321.256 894.167 315.816 898.96 311.931 905.435C308.045 911.652 306.103 919.552 306.103 929.135V1049.19C306.103 1078.2 329.544 1092.71 376.427 1092.71C422.793 1092.71 445.975 1078.2 445.975 1049.19ZM730.455 1114.08H684.219L611.953 1006.45H575.43V1114.08H537.743V861.919H626.328C657.929 861.919 680.593 865.157 694.321 871.632C708.05 877.849 714.914 891.059 714.914 911.263V954.779C714.914 970.32 708.568 982.105 695.876 990.135C683.184 997.906 667.772 1001.79 649.64 1001.79L730.455 1114.08ZM677.226 950.117V915.148C677.226 896.24 660.908 886.785 628.271 886.785H575.43V981.588H624.774C642.646 981.588 655.856 979.386 664.404 974.982C672.952 970.579 677.226 962.29 677.226 950.117ZM957.292 888.34H872.204V1114.08H834.127V888.34H748.65V861.919H957.292V888.34ZM1169.6 1114.08H996.316V861.919H1165.72V888.34H1034V970.708H1152.9V997.128H1034V1087.66H1169.6V1114.08ZM1417.32 1114.08H1374.2L1303.09 1011.5L1231.99 1114.08H1188.86L1281.72 985.473L1192.75 861.919H1235.88L1303.09 959.442L1370.31 861.919H1413.44L1324.46 985.473L1417.32 1114.08Z" fill="black"/>
</g>
<defs>
<clipPath id="clip0_6_57">
<rect width="1417.32" height="1122.52" fill="white" transform="translate(0 0.5)"/>
</clipPath>
</defs>
</svg>
